<svg aria-hidden="true" style="position: absolute; width: 0; height: 0; overflow: hidden;" version="1.1" xmlns="http://www.w3.org/2000/svg" xmlns:xlink="http://www.w3.org/1999/xlink">
<defs>
<symbol id="icon-bulb" viewBox="0 0 32 32">
<path d="M18 29h-4c-0.552 0-1 0.448-1 1s0.448 1 1 1v0h4c0.552 0 1-0.448 1-1s-0.448-1-1-1v0z"></path>
<path d="M19 26h-6c-0.552 0-1 0.448-1 1s0.448 1 1 1v0h6c0.552 0 1-0.448 1-1s-0.448-1-1-1v0z"></path>
<path d="M23.089 3.918c-1.879-1.882-4.397-2.918-7.089-2.918-0.007-0-0.015-0-0.024-0-5.51 0-9.976 4.467-9.976 9.976 0 0.008 0 0.017 0 0.025v-0.001c0 2.914 1.117 5.639 3.063 7.478l0.273 0.256c1.126 1.052 2.665 2.494 2.665 3.767v1.5c0 0.552 0.448 1 1 1v0h1.5c0.276 0 0.5-0.224 0.5-0.5v0-7.324c0-0 0-0 0-0 0-0.212-0.132-0.393-0.317-0.466l-0.003-0.001c-0.625-0.258-1.163-0.559-1.66-0.914l0.025 0.017c-0.279-0.18-0.462-0.49-0.462-0.843 0-0.552 0.448-1 1-1 0.236 0 0.454 0.082 0.625 0.219l-0.002-0.002c0.463 0.328 1.353 0.813 1.794 0.813s1.332-0.486 1.796-0.813c0.151-0.096 0.335-0.153 0.532-0.153 0.552 0 1 0.448 1 1 0 0.314-0.144 0.594-0.37 0.777l-0.002 0.001c-0.472 0.338-1.010 0.638-1.581 0.875l-0.054 0.020c-0.189 0.074-0.321 0.255-0.321 0.467 0 0 0 0 0 0v0 7.326c0 0.276 0.224 0.5 0.5 0.5v0h1.5c0.552 0 1-0.448 1-1v0-1.5c0-1.242 1.523-2.683 2.634-3.736l0.307-0.291c2.001-1.911 3.059-4.497 3.059-7.473 0-0.015 0-0.033 0-0.050 0-2.746-1.113-5.232-2.911-7.032l0 0z"></path>
</symbol>
<symbol id="icon-briefcase" viewBox="0 0 32 32">
<path d="M31 11c-0.003-2.208-1.792-3.998-4-4h-3v-1c-0.002-1.656-1.344-2.998-3-3h-10c-1.656 0.002-2.998 1.344-3 3v1h-3c-2.208 0.003-3.998 1.792-4 4v3h30zM22 7h-12v-1c0-0.552 0.448-1 1-1v0h10c0.552 0 1 0.448 1 1v0z"></path>
<path d="M21 16.5c0 0.828-0.672 1.5-1.5 1.5v0h-7c-0.828 0-1.5-0.672-1.5-1.5v0-0.25c0-0.138-0.112-0.25-0.25-0.25v0h-9.75v9c0 2.209 1.791 4 4 4v0h22c2.209 0 4-1.791 4-4v0-9h-9.75c-0.138 0-0.25 0.112-0.25 0.25v0z"></path>
</symbol>
<symbol id="icon-person" viewBox="0 0 32 32">
<path d="M20.79 4.036c-1.216-1.313-2.915-2.036-4.79-2.036-1.885 0-3.589 0.719-4.8 2.024-1.224 1.319-1.82 3.112-1.68 5.049 0.277 3.82 3.184 6.928 6.48 6.928s6.197-3.107 6.479-6.926c0.142-1.919-0.458-3.708-1.689-5.037z"></path>
<path d="M27 30h-22c-0.008 0-0.016 0-0.025 0-0.596 0-1.129-0.269-1.485-0.693l-0.002-0.003c-0.406-0.486-0.57-1.149-0.449-1.819 0.527-2.926 2.174-5.384 4.761-7.11 2.299-1.532 5.211-2.375 8.2-2.375s5.901 0.844 8.2 2.375c2.587 1.725 4.234 4.183 4.761 7.109 0.121 0.671-0.043 1.334-0.449 1.819-0.358 0.427-0.891 0.696-1.488 0.696-0.009 0-0.017-0-0.026-0h0.001z"></path>
</symbol>
<symbol id="icon-warning" viewBox="0 0 32 32">
<path d="M28.067 24.942l-10.652-19.781c-0.755-1.402-2.766-1.402-3.522 0l-10.651 19.781c-0.151 0.274-0.239 0.601-0.239 0.948 0 1.104 0.894 1.998 1.997 2h21.306c0 0 0 0 0 0 1.105 0 2-0.895 2-2 0-0.347-0.089-0.674-0.244-0.959l0.005 0.010zM15.654 24.828c-0.69 0-1.25-0.56-1.25-1.25s0.56-1.25 1.25-1.25c0.69 0 1.25 0.56 1.25 1.25v0c0 0.69-0.56 1.25-1.25 1.25v0zM17.012 12.256l-0.359 7.625c0 0.552-0.448 1-1 1s-1-0.448-1-1v0l-0.359-7.622c-0.001-0.018-0.001-0.039-0.001-0.060 0-0.745 0.601-1.351 1.344-1.358h0.014c0 0 0 0 0.001 0 0.75 0 1.359 0.608 1.359 1.359 0 0.021-0 0.042-0.001 0.063l0-0.003z"></path>
</symbol>
<symbol id="icon-checkmark-circle-outline" viewBox="0 0 32 32">
<path stroke-width="2" stroke-miterlimit="10" stroke-linecap="butt" stroke-linejoin="miter" d="M28 16c0-6.625-5.375-12-12-12s-12 5.375-12 12 5.375 12 12 12 12-5.375 12-12z"></path>
<path stroke-width="2" stroke-miterlimit="4" stroke-linecap="round" stroke-linejoin="round" d="M22 11l-8.4 10-3.6-4"></path>
</symbol>
<symbol id="icon-book" viewBox="0 0 32 32">
<path d="M12.64 4.625c-2.258-1.078-5.414-1.606-9.64-1.625v0c-0.008-0-0.017-0-0.027-0-0.408 0-0.787 0.125-1.1 0.338l0.007-0.004c-0.534 0.365-0.88 0.97-0.88 1.657 0 0.001 0 0.003 0 0.004v-0 17.881c0 1.209 0.86 2.121 2 2.121 4.442 0 8.898 0.415 11.566 2.938 0.046 0.044 0.108 0.071 0.177 0.071 0.142 0 0.257-0.115 0.257-0.257 0-0 0-0.001 0-0.001v0-21.069c0-0 0-0 0-0.001 0-0.298-0.132-0.566-0.34-0.748l-0.001-0.001c-0.584-0.502-1.248-0.936-1.965-1.278l-0.054-0.023z"></path>
<path d="M30.12 3.331c-0.306-0.208-0.684-0.331-1.090-0.331-0.011 0-0.021 0-0.032 0l0.002-0c-4.226 0.019-7.382 0.544-9.64 1.625-0.771 0.364-1.435 0.798-2.032 1.309l0.012-0.010c-0.209 0.183-0.341 0.451-0.341 0.75 0 0 0 0 0 0v0 21.071c0 0 0 0 0 0 0 0.136 0.11 0.246 0.246 0.246 0.067 0 0.128-0.027 0.172-0.070l-0 0c1.604-1.594 4.42-2.926 11.585-2.926 1.105 0 2-0.895 2-2v0-18c0-0.001 0-0.003 0-0.004 0-0.688-0.347-1.294-0.876-1.654l-0.007-0.004z"></path>
</symbol>
</defs>
</svg>
