<?xml version="1.0" encoding="UTF-8"?>
<!DOCTYPE svg PUBLIC "-//W3C//DTD SVG 1.1//EN" "http://www.w3.org/Graphics/SVG/1.1/DTD/svg11.dtd">
<!-- Creator: CorelDRAW X7 -->
<svg xmlns="http://www.w3.org/2000/svg" xml:space="preserve" width="8.5in" height="11in" version="1.1" style="shape-rendering:geometricPrecision; text-rendering:geometricPrecision; image-rendering:optimizeQuality; fill-rule:evenodd; clip-rule:evenodd"
viewBox="0 0 8500 11000"
 xmlns:xlink="http://www.w3.org/1999/xlink">
 <defs>
  <style type="text/css">
   <![CDATA[
    .str18 {stroke:#499566;stroke-width:6.94488}
    .str13 {stroke:#4CA5AB;stroke-width:6.94488}
    .str16 {stroke:#52869C;stroke-width:6.94488}
    .str2 {stroke:#5F759C;stroke-width:6.94488}
    .str9 {stroke:#648E7A;stroke-width:6.94488}
    .str10 {stroke:#64AB4F;stroke-width:6.94488}
    .str14 {stroke:#668D4C;stroke-width:6.94488}
    .str11 {stroke:#6CE057;stroke-width:6.94488}
    .str12 {stroke:#899265;stroke-width:6.94488}
    .str4 {stroke:#98695F;stroke-width:6.94488}
    .str15 {stroke:#99B058;stroke-width:6.94488}
    .str6 {stroke:#A38259;stroke-width:6.94488}
    .str5 {stroke:#AB52A6;stroke-width:6.94488}
    .str0 {stroke:#AC5D60;stroke-width:6.94488}
    .str1 {stroke:#AD9F54;stroke-width:6.94488}
    .str3 {stroke:#BF1925;stroke-width:6.94488}
    .str8 {stroke:#E785D0;stroke-width:6.94488}
    .str17 {stroke:#E7AC36;stroke-width:6.94488}
    .str7 {stroke:#E9E836;stroke-width:6.94488}
    .fil18 {fill:#499566}
    .fil13 {fill:#4CA5AB}
    .fil16 {fill:#52869C}
    .fil2 {fill:#5F759C}
    .fil9 {fill:#648E7A}
    .fil10 {fill:#64AB4F}
    .fil14 {fill:#668D4C}
    .fil11 {fill:#6CE057}
    .fil12 {fill:#899265}
    .fil4 {fill:#98695F}
    .fil15 {fill:#99B058}
    .fil6 {fill:#A38259}
    .fil5 {fill:#AB52A6}
    .fil0 {fill:#AC5D60}
    .fil1 {fill:#AD9F54}
    .fil3 {fill:#BF1925}
    .fil8 {fill:#E785D0}
    .fil17 {fill:#E7AC36}
    .fil7 {fill:#E9E836}
   ]]>
  </style>
 </defs>
 <g id="Layer_x0020_1">
  <metadata id="CorelCorpID_0Corel-Layer"/>
  <g id="_2668368392624">
   <path class="fil0 str0" d="M2125 5237c-19,-97 -30,-53 -87,-116 -81,-91 -204,-359 43,-282 53,16 97,98 89,-96 0,-9 90,-206 166,-206 28,0 52,13 119,13 63,0 0,-86 0,-122 0,-79 -197,-55 -231,-94 -1,-1 -52,-25 -28,5 0,1 44,97 19,99 -6,0 -71,51 -115,49 -99,-3 47,136 -215,136 -54,0 -72,-58 -79,40 -5,66 -332,201 -169,189 33,-2 18,70 105,129 50,34 76,146 186,213 92,56 196,211 196,18 0,17 -1,15 1,25z"/>
   <path class="fil0 str0" d="M2148 4326c12,11 23,56 32,60 11,32 47,46 -41,50 -77,4 -105,55 -138,115 -18,34 -5,60 -80,20 -29,-15 -40,-2 -38,-66 1,-31 -13,-34 1,-72 16,-44 -72,-57 -69,-93 0,63 52,42 52,124 0,11 -6,107 -8,109 -19,22 -71,-3 -134,123 -6,12 -136,66 -95,-56 5,-12 65,-80 27,-39 -6,7 -51,54 -54,37 -1,-7 -76,-91 -116,-59 -28,-35 73,-31 73,-120 0,-145 85,-49 160,-94 37,-23 22,-130 16,-75 -19,150 -198,0 -193,139 5,115 -69,74 -74,141 -10,127 -86,58 -152,140 -24,30 -54,36 -63,76 -7,26 -72,-6 -78,84 -1,8 -39,24 -54,-28 -19,-66 -23,-54 17,-126 8,-14 106,-48 111,-96 1,-6 34,-59 49,-68 62,-35 37,-108 94,-112 49,-5 70,-58 35,-107 -9,-13 -19,-49 -36,-63 0,0 -25,-26 21,-26 48,0 69,5 95,-40 25,-45 59,-8 105,-8 48,0 245,39 286,64 32,19 203,66 246,63l3 3z"/>
   <path class="fil0 str0" d="M1490 4599c39,-27 39,17 82,24 0,0 51,46 43,57 -29,41 80,60 5,86 -38,13 -65,55 -88,83 -60,77 -70,3 -135,49 -21,15 -28,-37 -86,-34 -36,1 -61,-24 -31,-62 39,-50 8,-69 108,-99 39,-12 99,-47 97,-92 0,-2 3,-11 5,-12z"/>
   <path class="fil0 str0" d="M1248 4138c-16,69 -86,40 -60,113 4,8 3,30 -9,29 0,1 -20,8 -30,-6 -2,-3 -31,-52 -31,-53 -5,-11 -27,-58 -32,-22 -9,62 42,86 -60,94 -36,4 -50,75 -46,113 3,22 -25,30 20,59 59,37 20,30 68,78 43,43 0,24 73,29 6,0 13,14 -20,18 -48,6 -11,68 68,7 22,-17 122,5 52,-76 -1,-2 -15,-38 6,-14 26,30 43,56 76,-1 10,-18 4,-83 73,-80 35,2 40,-59 23,-79 0,-1 -20,-60 -50,-81 -18,-13 14,-63 77,-37 13,5 91,-41 18,-41 -28,0 -189,-37 -209,-51 -2,-1 -6,-1 -7,1z"/>
   <path class="fil0 str0" d="M1045 4258c26,-42 -40,-114 96,-104 7,1 68,-48 89,-16 21,34 -67,33 -58,106 10,80 -50,-61 -53,-61 -37,-4 -49,-18 -51,41 -1,10 24,74 -27,40l4 -6z"/>
   <path class="fil0 str0" d="M2486 4391c1,0 111,52 140,50 20,-1 72,32 134,30 12,-1 28,43 5,48 -16,75 -353,208 -256,253 -12,37 74,176 -70,62 -38,-30 16,-36 -57,-41 -15,-1 -8,-52 -11,-64 75,-72 53,-2 64,-83 0,-4 59,14 102,-46 34,-48 53,7 47,-122 -1,-25 29,-29 -20,-41 -28,36 54,124 -26,147 -8,2 -18,39 -110,46 -35,2 40,56 -46,76 -35,9 -39,104 -12,103 49,-1 80,98 -4,59 -23,-11 -205,11 -215,28 -14,23 -5,77 3,91 6,9 22,104 -18,111 -79,12 -191,-225 -155,-230 2,-19 49,-27 77,11 9,11 70,22 72,6 87,8 38,-149 78,-174 55,-36 71,-203 227,-138 74,30 98,-78 47,-142 -17,-21 9,-50 -8,-27 -1,1 28,11 1,5 -1,-1 -16,-16 11,-18z"/>
  </g>
  <g id="_2668368389744">
   <path class="fil1 str1" d="M2756 5929c-4,-23 10,-19 30,-28 16,-8 97,-15 47,6 -12,5 -63,30 -72,25 -3,-1 -5,0 -5,-3z"/>
   <path class="fil1 str1" d="M2924 5872c7,-14 62,-25 64,-13 4,26 -16,13 -44,13 -4,0 -20,0 -20,0z"/>
   <path class="fil1 str1" d="M2517 6112c6,-19 24,-14 35,-28 9,-9 96,-31 115,-51 21,-20 53,-33 71,-57 28,-36 122,-56 166,-84 14,-9 89,-16 93,-7 7,14 14,11 19,33 5,23 23,26 30,46 10,31 -2,13 21,44 30,38 55,66 80,109 15,27 36,26 59,68 6,9 20,8 20,29 -1,37 -42,56 -10,102 2,2 11,12 11,14 -4,-1 -5,9 -24,9 -14,1 -74,43 -105,40 -40,-3 -89,8 -136,7 -40,-1 -33,21 -87,-12 -11,-7 -137,-45 -150,-43 -23,4 -26,14 -63,7 -33,-6 -57,-4 -87,-19 -12,-6 -4,-16 -33,-29 -1,-1 -24,-60 -24,-72 0,-16 -9,-26 -8,-49 1,-29 -3,-28 7,-57z"/>
   <path class="fil1 str1" d="M2825 6477c34,-14 8,-26 75,-26 36,0 61,-9 90,-11 38,-2 60,-5 99,-4 11,1 88,-16 102,-29 39,-39 -18,71 -34,86 -4,3 -36,51 -29,60 7,9 10,49 6,63 -12,43 11,41 22,64 68,9 50,15 118,-9 25,-9 114,-4 131,21 7,9 17,42 -6,44 -33,3 -28,-14 -63,4 -61,30 -82,28 -144,7 -27,-8 -108,-13 -134,2 -13,7 -64,21 -88,33 -5,3 -31,14 -32,10 -7,-32 -3,-49 -37,-72 -19,-13 -78,-33 -78,-71 0,-1 -10,-26 -9,-45 1,-35 -15,-69 -1,-106 2,-7 7,-19 12,-21z"/>
  </g>
  <g id="_2668368387216">
   <path class="fil2 str2" d="M5453 5319c22,20 25,32 51,41 49,17 7,-2 -4,25 -12,32 42,15 49,36 12,34 -34,27 -32,79 2,27 37,13 19,55 -10,25 25,19 28,60 0,1 34,53 37,58 56,-1 211,-93 255,-129 10,-8 61,-17 92,-39 42,-31 82,-71 133,-86 23,-6 36,-46 124,-68 11,-3 159,-80 165,-87 16,-19 66,-25 93,-56 29,-35 233,-109 219,-122 -41,-38 -41,-31 -73,-81 -19,-30 -88,-63 -101,-97 -2,-8 -30,-40 -36,-40 -21,0 -66,7 -68,-20 -1,-24 6,-92 -40,-85 -4,1 4,22 -12,35 -1,0 -42,51 -23,68 20,18 -62,54 -65,-11 -5,-82 -96,-32 -42,23 24,24 -27,71 -64,50 -26,-16 11,72 -31,35 -36,-33 -18,64 -33,73 -39,23 -62,-13 -46,57 -63,41 -28,-36 -108,-5 -10,4 25,17 32,48 9,45 117,-25 68,106 -4,12 -15,76 18,27 36,-55 97,63 -2,91 -46,13 -26,-62 -53,-61 -29,1 -78,45 -52,81 7,9 -7,44 -39,41 -133,-11 -94,108 -147,52 -34,-36 -39,-112 -103,-119 -17,-3 -50,-19 -91,-19 -37,0 -95,-20 -118,-16z"/>
   <path class="fil2 str2" d="M5155 5035c12,11 28,47 55,57 0,2 188,174 212,203 0,1 11,8 11,9 54,-4 256,16 285,59 8,13 72,165 88,87 18,-89 166,-12 127,-84 -11,-22 26,-85 60,-89 46,-5 50,113 91,42 27,-46 -48,11 -59,-49 -8,-38 33,-103 -38,-105 -43,-2 -94,-155 -11,-109 1,0 57,52 59,2 1,-23 -20,-9 32,-37 52,-28 10,-113 63,-82 19,11 -8,-37 42,-30 35,6 47,-6 27,-36 -13,-1 -17,-110 66,-75 23,9 21,121 45,55 9,-23 -7,-38 41,-67 4,-2 -16,-64 44,-28 10,6 -54,-52 -61,-72 -17,-52 -137,-114 -142,-135 -3,-13 -12,-32 -15,-44 -9,-13 -11,-46 -37,-75 -44,-48 -39,-131 -63,-187 -22,-47 23,-80 -61,-78 -93,2 -72,-29 -72,116 0,39 4,270 -16,279 -31,14 -94,25 -122,47 -6,5 -94,30 -130,63 -2,2 -128,51 -152,71 -14,12 -90,37 -116,78 -12,18 -185,154 -217,175 -7,5 -36,31 -36,39z"/>
  </g>
  <g id="_2666797932080">
   <path class="fil3 str3" d="M2209 4920c28,8 86,-6 112,11 14,10 168,-14 200,-13 32,2 9,-36 60,10 10,9 84,-8 106,8 44,31 40,75 64,117 14,24 26,57 -8,64 -59,12 -88,188 -129,66 -14,-42 36,-102 -68,-110 -5,7 -6,0 -22,27 -33,57 -31,68 -95,115 -9,7 0,93 -4,118 -11,73 -2,63 -94,66 -73,2 -72,-34 -84,-39 -15,-6 -80,-32 -68,-52 1,-1 7,-75 23,-81 15,-40 38,-155 15,-188 -3,-4 -35,-107 -26,-115 4,-3 13,-5 18,-4z"/>
   <path class="fil3 str3" d="M2265 5453c27,4 47,-36 104,-34 28,1 81,-11 79,-45 0,-15 1,-128 4,-134 18,-30 88,-104 97,-138 10,-35 48,5 48,70 0,87 87,105 107,22 0,-2 76,-98 83,-75 16,56 7,10 3,63 -1,10 37,50 25,79 -4,10 28,76 16,136 -12,63 -86,-18 -76,30 9,43 -38,47 -69,88 -32,42 -20,25 -9,68 31,14 6,75 -23,83 -13,3 -1,43 -24,81 -10,17 19,79 19,79 65,15 0,55 -6,75 0,3 -23,39 -31,68 -7,26 -24,81 -59,58 -50,-33 -25,-29 -93,-23 -32,3 -22,-13 -76,8 -37,14 -79,28 -97,63 -1,2 -81,-23 -81,-82 0,-90 23,-15 -30,-97 0,0 -6,-46 -16,-64 -10,-19 6,-54 -5,-80 0,0 -7,-45 -13,-64 -16,-53 31,-132 44,-183 12,-42 98,-58 93,-56 -9,4 -12,4 -14,4z"/>
  </g>
  <g id="_2666797928880">
   <path class="fil4 str4" d="M3285 5761c41,-57 40,-9 38,-77 -1,-22 12,-5 16,-42 1,-2 33,-81 39,-106 1,-7 34,-88 14,-101 -4,-3 -9,-58 1,-74 15,-23 48,-112 66,-128 63,-53 172,-69 254,-83 54,-10 9,-12 47,35 10,13 32,-9 32,-42 0,-69 52,-2 58,-64 0,-4 -27,-32 38,-32 6,0 66,65 108,79 1,1 178,104 198,118 100,72 249,155 334,224 97,80 69,51 146,-28 8,-9 70,-54 69,-36 -1,52 20,73 -22,118 -18,18 -104,15 -140,27 -84,28 -73,50 -141,100 -77,55 -159,68 -228,-1 -58,-59 -105,40 -185,-9 -12,-7 -88,2 -123,-12 -52,-21 -151,-27 -185,-49 -10,-6 -146,-35 -149,-32 -14,17 -24,37 -35,44 -12,7 -51,56 -62,69 -20,26 -73,57 -84,81 -7,18 -23,56 -51,48 -3,-32 -21,-3 -26,-21 -2,-6 -33,1 -27,-6z"/>
   <path class="fil4 str4" d="M3383 5783c7,-15 69,-86 68,-89 10,-2 7,24 4,31 -10,28 -34,63 -70,60l-2 -2z"/>
   <path class="fil4 str4" d="M3468 5892c3,4 23,3 24,9 4,2 82,-57 44,-42 -9,4 -12,0 -27,11 0,0 -25,10 -32,14 -5,3 -10,5 -9,8z"/>
   <path class="fil4 str4" d="M3354 5808c16,18 26,31 48,44 6,4 55,37 56,36 26,-22 70,-35 99,-53 23,-14 28,-12 50,-35 21,-21 58,-19 86,-20 1,0 32,6 42,6 59,0 42,-9 78,-15 16,-3 88,-4 102,5 10,5 64,3 76,-10 4,-4 78,-47 85,-48 24,-6 50,-27 74,-16 14,7 30,-20 61,-3 10,5 29,-11 8,-26 -16,-11 -11,-34 -52,-26 -49,10 -18,23 -102,23 -50,0 -41,-25 -101,-22 -24,1 -51,3 -71,-8 -22,-12 -46,-17 -71,-16 -24,1 -57,-14 -101,-13 -42,0 -73,-57 -142,-48 -21,2 -18,39 -46,58 -8,7 -72,99 -72,113 0,24 -29,60 -59,63 -9,1 -37,7 -45,10l-3 1z"/>
   <path class="fil4 str4" d="M4055 5910c0,-2 21,-43 24,-43 1,0 48,-6 57,-7 43,-2 47,-19 71,-47 28,-32 48,-12 89,-23 19,-5 96,-24 110,-12 22,18 36,15 -1,31 -31,14 -48,22 -82,31 -46,12 -57,28 -115,31 -35,2 -63,9 -94,21 -19,8 -28,5 -51,16 -1,1 -7,0 -6,2l-2 0z"/>
   <path class="fil4 str4" d="M3513 5906c23,0 49,-56 85,-78 32,-19 -12,-30 77,-27 72,3 75,10 143,-18 14,-6 89,23 136,4 7,-3 41,-4 69,-18 111,-52 41,-59 189,-52 1,0 47,-10 75,-10 53,0 65,24 128,-13 72,-43 65,-50 121,-94 86,-70 177,-24 244,-72 48,-34 -73,-135 15,-186 39,-23 118,-120 155,-116 43,6 61,-1 93,20 44,27 40,3 82,55 12,15 115,-19 130,12 18,36 59,33 89,17 30,-16 80,-11 114,-11 3,12 37,43 60,45 15,1 -43,52 2,43 55,-11 48,37 21,54 -35,22 -5,66 -5,73 1,54 50,68 51,115 1,21 40,17 -17,52 -32,19 -87,63 -122,69 -35,5 -166,115 -242,127 -31,5 -167,110 -175,87 -22,-58 -12,-98 -42,-154 -9,-19 17,-35 -44,-87 -29,-24 -26,-38 -80,-55 -16,-5 -25,-34 -93,-31 -74,3 -76,-86 -161,55 -45,75 -100,50 -162,86 0,0 -31,-70 -80,-35 -27,19 -131,-23 -211,73 -28,33 -61,-51 -122,61 -18,33 -31,8 -55,25 -23,16 -147,-3 -177,-5 -70,-5 -150,-3 -217,-11 0,-1 -74,0 -74,0z"/>
   <path class="fil4 str4" d="M4950 5226c6,-60 31,-41 62,-81 2,-1 138,-111 145,-103 10,9 18,42 58,54 34,9 105,88 132,116 2,3 124,104 90,99 -9,-1 -15,-39 -92,2 -77,40 -55,-3 -114,-27 -45,-18 -75,42 -170,-52 -17,-18 -113,-17 -113,-16 2,5 3,0 2,8z"/>
   <path class="fil4 str4" d="M4759 5471c-9,9 1,17 -15,36 0,1 -13,20 -9,20 13,2 14,-4 29,-5 5,0 19,-18 14,-28 -4,-7 -3,-11 -9,-21 -2,-3 -8,-3 -10,-2z"/>
  </g>
  <g id="_2666797943152">
   <path class="fil5 str5" d="M3293 5759c22,0 87,48 23,45 -47,-2 -24,43 -35,-27 -2,-11 2,-18 12,-18z"/>
   <path class="fil5 str5" d="M3002 5884c10,-11 91,-36 105,-34 26,5 157,-12 182,-23 18,-8 85,-30 94,2 7,22 106,41 53,70 -81,46 -174,2 -201,69 -45,109 51,54 51,168 0,11 2,60 7,67 -10,25 19,95 19,113 -15,12 -90,26 -98,12 -36,-61 46,-83 2,-135 -26,-32 -88,-84 -101,-129 -8,-27 -59,-47 -71,-105 -1,-3 -45,-71 -42,-75z"/>
   <path class="fil5 str5" d="M3367 5936c45,-14 55,-14 96,-42 2,-1 26,6 31,8 0,12 -92,57 -127,34z"/>
   <path class="fil5 str5" d="M3238 5997c48,-47 72,-42 136,-52 21,-3 36,20 70,-4 3,-2 28,-3 62,-33 13,-12 64,11 84,9 -5,15 -30,0 -51,47 -19,41 -33,70 -13,114 4,10 10,61 -12,68 -17,6 -86,-9 -88,-40 -2,-22 -27,-75 -46,-85 -81,-40 -80,56 -109,12 -17,-25 -44,18 -33,-36z"/>
   <path class="fil5 str5" d="M3627 5916c60,78 -4,40 48,122 21,34 60,38 94,73 2,2 59,52 60,53 46,29 25,-53 103,-51 112,3 100,-6 56,-78 -38,-62 78,-140 23,-121 -88,32 -153,-8 -226,7 -31,6 -95,-14 -150,-5 -1,0 -8,0 -8,0z"/>
   <path class="fil5 str5" d="M3302 6049c20,-9 50,-31 64,-3 14,25 43,100 63,107 37,12 55,19 95,4 30,-10 35,-79 16,-97 -8,-7 -11,-45 5,-62 10,-9 82,-124 85,-34 4,145 80,100 141,190 18,27 46,3 9,35 -7,6 -70,94 -99,115 -21,15 -29,60 -76,84 -37,20 -74,55 -86,96 -8,25 -98,219 -109,219 -4,0 -26,-32 -112,-32 -38,0 -15,27 -108,27 -9,0 -53,-17 -55,-25 -21,-7 2,-101 -15,-123 -10,-13 43,-56 57,-84 36,-76 8,-87 113,-104 53,-9 54,-38 63,-75 -28,-27 -35,-134 -33,-176 0,-10 -33,-55 -18,-62z"/>
   <path class="fil5 str5" d="M3795 6169c32,9 3,-3 31,13 19,12 38,-19 56,-28 38,-19 0,-30 91,-30 74,0 60,-47 86,-10 17,24 50,12 71,62 11,27 22,-4 20,67 0,13 92,23 117,36 15,8 61,13 80,36 13,16 85,11 111,30 12,9 185,55 203,55 -22,3 -6,-125 -27,-159 -19,-31 29,-21 61,-47 56,-44 117,-50 161,-81 29,-21 172,-74 171,-105 -1,-15 3,-27 -6,-36 5,-17 -22,-128 -34,-150 -22,-38 12,-22 -48,-32 -7,-1 -25,88 -93,41 -93,-65 -14,48 -102,56 -70,7 -18,86 -84,83 -32,-1 -81,20 -105,-2 -13,-11 -78,-9 -112,-27 -40,-21 -15,-25 -23,-59 19,-12 20,-50 20,-72 -37,0 -34,-2 -72,14 -16,7 -299,77 -300,77 -49,-3 -13,41 -72,72 -29,15 44,83 43,120 -1,28 -118,28 -152,52 -11,8 -59,59 -65,33 -9,-2 -16,-6 -27,-9z"/>
   <path class="fil5 str5" d="M4440 5810c19,-19 17,3 17,23 0,24 -15,45 -19,89 -1,14 112,30 128,38 23,11 86,15 100,-3 18,-23 18,-13 29,-51 16,-52 78,-18 85,-76 4,-40 27,-56 61,-24 13,12 51,31 63,15 0,0 23,-36 35,-38 2,0 26,-10 30,-12 0,-24 -115,-79 -128,-99 -4,-7 -112,-33 -132,-33 -14,0 -33,-4 -35,7 -7,1 -71,94 -103,102 -15,4 -133,50 -133,53l2 9z"/>
  </g>
  <g id="_2666797944464">
   <path class="fil6 str6" d="M2777 4471c28,-25 7,-30 54,-48 57,-23 -107,-176 148,-242 83,-21 168,-119 259,-64 17,10 40,15 59,11 2,-16 15,18 10,-50 -7,-92 6,-22 90,-65 74,-38 180,-10 127,-88 -66,-95 167,-193 186,-238 44,-100 -12,-44 36,-109 37,-51 115,15 56,-136 -5,-12 -5,-77 -45,-111 -43,-37 -7,-52 -51,-105 -21,-24 38,-106 148,-35 39,26 331,-88 292,105 -10,45 -1,109 -34,173 -12,22 -39,206 -2,227 159,95 -26,9 15,81 11,20 70,-31 15,47 -4,5 6,19 -12,53 -13,25 -42,30 -81,39 -55,13 -53,-32 -150,-13 -57,12 1,-128 -78,-49 -63,64 -110,-17 -134,82 -7,26 98,37 -7,46 -35,3 7,41 -62,27 -41,-9 54,73 -40,70 -13,-1 -43,31 -40,42 10,2 53,74 -50,31 -58,-24 -56,108 -113,-3 -13,-24 -58,6 -59,6 -15,76 -294,77 -375,110 -97,40 -47,3 -73,79 10,15 58,150 41,177 -20,32 -162,223 -183,223 -82,3 -58,-3 -126,-6 -92,-3 -47,229 -99,83 -18,-53 4,-130 58,-147 18,-5 200,-129 206,-165 2,-8 12,-36 14,-38z"/>
   <path class="fil6 str6" d="M2552 4907c11,-80 32,-43 29,-122 -2,-50 199,25 293,-165 32,-65 109,-131 51,-242 -4,-8 -24,-41 -23,-46 -40,-58 69,-27 143,-76 12,-7 90,13 133,-4 39,-16 81,-20 133,-53 97,-61 14,73 205,-11 40,-17 42,52 97,-59 12,-24 150,-51 66,-71 -11,-52 14,-29 80,-74 42,-30 -72,-71 -7,-81 21,-4 21,46 84,-20 36,-40 16,85 118,41 56,-25 152,90 234,-71 13,-27 151,36 44,73 -53,18 -9,42 -96,46 -56,3 23,64 -70,60 -1,0 -101,41 -135,43 -31,2 -69,94 -153,130 -63,27 37,158 -118,75 -48,-26 -47,42 -99,60 45,83 -17,107 -24,102 -6,-4 -80,-12 -38,22 33,26 -100,125 -145,65 -16,-21 -108,4 -142,38 -164,164 -137,61 -302,161 -7,4 -58,17 -63,31 -73,18 -105,173 -219,168 -5,0 -43,7 -60,7 -2,-8 -19,-8 -16,-27z"/>
  </g>
  <g id="_2666797942768">
   <path class="fil7 str7" d="M2711 5853c-11,9 -67,68 -58,81 8,12 -4,77 50,18 18,-20 32,-78 8,-99z"/>
   <path class="fil7 str7" d="M2683 4932c-9,-19 22,-26 42,-54 27,-40 73,-42 97,-90 2,-6 40,-36 61,-18 8,8 72,90 69,90 -26,2 -59,113 -58,138 0,8 -71,27 -79,50 -7,3 -43,40 -44,46 -17,6 1,-17 -31,-43 -23,-19 -10,-57 -28,-82 -2,-3 -7,-32 -29,-37z"/>
   <path class="fil7 str7" d="M3033 4886c-3,3 -13,39 -8,42 4,3 37,64 61,87 35,33 -11,114 34,121 2,-3 16,-11 28,-28 5,-6 11,-15 18,-21 5,-4 7,-21 16,-38 5,-9 10,-19 21,-26 6,-4 11,-5 20,-4 11,1 28,-3 44,3 50,19 34,-2 62,60 5,12 15,22 29,16 4,-25 -14,-13 -30,-49 -21,-45 -44,-78 -96,-78 -51,0 -73,-39 -135,-60 -18,-7 -44,-21 -64,-25z"/>
   <path class="fil7 str7" d="M2867 5037c-6,4 -15,8 -20,10 -21,14 -22,14 -37,40 -3,6 -12,5 -17,9 -8,7 -13,18 -15,21 0,43 12,41 5,74 -7,30 57,10 24,89 -7,15 41,49 10,93 -4,5 -1,78 -33,33 -28,-40 -34,51 -64,72 -7,5 -60,63 -56,80 10,47 57,29 -7,98 -16,17 -16,67 -27,97 0,1 14,68 29,79 40,30 17,5 54,-8 61,-22 90,32 92,-27 0,-3 -15,-32 -14,-65 2,-48 -67,-98 27,-94 47,1 82,-33 83,-34 16,-3 22,26 -23,46 -66,28 -75,-3 -90,3 -1,7 17,40 17,82 0,64 36,78 -13,110 -19,12 -67,-35 -55,21 5,25 -5,24 53,10 54,-13 90,-20 141,-44 28,-14 102,-29 137,-29 30,0 111,-9 135,7 0,0 113,28 86,-33 -10,-24 42,-37 47,-86 2,-10 10,-8 12,-53 0,-6 39,-96 43,-120 22,-106 -6,-146 -13,-236 -6,-77 82,-56 9,-153 -26,-35 -42,12 -70,-38 -2,-4 -9,-18 -11,-22 -15,-35 -3,-41 -85,-38 -22,1 -7,-4 -25,30 -55,107 -106,99 -111,45 -1,-14 -5,-26 -4,-52 1,-24 -36,-60 -61,-100 -7,-11 -13,-23 -15,-35 -2,-10 11,-19 3,-31 -9,-13 -19,-14 -41,-14 -19,-2 -13,-1 -31,41 -7,15 -15,28 -21,45 -11,32 -13,48 -15,53 -1,3 -3,4 -5,6 -1,1 -3,2 -4,2 -2,1 -3,2 -5,2 -1,1 -2,2 -3,2 -1,1 -2,2 -3,3 -1,1 -3,2 -4,3 -1,1 -2,2 -4,3 -2,1 -3,2 -5,3z"/>
   <path class="fil7 str7" d="M2943 5845c23,-15 85,-29 113,-23 5,1 54,1 21,11 -15,4 -23,-3 -43,11 -8,6 -86,14 -91,8 -1,-1 -1,-6 0,-7z"/>
  </g>
  <path class="fil8 str8" d="M2724 3502c-39,-155 126,-25 49,-182 -20,-40 -58,-34 -27,-110 25,-59 -68,-38 -20,-74 49,-37 -56,-1 8,-102 54,-87 -144,-32 -31,-107 45,-29 -27,-72 -6,-164 2,-8 -11,-5 1,-63 9,-48 -92,-128 89,-106 53,6 316,28 341,42 95,51 230,37 348,107 8,5 429,97 466,99 41,3 244,10 236,18 -45,50 -2,136 -21,202 -3,7 1,75 -8,118 -26,128 52,10 -136,-6 -28,-3 -141,66 -178,5 -24,-40 -166,15 -104,45 29,15 -48,80 0,82 10,0 88,135 87,166 -2,50 36,30 -50,99 -87,70 -52,-15 -73,107 -4,24 -264,198 -168,280 28,24 -90,35 -121,54 -99,57 -153,-39 -103,83 21,50 -98,-14 -162,13 -47,19 -323,130 -302,178 1,3 18,100 -2,112 -98,60 -42,98 -94,63 -8,-6 -88,5 -167,-39 -10,-5 -77,-26 -91,-29 -38,-135 -18,-74 93,-112 60,-21 -14,-166 90,-120 139,60 236,78 327,-63 27,-42 -52,-79 70,-79 42,0 41,-29 -23,-16 -82,16 -46,-17 -63,66 -6,30 -146,141 -200,103 -5,-4 -127,-23 -48,-37 63,-11 142,14 15,-52 -51,-27 104,45 -62,45 -181,0 -61,-70 -119,-104 -13,-8 49,-53 46,-115 0,-4 55,-77 60,-135 7,-93 58,-55 53,-186 -2,-52 33,-15 -11,-55 -23,-21 -22,-31 11,-31z"/>
  <path class="fil9 str9" d="M4159 2837c-2,95 -17,133 -10,226 9,108 -24,403 -62,495 -19,46 1,108 36,137 101,85 -21,5 7,92 12,37 102,-21 28,55 -5,5 78,9 84,68 0,6 75,45 76,-1 2,-37 63,-21 87,-10 78,35 18,-33 102,18 19,12 86,-65 96,12 4,29 350,0 388,0 162,0 380,-22 528,0 112,16 59,-36 191,-17 59,9 321,40 325,-45 4,-77 153,-36 153,-130 0,-81 37,-17 -6,-118 -14,-33 46,-22 42,-104 -2,-34 33,-32 -64,-90 -95,-56 -236,-102 -305,-182 -25,-29 -156,-82 -249,-193 -42,-50 -115,-91 -172,-161 -28,-36 -314,-77 -373,-77 -102,0 -163,12 -263,-22 -127,-44 -254,32 -414,32 -39,0 -195,3 -225,15z"/>
  <path class="fil10 str10" d="M2876 4763c92,-138 321,-55 332,-177 6,-78 129,-93 178,-36 13,16 171,-27 121,-88 -21,-25 89,4 76,-85 -9,-56 -55,-14 42,-102 72,-64 84,108 133,-34 11,-31 92,-62 136,-135 69,-112 176,-3 230,-110 13,-24 184,-83 192,-96 46,-76 61,0 145,-14 21,-4 -7,33 76,17 51,-11 16,55 145,21 3,-1 462,6 534,2 52,-3 405,0 426,-13 39,-26 272,11 363,-7 78,-16 -65,53 23,53 39,0 -82,47 -82,140 0,124 -22,154 9,297 5,27 16,157 -6,160 -16,2 -356,168 -398,190 -164,88 -258,98 -378,284 -42,64 -209,142 -272,222 -34,43 -168,107 -251,205 -66,78 -87,7 -203,-45 -107,-48 -185,-157 -346,-221 -10,-4 -58,-33 -60,-40 -83,-27 -215,-160 -197,-48 6,34 -40,-47 -64,60 -16,74 -9,-58 -145,4 -217,98 -103,-35 -249,190 -21,33 -22,-78 18,-144 47,-76 -86,-77 3,-190 15,-19 25,-238 3,-59 -6,48 -45,161 -90,70 -49,-99 -153,-66 -256,-139 -28,-20 -188,-12 -188,-132z"/>
  <path class="fil11 str11" d="M6176 3643c-1,-35 59,-136 102,-136 109,0 514,173 641,190 78,11 142,67 224,69 38,1 324,102 395,99 2,0 318,117 428,110 1,-1 121,20 91,55 -44,53 -78,111 -142,141 -149,69 -74,176 -179,243 -123,78 33,118 -117,283 -34,38 9,31 -99,112 -100,75 -127,4 -184,119 -29,58 -265,71 -324,71 -20,0 -52,37 -171,33 -155,-5 -101,46 -162,53 -17,2 6,-18 -33,-30 -94,-30 -77,-99 -148,-156 -59,-47 -45,-88 -153,-163 0,-1 -26,-98 -129,-154 -119,-65 -130,-409 -170,-409 -26,0 1,23 -65,3 -34,-10 -40,8 -58,-69 -17,-75 127,-156 120,-245 -5,-65 223,-87 133,-219z"/>
  <path class="fil12 str12" d="M3418 6734c0,-111 43,-110 49,-191 9,-109 178,-167 207,-248 29,-81 228,-171 317,-176 40,-2 27,-43 115,38 7,5 35,35 37,36 37,141 175,90 237,134 34,24 261,30 273,102 4,20 25,71 28,118 5,70 40,117 33,228 -2,27 30,253 20,252 -71,-3 -156,54 -156,144 0,60 9,101 -90,118 -28,5 -177,-61 -191,-120 -19,-80 -21,-13 -21,-105 -167,0 -205,-277 -377,-210 -84,32 -114,-50 -196,-62 -14,-2 -126,-107 -255,-54 -18,7 -30,-8 -30,-4z"/>
  <path class="fil13 str13" d="M2946 6795c61,-45 205,-74 279,-42 58,26 111,-23 175,-21 47,2 177,-20 214,7 18,13 122,27 191,79 48,36 82,37 146,32 79,-7 26,-8 90,35 17,11 50,51 64,64 26,27 73,72 108,85 17,7 30,28 66,38 1,1 84,141 -5,156 -37,6 -71,18 -86,52 -27,61 -9,41 -64,60 -26,10 -26,27 -79,25 -44,-1 -90,33 -108,-1 -10,-19 -32,7 -31,42 1,37 -80,44 -104,-6 -17,-35 -125,-54 -157,-40 -65,27 -138,22 -203,1 -28,-9 -103,-71 -138,-95 -35,-23 -107,-55 -150,-46 -39,8 -18,-92 -21,-94 -48,-22 -37,-68 -77,-125 -28,-41 -41,-99 -63,-131 -20,-28 -40,-36 -47,-75z"/>
  <path class="fil14 str14" d="M1167 2325c66,-39 264,-67 351,1 84,67 491,89 513,122 18,28 588,146 598,148 103,15 21,-21 48,104 30,140 -33,99 16,180 35,59 -54,103 -14,107 6,1 46,228 53,265 43,208 -7,174 -46,373 -13,67 -137,473 -89,505 17,11 32,165 -91,170 -104,4 96,149 -146,55 -2,-1 -307,-46 -349,-64 -133,-55 -444,-146 -589,-109 -95,24 -215,-41 -297,-51 -74,-8 -85,63 -99,82 -11,15 -1,-10 2,61 1,13 -36,14 -37,25 -21,174 -280,-16 -387,-25 -14,-1 -216,-161 159,-146 8,0 85,-64 -34,-114 -15,-6 -18,-132 100,-124 53,3 69,-224 -113,-74 -30,25 -96,-60 28,-79 69,-10 -10,-89 19,-232 7,-34 -87,-87 114,-231 190,-135 91,-83 175,-259 21,-43 131,-255 103,-260 -44,-171 41,-38 -45,-204 -9,-18 73,-236 57,-226z"/>
 </g>
 <g id="safan">
  <metadata id="CorelCorpID_1Corel-Layer"/>
  <path class="fil15 str15" d="M4172 7330c-2,-17 5,-59 17,-74 6,-9 14,-18 24,-21 3,-7 61,-8 89,-34 51,-45 97,76 171,73 29,-1 59,0 88,-10 43,-16 30,-60 28,-103 -4,-71 -6,-50 41,-111 17,-22 112,-61 112,14 0,38 0,78 14,115 20,54 1,132 21,159 4,4 7,147 17,171 9,22 27,143 22,166 -4,20 33,147 0,144 -29,-2 -161,8 -189,0 -18,-5 -167,-6 -215,-14 -47,-8 -77,7 -132,-13 -41,-16 -62,17 -59,-62 2,-65 13,-109 -26,-165 -23,-32 37,-61 10,-102 -9,-13 31,-22 9,-56 -11,-17 -4,-43 -38,-72 -2,-1 -4,-3 -4,-5z"/>
  <path class="fil16 str16" d="M3147 7231c103,-40 150,84 265,103 9,1 141,91 216,37 5,-3 123,-20 108,-5 -1,1 -124,223 -120,227 15,13 -6,77 46,121 2,2 82,118 12,138 -57,16 73,127 92,165 9,18 140,120 160,126 155,42 11,16 161,96 61,33 -4,24 1,86 4,46 -100,73 -106,146 0,4 -71,75 -82,54 -17,-30 -31,-1 -48,-49 -9,-26 -78,-39 -126,-127 -20,-38 -124,-45 -131,-97 -7,-47 -82,-39 -108,-79 -33,-49 -185,-190 -89,-210 0,-1 -66,-150 -82,-162 -11,-9 -70,-186 -73,-221 -3,-43 -37,-55 21,-119 12,-14 -113,-231 -117,-230z"/>
  <path class="fil17 str17" d="M3652 7708c12,5 13,38 28,57 66,82 -60,51 -29,99 25,38 8,43 56,87 39,35 82,90 129,116 24,13 36,49 88,66 87,27 78,59 141,91 4,2 60,40 52,45 -62,37 6,89 -78,117 -87,29 -9,135 -110,151 -36,6 60,72 60,98 -1,20 99,118 137,116 26,-1 67,26 67,-50 0,-28 79,11 31,-78 -6,-9 -27,-33 10,-30 19,2 -4,43 51,-5 7,-5 10,31 27,27 12,-2 79,-19 78,-6 -3,20 -29,59 8,14 6,-7 121,23 122,25 -20,2 17,-16 -26,-33 -40,-16 9,-53 9,-53 -4,-14 8,-41 19,-48 25,9 -16,-8 47,-23 49,-13 17,-61 45,-56 14,3 -6,22 39,9 42,-12 78,16 144,-29 154,-105 101,-68 64,-258 -7,-38 6,-136 -13,-187 -9,-23 7,-82 -9,-126 -14,-39 -17,-26 -71,-26 -62,0 -97,-3 -157,-7 -69,-4 -164,2 -232,-16 -16,-4 -84,3 -119,-12 -1,0 -157,-20 -186,-28 -29,-8 -141,-8 -197,-23 -24,-6 -207,-16 -225,-24z"/>
  <path class="fil18 str18" d="M3736 7372c48,-26 72,62 107,66 36,5 58,21 59,-37 3,-87 75,-27 83,-30 35,-12 115,-10 168,-39 33,-19 22,1 46,30 0,0 11,35 24,39 21,56 -40,27 6,84 7,9 -21,38 -23,64 -5,58 36,36 28,121 -3,29 15,11 -4,62 -23,58 51,39 -86,34 -66,-2 -231,-20 -296,-34 -31,-6 -174,-9 -189,-23 -27,-25 -41,-60 -50,-97 -2,-9 16,-66 37,-81 8,-6 77,-109 76,-119 -2,-13 18,-21 14,-40z"/>
 </g>
</svg>
