<?xml version="1.0" encoding="UTF-8"?>
<!DOCTYPE svg PUBLIC "-//W3C//DTD SVG 1.1//EN" "http://www.w3.org/Graphics/SVG/1.1/DTD/svg11.dtd">
<!-- Creator: CorelDRAW 2021 (64-Bit) -->
<svg xmlns="http://www.w3.org/2000/svg" xml:space="preserve" width="2480px" height="3508px" version="1.1" style="shape-rendering:geometricPrecision; text-rendering:geometricPrecision; image-rendering:optimizeQuality; fill-rule:evenodd; clip-rule:evenodd"
viewBox="0 0 2480 3507.43"
 xmlns:xlink="http://www.w3.org/1999/xlink"
 xmlns:xodm="http://www.corel.com/coreldraw/odm/2003">
 <defs>
  <style type="text/css">
   <![CDATA[
    .str0 {stroke:#E11F1F;stroke-width:5.32;stroke-miterlimit:22.9256}
    .fil28 {fill:#015A14;fill-rule:nonzero}
    .fil15 {fill:#0B5AD9;fill-rule:nonzero}
    .fil17 {fill:#0C3951;fill-rule:nonzero}
    .fil30 {fill:#175A71;fill-rule:nonzero}
    .fil26 {fill:#267BE0;fill-rule:nonzero}
    .fil1 {fill:#2C22B6;fill-rule:nonzero}
    .fil9 {fill:#2E8AA9;fill-rule:nonzero}
    .fil3 {fill:#416FDE;fill-rule:nonzero}
    .fil14 {fill:#42FFA8;fill-rule:nonzero}
    .fil7 {fill:#438201;fill-rule:nonzero}
    .fil6 {fill:#4C1C43;fill-rule:nonzero}
    .fil22 {fill:#4E61BB;fill-rule:nonzero}
    .fil2 {fill:#54742C;fill-rule:nonzero}
    .fil8 {fill:#56BCCB;fill-rule:nonzero}
    .fil21 {fill:#59C7ED;fill-rule:nonzero}
    .fil23 {fill:#7C23D3;fill-rule:nonzero}
    .fil27 {fill:#7D518D;fill-rule:nonzero}
    .fil16 {fill:#7F1B74;fill-rule:nonzero}
    .fil29 {fill:#852B1F;fill-rule:nonzero}
    .fil12 {fill:#886B26;fill-rule:nonzero}
    .fil13 {fill:#966B68;fill-rule:nonzero}
    .fil0 {fill:#97DACF;fill-rule:nonzero}
    .fil19 {fill:#9DE3D0;fill-rule:nonzero}
    .fil10 {fill:#B20DD5;fill-rule:nonzero}
    .fil25 {fill:#B7EAB8;fill-rule:nonzero}
    .fil11 {fill:#C063CE;fill-rule:nonzero}
    .fil5 {fill:#C6ECC5;fill-rule:nonzero}
    .fil18 {fill:#D2B373;fill-rule:nonzero}
    .fil24 {fill:#DBF2E1;fill-rule:nonzero}
    .fil20 {fill:#DF9AB1;fill-rule:nonzero}
    .fil32 {fill:#E9B390;fill-rule:nonzero}
    .fil31 {fill:#EA697D;fill-rule:nonzero}
    .fil4 {fill:#F9B481;fill-rule:nonzero}
   ]]>
  </style>
 </defs>
 <g id="Layer_x0020_1">
  <metadata id="CorelCorpID_0Corel-Layer"/>
  <g id="XmjKfMTIzCRJ8__IzdX-f">
   <path class="fil0 str0" d="M10.31 44.97l50.11 20.04 43.42 20.04 30.06 -20.04 16.7 -20.04 30.06 20.04 33.41 -20.04 36.74 0 40.08 0 20.04 20.04 40.09 0 36.74 0 13.36 20.04 46.76 0 36.75 -20.04 36.74 -40.08 46.76 0 26.72 -16.7 40.09 0 46.76 -13.37 16.7 30.07 0 40.08 -16.7 0 30.06 33.4 30.06 16.7 33.41 23.38 -63.47 33.41 -13.36 36.74 -16.7 30.06 -46.76 26.72 0 43.43 -16.71 13.36 -50.1 0 0 36.74 26.72 20.04 23.38 0 -23.38 30.06 0 33.41 0 20.04 40.09 0 30.06 43.42 33.4 20.04 -16.7 36.74 0 33.41 30.06 0 0 33.4 -13.36 33.4 -16.7 16.7 -16.7 0 -13.36 36.75 13.36 20.04 -30.06 33.4 -16.71 33.4 0 23.38 -23.38 13.36 -26.72 16.71 -20.04 23.38 -26.72 30.06 0 46.76 26.72 30.06 46.76 0 -26.72 36.75 0 36.74 -33.4 26.72 -30.06 0 -40.09 0 -16.7 -26.72 -46.76 0 -13.36 26.72 -20.04 30.06 -36.75 0 0 -56.78 -20.04 -36.74 -20.04 -20.04 -16.7 0c0,0 -20.04,10.02 -23.38,20.04 -3.34,10.02 -13.36,36.74 -13.36,36.74l-56.79 26.72 -30.06 0 -33.4 -26.72 -13.36 -36.74 -30.06 -20.04 -50.11 -16.71 -13.36 -941.94z" vector-effect="non-scaling-stroke"/>
  </g>
  <g id="fRMsTWBW5LcB4zfN1N7xm">
   <path class="fil1 str0" d="M781.74 138.3l-22.39 13.98 -21.28 12.89 -13.44 5.6 -8.96 7.84 -12.31 24.63 -6.72 21.28 -10.08 13.43 -11.2 7.85 -13.43 6.71 -7.84 6.72 -12.32 6.72 -3.36 27.99 -2.88 15.33 -12.31 12.67 -10.08 5.6 -19.04 0 -21.27 -2.24 -1.12 17.91 3.36 13.44 11.19 12.32 10.08 5.6 22.4 1.12 -11.2 15.67 -8.96 14.56 -2.24 17.92 -2.24 21.27 3.36 14.56 20.16 6.6 19.03 0 15.68 16.91 16.8 21.28 15.67 8.96 12.32 8.96 0 10.07 -5.6 17.92 -5.6 14.56 -3.36 17.91 6.72 8.96 14.56 0 7.07 1.12 5.25 11.2 -5.25 19.14 0 15.91 -12.67 22.4 -11.2 17.91 -16.79 0 -7.84 21.62 12.32 13.44 15.67 -8.96 14.56 -8.96 22.4 1.12 15.67 6.72 14.56 6.72 24.63 5.6 6.72 8.96 19.04 0 12.32 12.32 12.31 8.95 11.2 12.32 14.56 8.96 9.53 11.96 17.34 9.32 7.84 8.95 15.68 2.24 6.72 13.44 11.19 8.96 16.8 15.67 19.03 5.6 15.68 2.24 19.04 4.48 11.2 15.68 16.47 -5.6 16 5.6 15.68 6.72 17.91 4.48 7.84 6.72 21.28 0 12.31 -6.72 22.4 -2.24 14.56 -2.24 12.31 -10.08 11.2 -10.08 5.5 -11.19 10.18 -4.48 10.08 12.31 11.19 -12.31 8.61 -7.84 12.32 -3.36 15.68 -6.72 20.15 6.72 11.2 3.36 1.12 -19.04 3.36 -10.08 -12.32 -6.72 -15.68 -13.79 -7.83 -19.8 -10.08 -16.8 -6.72 -10.07 0 -14.56 -11.2 -15.68 -17.92 -15.67 -16.79 -12.32 -21.28 -2.24 -15.68 -4.09 5.6 -16.8 19.04 2.24 12.32 -12.31 -16.8 -11.2 1.12 -15.68 -5.6 -11.2 -20.15 -1.12 -19.04 0 -17.92 4.48 -20.15 -2.24 -6.72 -14.56 8.96 -11.19 16.79 -6.72 -8.95 -14.56 -20.16 -5.6 -16.8 -5.59 -5.6 -10.08 0 -13.44 16.8 -4.48 17.92 -1.12 -1.12 -13.44 -7.84 -13.43 -14.56 -3.36 -17.91 1.12 -6.72 14.55 -4.48 11.2 -13.41 4.48 -10.11 -3.36 -15.67 -3.36 3.36 -14.56 12.31 -7.83 -10.07 -8.96 -3.36 -14.63 3.36 -12.25 13.43 4.48 6.75 16.8 16.77 -9.03 -11.2 -18.97 0 -11.19 5.6 -10.08 13.44 -13.44 7.84 -13.44 12.31 -11.19 1.12 -15.68 -13.43 -2.24 -13.44 -1.12 -19.01 -5.6 5.57 -12.31 8.96 -12.32 4.48 -13.44 3.36 -15.98 -14.56 -5.3 -16.8 5.3 -11.19 0 -11.2 -6.41 2.24 -12.32 19.03 -10.08 16.8 -3.36 8.96 -8.96 -15.65 -13.44 -17.95 -7.83 -5.94 -14.49 23.89 -5.6 0 -10.08 -17.17 -5.6 -14.56 -2.24 -3.36 -10.07 19.04 -11.2 3.36 -12.32 -5.6 -11.2 -10.08 -5.59 10.08 -12.32 -2.24 -15.68 -16.79 -2.24 -11.2 4.48 -17.92 1.12c0,0 -3.36,1.12 -7.84,5.6 -4.48,4.48 -10.07,6.72 -10.07,6.72l-15.68 6.12 -16.8 0 -19.03 -7.24 -11.2 -6.72 -9.93 13.96 -12.47 0 -15.67 0 -13.44 14.03 -10.08 11.2 -19.04 -2.24 5.6 -22.99 -21.06 -13.98z" vector-effect="non-scaling-stroke"/>
  </g>
  <g id="_2ZgJs-eTctm8XeFsSo_ms">
   <path class="fil2 str0" d="M1105.17 884.26l-10.08 19.04 -13.43 -2.24 -14.56 8.96 -3.36 15.67 2.24 11.55 -5.6 15.33 -17.91 12.32 -17.55 -1.12 -21.65 -12.32 -15.67 13.44 -10.08 13.43 -12.32 21.28 -14.56 10.08 -20.15 15.67 -11.2 8.96 11.2 16.8 30.23 16.79 14.56 13.44 -8.96 29.12 11.2 22.39 19.03 12.32 22.4 20.15 29.11 23.4 20.16 2.24 11.2 20.16 13.43 15.68 5.6 13.43 16.8 10.99 5.6 11.41 7.84 12.32 17.91 4.47 23.52 5.6c0,0 10.67,3.36 11.79,6.72 1.12,3.36 8.36,22.4 8.36,22.4l-2.24 17.91 7.84 21.28 16.8 14.56 20.16 6.71 22.39 -5.59 15.68 5.59 -1.12 14.56 -2.24 11.2 1.12 15.68c0,0 12.32,10.07 15.67,10.07 3.36,0 12.32,5.6 12.32,5.6 0,0 6.72,6.63 6.72,9.99 0,3.36 -6.72,19.03 -6.72,19.03l-13.43 10.08 -7.84 19.04 -11.2 7.84 -10.08 7.83 -7.84 8.96 -1.12 19.04 8.96 13.44 14.56 18.24 11.19 20.95 10.08 14.56 -1.12 14.55 -4.48 13.44 -19.03 6.72 -12.32 0 -13.44 7.84 -7.84 2.24 -8.95 7.83 -12.32 14.56 -14.56 12.32 -13.96 4.48 -21.87 -1.12 -15.68 2.24 -13.43 3.36 -17.92 14.55 -20.16 -7.83 -16.79 -12.32 -13.44 -24.64 -11.2 -20.15 -12.32 -15.68 -8.95 -12.32 -11.2 -14.55 -4.48 -15.68 -13.44 -15.35 -5.6 -23.84 -3.35 -12.32 -12.32 -11.2 -16.8 -5.6 -16.8 -13.43 -17.91 -15.68 -12.32 -13.44 -17.91 -11.2 -16.8 -8.95 -19.04 -14.56 -15.67 -6.72 -12.32 10.08 -16.8 -6.72 -16.8 -7.84 -13.43 -6.72 -6.72 -8.85 16.8 -21.38 5.6 -14.56 -1.12 -14.56 -17.92 -6.71 -10.08 8.96 -15.67 0 -13.44 -1.13 -10.08 -2.23 -12.32 -5.6 -11.27 2.24 -21.2 -12.32 -7.84 -8.96 -12.32 -8.96 -15.67 -8.95 -23.52 -14.56 -14.56 -11.2 -13.43 -11.2 -8.96 -19.03 -2.24 -20.16 -5.6 -11.2 -16.8 0 -14.85 3.36 -15.38 -14.56 -5.6 -11.19 -12.34 -11.15 -16.8 1.11 -19.03 -4.47 -4.48 -13.44 0 -19.04 11.19 -16.79 16.8 -14.56 13.44 -7.84 4.48 -14.56 -3.36 -16.79 15.68 -6.72 15.4 -7.84 10.35 -8.96 4.48 -20.15 -1.12 -17.92 30.23 -39.19 -43.94 2.24 -19.88 -11.2 -12.32 -16.8 2.24 -29.06 1.12 -24.64 13.44 -16.79 21.27 -22.4 14.56 -13.44 15.67 -8.96 25.76 -13.43 5.6 -18.63 0 -19.03 8.96 -13.61 7.83 -14.39 8.96 -7.84 8.96 -10.07 6.72 -13.44 -8.96 -11.2 -1.12 -10.07 6.72 -14.56 11.2 13.43 17.91 -8.95 22.35 -6.72 19.09 2.24 17.91 4.48 19.04 10.08 13.43 2.24 8.96 8.95 15.68 -1.12 19.04 14.56 13.43 10.08 13.44 11.2 10.08 8.95 12.32 12.15 14.55 9.13 19.04 7.84 14.55 15.67 12.32 13.44 12.32 8.96 15.68 7.84 17.91 0 16.8 5.6 10.08 12.32 3.36 6.71 14.95 -4.48 11.92 0 16.8 7.5 22.39 8.96 29.14 4.52z" vector-effect="non-scaling-stroke"/>
  </g>
  <g id="nt_h1elsTNOYEVzOLdQYP">
   <path class="fil3 str0" d="M25.08 986.93l11.2 3.73 11.2 4.67 14.93 4.67 14.94 3.73 11.2 5.6 10.26 9.33 6.54 8.4 5.6 12.14 3.73 16.8 6.53 6.53 13.07 11.2 11.2 6.53 11.2 3.74 14.93 2.8 3.74 7.43 8.4 18.7 14.93 9.33 11.2 8.41 3.74 12.13 0.93 9.33 8.4 9.34 12.13 11.2 21.47 6.53 13.07 5.6c0,0 3.73,7.47 0,15.87 -3.74,8.4 -11.2,14 -11.2,14l-18.47 10.26 5.4 22.4 -0.93 18.67 -4.47 17.74 -9.53 22.4 0 17.73 3.73 18.67 5.8 15.86 0 15.87 -18.87 14 -19.6 -4.67 -24.27 -4.66 -13.06 -4.67 -15.87 -8.4 -11.2 0 -17.73 -5.6 -17.74 -1.87 -12.13 11.2 -17.74 3.74 -14.93 -11.2 -13.07 -5.6 -18.66 -1.87 0 -367.74z" vector-effect="non-scaling-stroke"/>
  </g>
  <g id="w7m0q1Pp-7cnQXLD3uDNW">
   <path class="fil4 str0" d="M246.44 1237.47l13.07 8.4 8.4 12.13 3.73 14.01 0.94 17.73 7.46 14.93 12.14 13.07 16.8 2.8 19.6 -3.73 18.66 0.93 22.41 9.33 17.73 10.27 21.47 10.27 20.53 13.06 10.27 13.07 10.26 26.14 5.6 14.93 0 17.73 -6.53 15.87 -8.4 14 -1.87 21.47 0.94 20.53 -14 9.34 -21.47 0.93 -24.27 4.67 -11.2 11.2 -2.8 19.6 -0.93 15.09 -5.6 14.77 -11.2 14.94 -17.74 14.93 -16.8 0 -13.06 7.47 -8.4 9.33 -20.54 7.47 -10.27 0.93 -8.39 5.6 -13.01 11.2 -19.66 4.67 -21.47 16.8 -7.47 14 -3.73 21.47 -2.8 27.16 4.67 12.13 4.66 15.87 5.6 10.26 0 16.8 -11.2 21.47 -10.26 4.67 -21.47 4.66 -17.73 7.47 -13.07 9.33 -10.27 12.14 10.27 8.4 17.73 4.65 17.74 0 5.6 15.39 1.86 7.94c0,0 -5.6,6.53 -5.6,11.2 0,4.67 1.87,15.87 1.87,15.87l-20.53 6.53 -17.74 3.73 -14 9.34 -21.47 3.73 -24.26 1.87 -19.6 6.53 -19.6 4.67 -10.27 0 5.6 -592.56 14.93 -1.87 10.27 3.74 14 7.46 12.13 6.54 8.28 -1.87 9.46 -5.6 12.13 -7.47 13.07 1.87 13.07 2.8 14.93 0.94 10.27 5.6 18.66 7.46 17.74 5.6 16.8 4.67 12.13 -2.8 14 -7.47 4.73 -14 0 -14 -8.46 -16.8 -1.87 -17.73 5.6 -24.14 4.73 -16.8 6.47 -36.73z" vector-effect="non-scaling-stroke"/>
  </g>
  <g id="YCjNQZ4gyontNlaSEzMux">
   <path class="fil5 str0" d="M22.36 3142.06l16.81 -12.13 22.4 -6.54 21.34 -8.4 17.86 -8.4 23.33 -3.73 17.73 -5.6 27.07 -12.14 17.74 -7.46 10.26 -4.67 14 -5.6 18.67 0 14.93 -6.53 13.07 -4.67 13.07 -6.53 19.6 -3.74 19.6 -0.93 26.13 4.67 18.67 2.8 19.6 0.93 22.65 0.94 16.55 6.53 22.4 6.53 17.74 3.74 -4.67 -16.8 -5.6 -17.74 -2.8 -14.93 -1.87 -16.8 1.87 -15.87 8.4 -21.47 14 -27.07 10.27 -14 11.2 -18.66 16.8 -14.94 14 -14 14.93 -15.86 5.6 -20.54 1.87 -21.25 -0.93 -31.95 -0.94 -27.07 0 -26.13 12.14 -23.34 18.66 -21.46 14.94 -14.94 17.73 -5.6 20.54 -12.13 15.86 -12.51 0.94 -17.73 -21.47 -5.6 -11.2 -16.8 14.93 -14.94 7.47 -20.53 0 -15.87 -12.13 -22.4 -13.07 -18.67 -3.73 -11.2 3.73 -22.4 4.67 -20.53 14.93 -12.13 13.61 -11.79 15.87 -5.6 9.33 -11.2 9.33 -14 10.27 -9.34 17.73 -2.8 14.09 -1.86 26.05 -5.6 22.4 -3.74 19.6 -5.6 10.27 -5.6 8.4 -13.07 10.26 -6.85 14 -12.75 3.74 -13.06 -12.14 -12.14 -12.13 -8.4 -14 -12.13 -13.07 -9.33 -5.6 -17.74 2.8 -20.53 -2.8 -21.47 -7.47 -18.67 -9.33 -10.77 -26.13 -33.1 -19.6 -21.64 -6.54 -15.87 -15.86 -14.93 -16.8 -8.4 -12.14 -10.27 0 -17.73 -8.4 -16.8 -23.33 -18.25 -20.53 -12.55 -20.54 -8.4 -28.1 -10.55 -9.32 -7.47 -18.67 -3.74 -16.8 -4.66 -12.13 -7.47 -12.14 -7.47 -12.13 -8.4 -18.67 1.87 -19.6 -1.87 -11.2 -12.13 -6.53 -6.53 -14.94 -12.14c0,0 -12.13,5.6 -13.06,12.14 -0.94,6.53 -7.47,11.2 -7.47,11.2l-14 6.53 -6.53 7.47 -7.47 13.06 -12.14 6.54 -14.93 -7.47 -16.8 0 -18.67 -6.53 -12.13 -6.54c0,0 -13.07,-6.53 -16.8,-7.46 -3.73,-0.94 -29.87,-14.94 -33.6,-14.94 -3.73,0 -15.87,-10.26 -15.87,-10.26l-7.46 -14 -9.34 -6.54 -13.06 -4.66 -17.74 -2.8 -14 8.4 -16.8 4.66 -17.73 7.47 -23.34 4.67 -15.87 4.66 -36.37 6.54 -17.74 2.8 -5.6 21.46 0.94 35.47 4.18 1135.46z" vector-effect="non-scaling-stroke"/>
  </g>
  <g id="RiHsksglD7aE33breRhTH">
   <path class="fil6 str0" d="M638.97 2629.74l11.2 -11.2 5.6 -15.87 9.33 -13.06 22.4 -3.74 13.07 -3.73 16.8 0 10.27 -3.74 6.53 -6.53 21.47 -7.47 13.06 4.67 11.2 10.27 11.2 0.93 8.41 -14 13.99 8.4 6.54 9.34 11.2 -2.81 15.87 -5.6 20.83 -0.93 11.83 -4.67 10.27 -14.93 -2.8 -18.67 13.07 -13.06 17.73 -8.4 20.53 -7.76 17.74 4.02 5.6 -4.02 11.2 -14.64 20.53 0 6.54 -10.27 12.13 -3.74 7.47 9.34 13.06 4.67 14.01 9.33 1.86 12.13 3.74 21.47 9.33 10.27 4.66 12.13 2.81 18.67 0 14.93c0,0 10.26,1.87 11.2,5.6 0.93,3.74 16.8,2.8 16.8,2.8l15.86 7.47 26.14 5.6 8.4 11.2 7.47 15.87 15.86 11.2 21.47 7.46 14 14.94 10.27 23.33 8.4 13.07 5.6 25.2 -18.67 15.87 -17.73 10.26 -12.41 17.74 0 13.06 -21.19 20.54 1.86 17.82 19.33 7.47 14.27 13.06 4.67 7.47 8.4 12.14 7.47 9.33 9.33 19.6c0,0 4.67,15.87 3.73,19.6 -0.93,3.73 -5.6,26.13 -5.6,26.13 0,0 -8.4,12.14 -9.33,15.87 -0.93,3.73 -2.8,8.4 -2.8,8.4l-25.2 8.58 -21.47 0 -17.73 11.96 -14 17.73 -16.8 24.27 -14 25.2 0.93 30.8 13.07 25.38c0,0 7.46,12.13 8.4,14.93 0.93,2.8 1.87,21.47 1.87,21.47l-16.81 4.66 -14.93 8.4 -5.6 15.87c0,0 6.53,15.87 4.67,18.67 -1.87,2.8 -19.6,13.06 -19.6,13.06l-7.47 11.21 -19.6 1.86 -49.47 -10.27 -81.2 -20.53 -43.87 -9.33 -47.6 -11.2 -56.94 -10.27 -48.53 -12.13 -41.07 -14.74 -31.73 0 -39.2 -11.4 -26.14 -9.33 -43.61 -16.8 -29.87 -9.34 -26.13 -3.73 -28.94 -13.07 -6.53 -25.2 -5.6 -24.26 0.93 -28.01 10.27 -26.13 12.13 -26.13 12.14 -16.8 10.26 -15.87 14.94 -15.87 18.67 -17.73 10.26 -13.07 8.4 -16.8 2.8 -24.45 1.87 -20.35 -1.87 -21.47 -2.8 -26.74 0 -17.74 10.27 -18.66 12.13 -17.74 14.94 -13.06 15.86 -8.4 15.87 -8.4 14 -8.4 14 -9.34 2.55 -21.12z" vector-effect="non-scaling-stroke"/>
  </g>
  <g id="y5jVZEP5incDdIv8bOU48">
   <path class="fil7 str0" d="M650.81 2055.48l9.34 -19.29 3.73 -18.98 6.53 -13.07 19.6 -11.2 25.2 3.74 18.67 5.6 23.34 8.4 25.2 6.53 28.93 -0.93 28.93 -0.94 9.34 9.34 13.06 11.51 14.94 0 17.73 14.62 17.74 8.4 21.46 8.4 18.67 9.34 17.73 1.86 26.14 -1.86 27.82 -1.87 23.15 10.27 22.4 9.33 14.93 14.93 14 14 17.74 14 20.53 5.6 18.67 4.67 18.66 8.4 15.87 13.07 9.33 4.66 0.94 14.94 -10.27 14 0 19.6 15.87 14 15.87 6.53 17.73 12.14 8.4 11.2 -4.67 14.93c0,0 7.47,14 8.4,16.8 0.94,2.8 8.4,22.4 8.4,22.4l-7.46 24.27 -1.87 17.73 -17.73 4.67 -27.07 3.73 -36.4 -3.73 -17.74 -4.67 -22.4 -6.53 -11.2 14.93 4.67 29.87 -13.07 7.47 -15.86 4.66 -18.67 1.87 -15.87 10.27 -18.67 14 -11.2 18.67 -11.2 24.26 -15.86 -5.72 -10.27 6.53 -10.27 7.47 -11.2 4.66 -11.2 7.47 -8.4 4.73 -13.07 -4.73 -15.86 4.73 -18.67 11.14 -14.93 10.26 -5.61 8.41 -0.93 17.73 -7.46 11.2 -14.94 3.73 -29.87 7.47 -11.2 -2.8 -8.4 -6.53 -10.26 -8.4 -9.34 8.4 -6.53 6.53 -13.07 -10.27 -11.2 -5.6 -14 0.94 -12.13 8.4 -10.27 4.66 -9.33 3.73 -12.14 -3.73 -11.2 4.67 -18.32 3.73 -14 5.6 -7.47 10.27 -3.73 14 -6.54 12.13 -12.13 -1.86 -12.13 -5.6 -7.47 -8.4 11.2 -19.6 5.6 -20.54 0.94 -14.93 -5.61 -14.93 -9.33 -17.74 -9.33 -12.07 -1.87 -19.66 3.73 -15.87 3.74 -14 11.2 -9.34 22.4 -11.2 17.73 -12.13 8.4 -12.13 9.34 -14 33.07 -5.6 15.46 -1.87 24.27 -4.67 22.4 -5.6 21.47 -8.4 13.06 -14 12.14 -8.52 8.4 -14.81 2.8 -14.94 -6.54 -10.26 -12.13 -8.4 -12.13 -8.4 -10.27 -8.4 -10.27 -4.67 -3.73 -8.4 -0.93 -13.07 0 -21.46 -1.87 -16.8 -3.73 -14 -5.6 -13.38 -15.87 -14.61 -7.47 -11.2 -14.93 -13.06 -7.47 -9.34 -14 -17.73 -3.73 -10.27 -11.2 -10.26 -14.94 -9.34 -9.33 -4.67 -6.54 -6.53 0 -17.73 -7.44 -12.96z" vector-effect="non-scaling-stroke"/>
  </g>
  <g id="_4EiXOaLN6mlGr7QpGfyY7">
   <path class="fil8 str0" d="M442.01 1491.33l17.74 -4.66 13.06 1.86 16.81 6.54 18.66 5.6 19.6 7.46 18.67 13.07 13.07 19.6 11.2 16.8 10.27 23.34 7.46 12.13 8.4 10.27 15.87 3.73 13.07 1.87 16.8 1.86 29.86 1.87 19.6 11.2 18.73 14 23.27 7.47 19.61 10.27 15.86 17.73 21.47 11.2 14.93 12.13 14 14.94 9.34 10.64 -2.8 19.22 -5.6 18.67 0 18.67 13.07 16.8 28 11.2 18.66 14.93 22.4 -0.93 17.74 -3.73 17.73 6.53 15.87 13.07 12.13 16.8 1.87 25.77 10.27 19.03 -5.6 26.13 -0.94 21.47c0,0 -2.8,10.27 -6.53,10.27 -3.73,0 -22.4,1.86 -22.4,1.86 0,0 -18.67,-3.73 -22.4,-3.73 -3.74,0 -17.74,0 -17.74,0l-12.13 16.8 -5.6 24.27 -13.07 14 -18.67 7.47 -15.86 -1.87 -29.87 -2.8 -16.8 0 -27.07 -3.74 -24.27 -8.4 -19.59 -9.33c0,0 -17.74,-3.73 -21.47,-3.73 -3.74,0 -15.87,1.86 -15.87,1.86l-13.07 13.07 -10.26 13.07 -4.67 16.8 -4.67 17.73 -22.4 -13.24 -15.87 -15.69 -18.66 -8.4 -19.6 -8.4 -19.73 -8.4 -20.41 -5.6 -20.53 -6.54 -18.67 -9.33 -12.13 -9.33 -13.07 -6.54 -14.93 2.8 -14.94 -1.86 -10.26 -7.47 -10.27 -10.27 -7.47 -8.4 -9.33 -4.67 -11.2 6.54 -7.47 8.4 -5.6 10.27 -13.07 6.53 -8.4 12.13 -8.4 8.4 -5.6 4.67 -12.13 -5.6 -16.8 -3.73 -12.13 -2.8 -17.74 -8.4 -8.4 -3.74 -24.83 -9.33 -20.54 -8.4 -11.2 -8.4 -6.53 -13.07 -8.4 -8.4 -11.2 -4.66 -13.07 -1.87 -9.33 -2.8 0 -13.07 0 -18.67 -5.6 -9.33 -10.27 -2.8 -13.06 -2.8 -13.07 -3.73 -5.6 -5.6 8.4 -13.07 13.07 -4.67 25.19 -10.26 21.47 -7.47 12.14 -17.73 0.93 -16.81 -4.67 -17.73 -4.66 -13.07 -5.6 -12.13 0 -12.69 3.73 -32.11 13.07 -18.67 16.8 -12.13 17.8 -2.8 13 -11.2 8.4 -7.47 16.8 -1.87 14.93 -10.26 14 -10.27 14.94 -3.73 13.06 -5.6 11.2 -10.27 15.87 -17.73 6.53 -12.88 0.94 -24.46 6.53 -14.93 10.27 -7.47 19.6 -0.93 19.6 -3.74 14.93 -6.53 1.5 -15.87z" vector-effect="non-scaling-stroke"/>
  </g>
  <g id="mqxebUYgDQyxy7sq4OJfB">
   <polygon class="fil9 str0" points="810.28,1697.01 828.95,1687.67 841.08,1679.27 858.82,1672.74 876.55,1670.87 894.28,1662.47 905.48,1649.41 922.42,1646.61 946.69,1645.67 963.49,1639.14 966.29,1627.94 968.15,1613.94 985.89,1606.47 998.95,1602.74 1014.82,1591.54 1010.15,1575.67 998.95,1565.26 994.29,1554.2 992.42,1532.74 978.42,1520.6 964.42,1515.94 950.42,1505.67 934.55,1493.54 920.55,1479.53 908.42,1467.4 892.55,1458.07 878.55,1448.74 861.75,1438.47 848.68,1432.87 837.48,1438.47 822.55,1437.53 805.75,1430.07 787.08,1417.93 778.68,1408.26 785.22,1394.6 796.42,1384.33 799.22,1372.2 799.22,1358.2 787.08,1353.53 776.82,1359.13 761.88,1361.93 745.08,1360.07 732.01,1359.13 721.75,1353.53 703.08,1352.6 685.35,1338.6 671.34,1329.26 654.54,1318.06 637.74,1305.93 619.08,1293.8 598.54,1279.8 590.14,1259.8 588.28,1245.8 586.41,1231.8 572.41,1227.14 553.93,1230.87 541.61,1223.4 532.27,1210.33 522.01,1197.27 506.14,1194.47 486.54,1192.6 477.21,1175.8 476.27,1158.07 484.67,1140.33 501.47,1127.27 514.54,1116.91 522.01,1107.58 522.01,1088.91 491.21,1087.98 470.67,1087.98 459.47,1086.11 452.01,1072.11 445.47,1062.77 424,1059.04 404.41,1061.84 396.94,1069.31 388.54,1085.18 381.07,1099.18 373.6,1114.11 357.74,1118.78 336.27,1120.64 331.6,1112.24 334.4,1094.28 330.67,1068.37 326.93,1056.24 318.1,1038.51 309.7,1027.31 302.24,1016.11 294.77,1006.77 284.5,1006.77 269.57,1010.51 258.37,1018.91 251.84,1029.17 248.1,1043.18 239.95,1052.51 239.95,1063.71 226.64,1067.44 213.57,1076.78 203.3,1081.44 190.23,1086.11 179.97,1088.91 177.17,1094.28 185.57,1111.31 196.77,1118.78 208.9,1125.31 213.57,1138.38 216.37,1146.78 222.9,1157.05 232.24,1166.38 245.3,1171.98 256.5,1176.65 265.84,1181.31 272.37,1185.05 275.17,1194.38 274.24,1204.65 265.84,1211.18 256.5,1220.51 249.97,1224.24 245.3,1228.91 249.97,1237.31 259.3,1243.85 268.64,1255.05 271.44,1263.45 274.24,1273.72 276.1,1285.85 279.84,1298.91 291.97,1312.92 305.04,1320.38 319.04,1317.58 336.77,1313.85 356.37,1320.38 375.97,1324.12 396.94,1339.05 420.77,1351.18 435.71,1364.25 443.17,1376.38 449.71,1394.12 457.18,1408.26 459.04,1421.19 455.31,1441.72 445.97,1460.39 441.31,1483.72 445.04,1493.99 463.71,1489.32 482.38,1490.25 499.18,1497.72 524.38,1507.05 549.58,1520.12 558.91,1534.12 569.18,1546.25 578.51,1565.26 584.11,1578.08 590.65,1593.01 606.51,1606.08 627.05,1607.95 647.58,1609.81 674.65,1610.75 689.58,1622.88 710.92,1635.01 726.92,1641.55 746.52,1647.15 760.52,1661.15 774.52,1673.37 789.45,1681.77 " vector-effect="non-scaling-stroke"/>
  </g>
  <g id="_27euAEk3u12p4I3Qa8vPL">
   <path class="fil10 str0" d="M1196.55 2658.36l22.4 5.84 26.13 8.16 21.47 11.2 17.74 15.87 23.33 13.07 22.4 15.86 23.33 6.54 27.07 8.4 25.2 7.46 17.74 12.14 17.73 10.26 26.13 18.67 8.4 22.4 20.24 1.87 14.3 -4.67 17.73 -0.93 17.74 -1.87 12.13 -15.87 18.67 -20.53 12.13 16.8 5.6 15.87 6.53 21.47 15.87 13.06 24.27 10.27 26.13 3.73 12.27 11.2 5.6 16.8 0 27.07 -2.8 20.53 7.47 24.27 9.33 24.88 19.6 16.19 15.87 13.07 17.73 3.73 16.81 8.4 5.6 14 -3.74 13.07 -17.73 6.53 -11.2 24.27 2.8 22.4 -1.87 16.8 -20.53 0 -14.94 6.53 -10.26 15.87 -15.87 14.93 -19.6 1.87 -18.67 3.73 -19.6 0.94 -27.07 -2.8 -26.13 -1.87 -9.33 -6.53 -28.94 -3.73 -14.93 14.93 -7.47 29.87c0,0 -14.43,15.86 -13.5,21.46 0.93,5.6 4.17,22.4 4.17,22.4l-20.54 11.29c0,0 -11.2,13.07 -14.93,12.14 -3.73,-0.94 -13.07,-7.47 -13.07,-7.47l-12.13 -5.6 -15.87 18.67 -3.73 16.8 -49.47 -12.14 -38.27 -7.46 -31.73 -1.87 -28.94 -8.4 -36.4 -5.6 -39.2 -7.47 -49.47 -3.73 -36.4 -4.67 -32.19 -0.93 -21.46 -2.8 20.53 -13.07 17.73 -9.33 4.67 -12.14 -1.87 -14 1.87 -12.13 9.33 -4.67 14.01 -5.6 9.33 -8.4 -0.93 -21.46 -8.4 -13.07 -7.47 -12.13 -7.47 -14.01 0 -21.46 5.6 -18.67 7.47 -13.07 9.33 -11.2 10.27 -15.86 9.33 -12.14 9.34 -6.53 9.33 -7.88 21.47 0 18.66 -4.25 10.27 -11.21 5.6 -14 5.6 -13.06 2.8 -14.94 -1.86 -18.66 -5.6 -14 -6.54 -14.94 -8.4 -9.33 -6.53 -9.33 -7.47 -11.2 -14.35 -8.41 -12.72 -6.53 -3.73 -7.13 3.73 -14.34 12.72 -12.13 4.08 -14 13.07 -17.73 18.67 -12.14 14.93 -11.2 0.93 -20.93 -4.66 -14 -12.14 -15.86 -7.46 -13.07 -12.75 -17.43z" vector-effect="non-scaling-stroke"/>
  </g>
  <g id="E91avsQ1vb17MhGMzlph2">
   <path class="fil11 str0" d="M1259.68 2350.19l15.86 12.52 11.2 12.13 16.8 13.07 18.67 6.53 16.63 2.8 14.17 -1.86 14.94 6.53 18.66 9.33 14.94 5.61 27.06 9.33 7.47 13.07 1.87 15.86 9.33 15.87 14 9.33c0,0 12.14,12.14 12.14,14.94 0,2.8 3.73,11.93 3.73,11.93l13.07 17.93 16.8 15.87 18.66 9.34 8.4 7.46 0.94 15.87 -7.47 10.27 -9.33 14 -5.6 17.73 -10.27 29.87 -6.51 18.65c0,0 -11.22,12.15 -14.02,13.08 -2.8,0.94 -32.67,10.27 -32.67,10.27l-28 15.87 -21.47 11.2 -29.87 15.86 -17.73 1.87 -26.14 -11.2 -22.4 -14 -21.46 -14.93 -22.4 -14.94 -21.47 -9.33 -16.8 -3.75 -17.73 -7.45 -21.83 -5.6 -20.18 -9.34 -8.4 -12.13 -6.53 -14 -10.27 -6.53 -16.8 -4.67 -11.2 -5.6 -12.13 -1.87 -10.27 -0.93 -11.2 -5.6 -2.8 -9.33 -3.73 -15.87 -3.74 -16.8 -10.26 -13.07 -5.6 -16.8 -1.87 -15.87 -14.93 -7.46 -13.07 -10.27 5.99 -21.47 16.41 -21.46 14 -11.2 16.8 -6.54 14 -8.4 20.54 -4.67 13.99 -5.6 4.67 -14 -3.73 -14 3.73 -13.06 6.53 -5.6 22.41 6.53 20.53 5.6 14.93 4.67 22.4 0 11.2 -2.8 14.01 -3.74 11.2 -5.6 11.2 -13.45z" vector-effect="non-scaling-stroke"/>
  </g>
  <g id="AKm79wabgyFb75a4oeVlJ">
   <polygon class="fil12 str0" points="1198.1,2166.03 1212.1,2152.03 1220.5,2140.83 1236.36,2125.89 1255.96,2115.63 1268.1,2124.96 1277.43,2140.83 1293.3,2152.96 1307.3,2158.56 1325.97,2164.16 1346.5,2170.7 1362.37,2186.56 1381.03,2193.2 1395.97,2188.43 1414.64,2193.2 1421.17,2214.56 1422.1,2232.3 1426.77,2250.03 1423.03,2262.17 1409.97,2270.57 1399.7,2288.3 1390.37,2307.9 1390.37,2329.37 1395.04,2345.23 1404.37,2356.44 1429.57,2358.3 1450.1,2356.44 1470.64,2350.19 1487.44,2350.19 1479.04,2368.57 1460.37,2377.9 1430.5,2384.44 1402.5,2385.37 1382.9,2393.77 1365.17,2400.3 1347.43,2397.5 1322.23,2392.84 1303.57,2384.44 1290.5,2375.1 1281.17,2365.77 1267.16,2354.57 1258.77,2346.17 1259.7,2324.7 1259.7,2306.03 1250.36,2288.3 1251.3,2266.83 1245.7,2258.43 1235.43,2246.3 1223.3,2240.7 1204.63,2230.43 1190.63,2220.16 1191.56,2201.5 1200.9,2185.63 " vector-effect="non-scaling-stroke"/>
  </g>
  <g id="HpQKzsZni-eS2Qpp0Lel9">
   <polygon class="fil13 str0" points="1408.14,2186.14 1422.14,2175.87 1439.87,2161.87 1454.8,2158.14 1481.87,2167.47 1495.89,2182.41 1511.74,2202.01 1517.34,2210.41 1527.61,2222.54 1547.21,2235.61 1564.94,2240.27 1566.81,2253.34 1565.87,2267.34 1577.08,2286.94 1592.01,2302.81 1603.21,2314.01 1620.94,2336.41 1631.21,2357.88 1634.94,2375.61 1647.08,2391.48 1648.94,2411.08 1652.88,2432.55 1661.08,2453.08 1668.55,2466.15 1670.41,2480.15 1648.01,2486.68 1622.81,2482.01 1595.74,2479.21 1568.67,2471.75 1543.47,2458.68 1524.81,2444.68 1503.34,2436.28 1483.74,2429.75 1462.27,2430.68 1436.14,2431.61 1419.34,2423.21 1403.47,2415.75 1373.6,2403.61 1394.14,2392.41 1418.4,2385.88 1447.34,2385.88 1478.14,2370.01 1495.89,2350.18 1480.94,2350.18 1461.34,2350.18 1439.87,2350.18 1413.74,2350.18 1396,2341.08 1391.34,2323.34 1395.07,2295.34 1411.87,2272.01 1427.74,2256.14 1425.87,2218.81 1421.2,2202.94 " vector-effect="non-scaling-stroke"/>
  </g>
  <g id="XypghiHRaJ4X_gAi_cbJY">
   <path class="fil14 str0" d="M1269.97 2121.16l21.47 -12.14 22.4 -7.46 10.26 -14c0,0 9.34,-14.94 10.27,-18.67 0.93,-3.73 13.07,-25.2 13.07,-25.2l7.46 -12.14 10.27 -20.53 15.87 -20.53 11.2 -14.94 20.53 -10.26 1.87 -14 -11.2 -15.87 6.53 -20.54 10.27 -14.93 25.2 -20.73 26.13 -12.87 24.29 -15.42 18.65 2.8 16.8 9.34 15.87 2.8 3.73 -22.4 2.8 -23.34 10.27 -18.66 9.33 -23.34 7.47 -30.8 -7.47 -19.6 -18.67 -18.67 -12.13 -18.66 1.87 -18.24 -14 -14.93 0.93 -14.94 -10.27 -26.13 0.93 -19.6 -8.4 -16.8 -22.4 -4.67 -18.66 13.07 -24.27 4.66 -24.27 -11.2 -9.33 -21.66 -0.93 -18.67 -11.21 -14 -20.53 -8.4 -26.13 -6.53 -16.97 -24.27 -13.83 -19.6 -20.54 -10.27 -13.06 8.4 -9.34 13.07 -9.33 14.94 -13.07 9.33 -11.2 14 -0.93 14 14 14.93 11.2 18.35 8.4 14.32 7.46 11.2 6.54 14.93 -4.67 20.54 -14 8.4 -25.2 4.67 -19.6 9.33 -12.14 11.2 -8.39 12.13 -15.87 9.34 -13.42 9.33 -15.52 -3.73 -18.66 0 -14 3.73 -11.2 9.34 -11.2 6.53 -14.94 -7.47 -18.66 -11.2 -11.2 -15.87 -12.14 -21.46 -10.26 -18.67 -12.14 -15.87 -15.87 -19.6 -13.63 5.6 -14 5.6 -11.2 3.73 -11.2 9.34 -1.87 15.87 -6.53 8.4 -15.87 1.86 -19.6 2.8 -12.13 2.8 -11.2 12.14 -7.47 4.66 -14.93 5.6 -19.6 2.81 -14 6.53 -12.14 6.53 -16.8 8.4 13.07 15.87 5.6 14 -7.47 17.73 0 14.94 0.93 19.6 9.34 13.06 17.73 7.47 21.47 16.8 16.8 0.93 28.93 -3.73 17.74 4.67 14 14 19.6 14 0 19.6 0.93 11.25 6.54 17.68 0 15.87 -2.8 14.93 -4.67 20.54 -4.67 10.27 -19.6 1.86 -23.33 -1.86 -12.14 -2.81 -10.26 6.54 -6.54 11.2 -5.6 17.73 -9.33 15.02 -12.29 7.47 -11.98 5.6 11.98 16.95 11.36 -4.81 14.93 13.06 13.07 9.34 28 13.06 24.27 7.47 25.2 0 36.4 -1.87 21.46 8.4 26.14 8.4 18.67 16.8 22.4 20.11 19.6 8.4 20.53 6.53 18.67 12.13 17.73 12.14 13.07 -1.87 11.2 -10.27 12.13 -16.8 12.14 -12.13 18.66 -9.33 16.44 6.19z" vector-effect="non-scaling-stroke"/>
  </g>
  <g id="KY6w06f3NUjcuxLdqRTGE">
   <path class="fil15 str0" d="M1285.87 795.68l26.14 -15.37 17.73 0 13.07 -7.03 17.73 -6.53 19.6 4.67 7.47 20.53 11.2 18.67 11.2 7.46 19.6 4.67 20.53 7.47 7.47 14.93c0,0 -15.86,5.6 -14.93,9.34 0.93,3.73 8.4,12.13 8.4,12.13l0 19.6 9.33 20.53 3.74 25.2 11.2 19.61 20.55 28 12.11 12.13 23.34 10.27 -3.73 14.93c0,0 13.99,14.94 16.8,16.8 2.79,1.87 13.06,19.6 13.06,19.6l2.8 14.93 26.14 11.21 12.13 14.86 4.67 12.2 -1.87 11.2 -0.94 13.07 3.74 24.27 19.6 13.06 14 -3.73 15.14 10.27 -20.74 15.86 -16.8 17.74 -11.2 23.33 -7.47 28 9.34 15.87 15.86 7.47 16.8 -7.47 14.21 4.67 24.06 -11.2 22.4 17.71 15.87 14 16.8 15.87 16.3 14.09 18.67 8.4 0.93 14 11.2 14 -11.2 9.33 -17.73 -3.73 -18.67 9.33 12.13 14 4.67 19.6 -16.8 17.74 -24.27 23.33 -4.67 20.54 -8.4 26.63 -4.66 18.67 -17.74 -5.6 -18.89 -1.87 -21.24 7.47 -12.14 12.13 -15.86 7.47 -18.67 1.87 -20.53 2.8 -17.74 8.4 -15.87 14 -11.2 14 -17.73 -4.67 -14 0 -22.4 11.2 -20.53 0 -18.67 -8.4 -12.13 -15.95 -1.87 -22.32 -2.8 -13.06 -13.07 -8.41 -19.6 -5.6 -17.73 -8.39 -12.14 -12.14 -19.6 -24.27 -13.06 -8.4 -14 -2.8 2.8 -19.6 -15.87 -16.8 -16.8 -15.2 0 -18.4 0 -17.73 -15.32 -4.67 -14.93 5.6 -19.6 -2.8 -16.8 -9.33 -12.14 -14 -0.93 -20.54 0.93 -18.66 -5.6 -14 -9.33 -9.34 -15.87 -6.53 -18.67 -2.8 -12.13 -6.54 -6.53 -17.25c0,0 -11.2,-10.75 -12.14,-6.08 -0.93,4.67 -13.06,-11.2 -13.06,-11.2l-3.74 -13.07 -11.2 -13.06 -10.26 -17.74 -11.21 -1.87 -13.06 -4.66 -23.92 -15.87 -10.62 -13.07 -13.06 -9.33 -16.8 -13.07 -8.4 -11.2 -3.74 -17.73 5.6 -20.53 -1.86 -9.34 -14.94 -9.33 -14.93 -7.34 -16.8 -10.27 -2.8 -13.06 16.8 -12.14 19.6 -12.13 11.2 -17.74 12.13 -18.66 14.94 -14.94 18.67 7.47 18.66 0.93 19.6 -9.33 10.27 -14.93 0 -11.2 2.8 -17.74 12.13 -10.27 14.94 -1.86 10.26 -13.07 12.14 -7.47 19.6 -2.8 18.66 -4.75 13.07 -10.27 9.87 -14 6 -6.53 12.13 10.26 14 -10.26 13.07 -9.33 15.87 -5.6 12.13 -2.81 19.6 2.81 9.34 -5.6 1.81 -25.82z" vector-effect="non-scaling-stroke"/>
  </g>
  <g id="_FDd83y98r85az1DIX4w1">
   <path class="fil16 str0" d="M1008.72 139.62l27.07 0.93 15.86 11.78 23.34 0 38.27 0 11.2 16.22 10.26 24.27 22.41 1.87 20.53 -8.4 38.27 -2.81 24.26 -2.79 26.14 6.53 33.6 22.4 15.86 6.53 23.12 -25.2 12.35 -15.86 19.6 -7.47 30.8 1.87 11.91 11.2 18.66 -0.94 26.14 -11.2 18.67 8.4 18.87 11.2 26.86 10.27 25.2 10.27 13.07 18.66 13.07 12.14 20.53 14.93 17.73 19.6 17.74 -2.8 14.93 -14 15.87 -5.6 25.2 1.87 27.07 2.8 7.46 19.6 14.94 8.4 24.26 10.27 19.6 14.76 12.14 14.17 8.4 24.27 -0.94 8.4 10.85 33.6 0 26.13 0 26.14c0,0 4.09,11.2 4.09,20.53 0,9.33 6.53,28 6.53,28l14.94 18.67 8.4 20.53 4.66 8.4 8.4 14.94 17.74 -5.6 19.6 -12.14 13.04 14.94 8.4 8.4 -13.07 12.13 1.87 14.93 -11.2 5.6 -15.87 4.67 -4.66 20.53c0,0 4.66,14 4.66,17.74 0,3.73 -2.8,14.93 -5.6,15.87 -2.8,0.93 -18.66,9.33 -18.66,9.33l-20.54 8.4 -12.13 9.33 -16.8 20.54 -24.27 16.87 -15.87 13.06 -17.73 7.47 -1.87 28 -14 11.2 -24.26 12.13 -14.01 22.41 -2.8 18.66 4.67 13.07 -1.87 12.13 19.61 14 19.6 14.94 1.86 8.4 -3.73 24.77 -2.8 22.41 -9.33 15.86 -13.07 13.99 -6.54 11.2 -7.46 26.14 -11.2 26.63 -0.94 24.27 8.4 15.87 9.34 23.03 2.8 22.79 5.6 14.94 -14 14 -14.94 14 -21.98 14 -8.82 -6.54 -12.13 -1.86 -11.2 -0.94 -12.13 -11.2 -4.67 -14.93 -0.93 -24.27 -3.74 -19.99 -7.46 -12.68 -14.94 -9.33 -13.07 -8.4 -13.06 -22.4c0,0 -7.47,-13.07 -10.27,-14 -2.8,-0.93 -8.4,-12.13 -8.4,-12.13l1.87 -12.14 -12.14 -8.4 -18.66 -12.13 -24.27 -24.27 -10.27 -21.11 -4.67 -22.76 -8.39 -27.07 -0.94 -19.59 -8.4 -14.94 16.8 -10.27 -10.27 -14.93 -12.13 -4.67 -28.93 -6.53 -13.07 -13.07 -11.2 -17.73 -4.67 -13.07 -17.73 -8.4 -20.53 6.54 -16.12 9.5 -15.87 0 -14 12.59 -15.86 5.6 -14 -10.26 -10.27 -14.94 -10.27 -15.87 -7.47 -18.66 -3.73 -14.94 -6.53 -17.73 -13.07 -11.2 -12.13 -10.27 -16.8 -7.47 -20.54 -5.6 -13.07 -3.73 3.74 -14 16.8 2.8 14.93 -15.87 -18.66 -7.46 2.8 -18.67 -6.54 -10.27 -26.13 -4.66 -13.07 1.86 -21.47 3.74 -19.6 -3.74 0.94 -16.8 19.6 -12.11 -5.6 -9.34 -15.87 -7.46 -18.67 -6.54 -10.26 -9.33 0 -15.87 18.66 -5.6 17.74 -2.8 -8.4 -15.86 -3.74 -8.4 -18.66 -6.54 -13.07 3.74 -10.27 17.73 -15.02 14 -22.31 -5.6 0.93 -17.73 14 -8.4 -14 -12.14 -0.93 -20.53 16.8 5.6 5.51 15.87 16.89 -11.13 -12.13 -22.04 6.53 -16.8 19.6 -19.61 14 -17.73 4.67 -19.6 -27.07 -1.87 -22.49 -4.66 16.89 -24.36 5.6 -22.4 -0.93 -7.92 -21.56 -6.08 -18.58 6.08 -12.13 -8.88 10.26 -13.07 28.01 -10.26 12.13 -8.4 -14.93 -15.44 -20.54 -6.53 -8.4 -13.07 24.18 -5.6 0 -15.87 -20.45 -1.86 -14 -8.4 17.74 -14 4.67 -12.14 -6.54 -11.2 -9.33 -6.53 11.7 -18.45z" vector-effect="non-scaling-stroke"/>
  </g>
  <g id="fu6Dn69sDGW2IGjGC_V84">
   <path class="fil17 str0" d="M1715.92 251.19l32.67 -1.87 16.8 -12.13 29.86 -6.54 30.8 -1.86 41.07 -0.94 33.6 0 22.4 -14 32.67 -13.06 31.74 8.4 27.06 19.6 34.54 7.46 28 5.6 22.4 0 20.53 -5.6 14.94 -11.2 20.53 -9.33 31.73 0 29.19 -5.6 21.46 -6.53 36.4 0 32.67 7.46 32.67 -1.86 29.87 0 20.53 8.4 28 -6.54 47.6 0.94 -4.66 563.71 -33.6 12.13 -30.81 0 -39.2 1.87 -34.53 -2.8 -19.6 5.6 -41.07 13.06 -32.67 14.01 -26.13 4.66 -26.13 -11.2 -22.41 -6.53 -30.98 -14c0,0 -3.55,-14.09 -14.75,-12.22 -11.2,1.86 -38.27,9.42 -38.27,9.42l-11.2 21.46 -26.13 2.81 -30.8 -8.4 -28.94 -2.8 -14 11.2 -22.4 15.86c0,0 0,20.54 -2.8,21.47 -2.8,0.93 -21.46,0.93 -21.46,0.93l-27.07 -6.53 -36.49 -13.07 -22.4 -6.53 -17.27 -13.07 -21.93 -15.86 -18.67 -16.89 -19.6 -13.92 -5.6 -15.86 5.6 -15.87 30.8 -18.67 24.27 -15.86 19.6 -19.6 25.2 -14.94 24.26 -14.93 5.6 -13.07 -3.73 -14.27 0 -20.27 18.67 -12.13 10.27 -10.27 2.8 -10.26 11.2 -12.14 -15.87 -14 -6.53 -6.53 -16.81 8.4 -20.53 4.67 -11.2 -13.07 -7.47 -21.47 -7.46 -14 -13.07 -13.06 -2.8 -22.87 -7 -18.2 0 -16.8 4.2 -26.14 -4.2 -24.24 -7 -18.67 -1.87 -19.6 -6.53 -15.87 -9.33 -17.47 -14.94 -9.6 -15.87 -9.33 -17.73 -5.6 -16.8 -10.27 -3.89 -23.31z" vector-effect="non-scaling-stroke"/>
  </g>
  <g id="NImcY81r_Pu96rNaVePRv">
   <path class="fil18 str0" d="M2459.9 775.22l0 59.73 -0.93 441.66 -14.93 28 -26.14 15.86 -31.73 6.54 -36.4 0.93 -30.81 0c0,0 -26.13,-0.93 -28.93,0 -2.8,0.94 -32.67,0 -32.67,0l-21.46 5.6 -25.21 11.2 -31.73 12.14 -34.53 24.26 -31.74 20.54c0,0 -16.8,26.13 -17.73,30.8 -0.93,4.67 -19.6,29.87 -19.6,29.87l-19.6 11.2 -37.34 -1.87 -20.53 -14 -15.87 -18.67 -15.14 -6.53 -24.99 -5.6 1.86 -18.65 11.21 -12.15 7.46 -13.07 4.46 -21.47 6.74 -26.13 6.53 -25.2 1.87 -28.94 -15.14 -25.2 -20.33 -24.26 -10.26 -37.34 -14 -3.73 -14 14 -30.25 0.93 -19.61 -6.53 -21.46 1.86 -27.08 0.94 -28.92 -0.94 -16.8 2.81 -14.94 9.33 -25.2 10.27 -8.4 -11.2 -13.07 -15.87 -17.73 3.73 -18.67 13.07 -13.27 14.93 -24.99 14 -14.94 -2.8 -7.47 -13.06 15.87 -21.47 20.54 -16.8 21.46 -18.67 16.8 -12.13 23.34 -22.4 -2.8 -24.27 -3.74 -21.47 -9.33 -20.53 -8.4 -21.47 7.47 -27.07 14.93 -35.46 12.13 -23.34 13.07 -18.67 6.53 -26.63 1.87 -14.93 -2.8 -14.94 -5.6 -10.27 -13.07 -11.2 -16.8 -9.33 -4.66 -11.2 0 -15.87 4.66 -25.2 11.2 -15.86 11.21 -6.76 12.13 -7.25 11.2 -5.6 14.93 5.6 16.8 14.01 13.07 12.13 22.39 18.67 13.08 9.33 16.8 6.53 17.73 8.4 13.07 4.67 17.73 4.67 10.27 0.93 24.27 6.53 17.73 -11.2 1.87 -17.73 14.93 -13.07 14 -10.26 19.6 0 23.34 6.53 24.26 3.73 19.6 -1.86 6.54 -6.54 5.6 -13.06 13.07 -5.6 18.66 -3.74 12.06 -0.93 9.77 10.27 8.9 6.53 16.8 7.47 27.07 8.4 14 7.46 14 2.8 21.47 -4.66 28.93 -11.2 19.6 -8.4 14 -4.67 14.94 -4.67 15.86 -4.66 14.94 0.93 24.27 1.87 20.53 0 17.73 -0.94 20.54 0 14 -1.86 28.45 -14.61z" vector-effect="non-scaling-stroke"/>
  </g>
  <g id="_4uC6VEZhdCqV_9_XH0x4X">
   <path class="fil19 str0" d="M1749.2 1419.84l14 3.73 14 3.73 16.8 14 10.27 20.54 -3.74 26.13 2.8 27.07 6.55 22.4 13.99 21.97 9.33 25.2 6.54 15.87 11.2 23.33 13.06 11.2 11.2 15.87 14.94 1.86 9.33 -10.26 5.6 -16.8 2.8 -14.94 7.47 -14 22.4 -3.73 35.47 2.8 24.26 -13.07 35.47 -17.49 23.33 -6.78 33.6 -6.53 17.74 8.4 3.73 15.87 12.52 12.13c0,0 13.62,8.4 18.28,13.07 4.67,4.67 13.07,13.07 13.07,13.07l12.14 17.73 12.13 14.93 -2.8 11.2 -14 8.4 -11.2 10.27 -11.2 15.02 6.53 17.74 7.47 16.8 15.86 3.73 15.87 1.87c0,0 12.14,6.53 14,10.27 1.87,3.73 4.67,11.2 3.74,14.93 -0.94,3.73 -10.27,16.8 -10.27,16.8l-14.93 12.13 -11.2 14 -2.81 23.84 14.94 18.67 6.53 19.6 1.87 16.83 10.27 16.55 0 13.07 14 14 15.86 11.2 16.76 10.66 10.26 13.07 6.54 13.06 4.66 17.74 14.62 10.26 23.65 12.14 29.87 1.87 30.8 0 25.2 -7.47 16.8 -5.6 18.67 0 23.33 11.2 11.2 3.73 -1.86 -733.97 -15.87 24.26 -12.14 14 -37.33 9.34 -26.13 0 -27.07 1.86 -40.14 -0.93 -23.33 0 -25.2 1.87 -21.47 6.53 -21.47 7.47 -22.4 11.2 -17.73 9.33 -12.13 8.4 -14 9.34 -18.24 11.2 -10.7 8.4 -7.47 12.13 -9.33 18.67 -13.07 20.53 -12.13 14 -19.6 8.4 -29.87 -2.8 -20.53 -9.33 -10.27 -14 -11.2 -12.14 -17.73 -7.46 -20.54 -1.87 -2.8 -20.89 9.34 -12.71 10.26 -15.87 8.65 -29.87 9.09 -34.53 4.67 -27.07 -13.76 -25.2 -10.51 -15.87 -13.07 -15.86 -4.67 -12.14 -1.86 -14.93 -9.34 -10.27 -10.26 4.67 -4.67 7.47 -28 0 -14 0 -10.27 -3.74 -24.27 0 -11.2 0 -28.88 0 -18.67 3.74 -11.2 0 -5.6 5.6 -14 9.33 -18.67 4.67 -7.46 -4.67 -8.41 -9.33 -7.46 -12.14 -13.07 0.94 -12.13 5.6 -8.4 9.33 -9.34 13.07 -13.06 7.46 -14 8.4 -9.34 -0.93 -12.13 -4.67 -5.6 -5.6 -4.67 13.07 -0.93 14.93 14.93 15.87 14 -2.8 11.2 -0.93 11.03 2.8 18.84 -10.27 17.73 11.2 14 9.34 12.14 10.26 15.87 11.2 14 11.2 8.4 9.34 13.06 6.53 5.6 6.53 1.87 10.27 5.6 8.4 0.93 11.2 -7.46 11.2 -12.14 -4.67 -10.26 -0.93 -12.14 7.47 4.67 12.13 5.6 23.36z" vector-effect="non-scaling-stroke"/>
  </g>
  <g id="otbWQBCN3raTbsNHQ7XUp">
   <path class="fil20 str0" d="M1566.23 1796.42l18.66 -1.86 14.94 8.4 19.6 22.4 14.93 8.4 18.49 23.33 17.91 22.15 9.33 25.46 10.27 20.53 9.34 18.67 14 17.73 18.66 16.8 17.74 9.33 13.07 11.2 0 18.67 20.53 22.4 26.14 12.96 0 14 22.39 2.8 36.4 -7.47 14.94 -8.4 41.07 4.67 42.19 0.93 19.41 -4.66 28.93 0 13.07 -14 16.8 -13.07 27.07 -3.73 30.8 7.46c0,0 18.11,2.84 20.91,4.71 2.8,1.86 24.82,13.96 24.82,13.96l27.07 14.93 25.2 19.6 24.27 -6.53c0,0 7.47,-18.66 10.26,-18.66 2.81,0 15.87,-5.6 15.87,-5.6l10.41 0 19.1 -9.34 10.76 -8.36 7.47 -9.37 1.87 -12.14 -8.4 -9.33 -11.7 -9.33 -14.44 -9.34 -5.6 -14.93 -8.4 -18.67 -23.33 -22.4 -17.74 -8.4 -14 -18.67 -1.86 -15.86 -9.34 -8.55 0 -22.25 -8.4 -14.01 -14 -17.73 3.74 -18.67 4.66 -14.93 14 -12.13 11.2 -14.94 5.6 -13.06 -4.66 -13.07 -14 -8.4 -14 -1.87 -14 -5.93 -6.54 -11.8 -8.4 -20.54 14 -13.06 16.8 -15.87 9.34 -13.07 -12.14 -16.8 -11.2 -16.8 -14.93 -14.93 -19.36 -10.27 -8.64 -12.13 -3.74 -18.67 -12.13 -7.47 -14 0 -14 2.8 -20.54 7.47 -19.59 4.14 -19.61 7.06 -17.73 11.2 -13.07 6.53 -13.94 4.67 -20.59 -1.87 -14.93 0 -15.87 3.74 -10.27 13.07 -2.8 14 -6.53 16.8 -7.47 11.19 -13.06 -1.86 -7.47 -10.27 -12.14 -12.13 -8.4 -12.13 -8.4 -16.81 -10.26 -23.33 -10.27 -20.53 -8.53 -16.8 -6.41 -21.47 -0.93 -20.84 1.87 -17.73 -3.73 -22.71 -11.2 -15.87 -11.2 -10.26 -22.41 -7.47 -11.2 -0.93 -12.13 13.06 -8.4 10.27 -8.4 7.47 -6.53 5.6 -3.74 13.06 -2.8 11.2 -4.66 11.2 -2.8 14.01 -2.8 16.8 -12.14 -2.8 -13.07 -1.87 -14.31 0 -12.23 2.8 -10.26 3.73 -6.54 6.54 -6.53 5.6 -9.33 2.8 -10.27 2.8 -11.2 1.86 -15.87 0.94 -9.33 4.66 -11.2 4.67 -9.33 10.35 -10.27 7.38 -8.4 9.34 0 9.33 0 13.07 0 14 4.66 10.27 4.67 9.33 0 10.27 0 9.33 8.4 10.27 4.67 9.33 0 11.2 3.73 13.07 12.13 12.13 13.07 15.87 4.67 13.07 0 16.8 -6.54 17.73 -5.32 19.38z" vector-effect="non-scaling-stroke"/>
  </g>
  <g id="_7kjhEyX3TBtYPsoNskbaB">
   <polygon class="fil21 str0" points="1543.59,1864.51 1540.79,1879.22 1542.66,1896.24 1540.79,1908.37 1534.26,1920.51 1518.39,1931.71 1499.72,1937.31 1490.39,1946.64 1484.79,1957.84 1488.52,1967.17 1487.59,1980.24 1487.59,1990.51 1495.9,1999.84 1495.9,2012.91 1495.9,2025.98 1490.39,2036.21 1489.46,2053.04 1495.9,2071.71 1495.9,2090.38 1507.19,2099.71 1519.32,2112.78 1516.52,2123.05 1495.9,2129.58 1474.52,2138.91 1462.39,2148.25 1448.39,2158.51 1435.32,2165.98 1422.25,2178.12 1410.12,2186.51 1400.79,2187.45 1387.72,2193.2 1365.32,2187.45 1356.92,2178.12 1343.85,2168.78 1327.05,2164.11 1307.45,2158.51 1287.85,2147.31 1276.65,2137.05 1270.12,2121.18 1303.72,2108.11 1320.52,2095.98 1331.72,2076.38 1338.9,2056.78 1351.32,2036.21 1365.32,2018.51 1376.52,1997.98 1389.59,1981.18 1401.72,1970.91 1413.85,1965.31 1418.52,1951.31 1405.45,1935.44 1409.19,1919.57 1421.32,1901.84 1433.45,1890.64 1455.85,1879.22 1467.06,1869.17 1481.99,1861.71 1495.9,1851.44 1516.52,1855.17 1531.46,1862.64 " vector-effect="non-scaling-stroke"/>
  </g>
  <g id="Z2FhJI_oqnGWRmvNcU6CI">
   <polygon class="fil22 str0" points="1567.82,1796.38 1582.75,1793.57 1598.62,1800.11 1607.95,1811.31 1617.29,1822.51 1635.02,1833.71 1647.15,1849.58 1658.35,1862.64 1670.49,1874.78 1674.22,1887.84 1682.62,1905.58 1689.16,1922.38 1696.62,1936.38 1705.02,1950.38 1714.36,1963.45 1732.09,1975.58 1752.62,1989.58 1761.02,1998.91 1763.82,2015.71 1775.02,2031.58 1789.02,2042.78 1809.84,2052.12 1809.84,2064.25 1801.16,2073.58 1784.36,2078.25 1774.09,2090.38 1764.76,2098.78 1758.22,2103.45 1743.29,2106.25 1740.49,2122.12 1733.96,2126.78 1713.42,2124.92 1706.89,2143.59 1700.36,2165.05 1689.16,2176.25 1678.89,2183.72 1663.95,2175.32 1652.85,2167.85 1638.75,2167.85 1622.89,2163.18 1611.69,2164.12 1598.62,2160.39 1583.68,2152.92 1570.62,2145.45 1553.82,2138.92 1535.15,2133.32 1518.35,2123.05 1517.42,2108.12 1500.62,2094.12 1495.86,2071.72 1489.42,2056.78 1489.42,2042.78 1495.86,2027.85 1495.86,2011.98 1495.86,1997.98 1488.48,1986.78 1489.42,1972.78 1486.61,1955.98 1495.86,1942.91 1509.95,1935.45 1526.75,1926.11 1540.75,1912.11 1545.42,1893.44 1544.48,1879.22 1548.22,1864.51 1549.15,1846.78 1554.75,1828.11 1556.62,1812.24 " vector-effect="non-scaling-stroke"/>
  </g>
  <g id="mKmGbEJgYPTaZqyAyaaPR">
   <polygon class="fil23 str0" points="1685.46,2186.19 1691.06,2203.92 1702.26,2219.79 1719.06,2231.92 1737.73,2236.59 1754.53,2236.59 1778.8,2237.52 1795.6,2239.39 1809.88,2239.39 1828.27,2237.52 1842.27,2239.39 1861.87,2239.39 1879.6,2238.46 1878.67,2254.32 1889.87,2264.59 1894.53,2276.72 1884.27,2288.86 1874,2305.66 1866.53,2315.93 1861.87,2327.13 1842.27,2325.26 1832.93,2311.26 1820.8,2306.59 1804.93,2301.93 1795.6,2298.19 1784.4,2306.59 1776.93,2316.86 1757.33,2319.66 1735.86,2312.19 1720,2302.86 1690.13,2304.72 1663.06,2312.19 1639.73,2299.12 1625.73,2288.86 1595.86,2272.06 1579.06,2264.59 1565.99,2253.39 1559.46,2240.32 1549.19,2236.59 1529.59,2221.66 1516.52,2206.72 1506.26,2193.2 1495.9,2179.66 1481.06,2169.39 1467.06,2163.79 1448.39,2158.19 1473.59,2143.25 1491.32,2132.99 1502.52,2128.32 1513.72,2123.65 1531.46,2130.19 1552.92,2139.52 1566.93,2145.12 1587.46,2156.32 1600.53,2162.85 1614.53,2166.59 1623.86,2166.59 1638.79,2167.52 1652.89,2168.45 1667.73,2176.86 " vector-effect="non-scaling-stroke"/>
  </g>
  <g id="pvsiV-7Ux87NFiwdvLty5">
   <path class="fil24 str0" d="M1881.43 2235.33l18.67 -9.34 10.27 -4.66 8.4 -7.47 2.8 -13.07 -0.93 -13.06 -0.94 -17.74 0 -5.6 9.33 -4.66 20.54 -2.8 12.13 -7.47 13.07 -12.13 3.74 17.73 8.39 14 6.54 24.14c0,0 1.87,5.73 3.73,11.33 1.87,5.6 2.8,21.46 2.8,21.46l-5.6 19.61 -0.93 14.93 -10.27 13.07 -12.13 10.26 -12.14 3.74 -10.26 6.53 -16.8 14 -13.07 9.33 -6.54 8.41 9.34 11.2 -1.87 13.12 -27.06 -12.19 -9.34 -3.74 -18.67 -6.53 2.8 -14 10.27 -13.07 10.27 -14 6.53 -9.33 -1.86 -9.33 -9.34 -6.54 -4.67 -12.13 2.8 -14z" vector-effect="non-scaling-stroke"/>
  </g>
  <g id="fJqFZIaoVtZ-D4P45Sgbo">
   <polygon class="fil25 str0" points="1977.03,2136.41 1991.97,2124.28 2011.57,2124.28 2030.24,2119.61 2049.84,2117.74 2061.04,2122.41 2077.84,2126.15 2098.37,2128.94 2115.17,2130.81 2123.82,2146.68 2139.44,2146.68 2155.3,2142.01 2164.64,2135.48 2189.84,2128.01 2201.97,2132.68 2205.71,2146.68 2214.11,2152.28 2232.77,2144.81 2242.11,2132.68 2243.97,2119.61 2236.51,2104.68 2224.37,2100.01 2209.44,2093.48 2196.37,2083.21 2174.91,2066.41 2156.24,2055.21 2139.44,2046.81 2119.84,2036.23 2100.24,2030.94 2085.3,2027.21 2068.5,2026.27 2050.77,2029.08 2037.7,2036.23 2027.44,2048.67 2018.1,2057.08 1998.5,2058.94 1985.43,2058.01 1966.83,2061.74 1958.37,2061.74 1940.63,2060.81 1916.37,2058.94 1902.36,2057.08 1881.83,2058.01 1871.56,2065.48 1854.76,2070.14 1846.36,2070.14 1831.43,2070.14 1815.56,2070.14 1809.84,2070.14 1792.23,2079.48 1779.16,2087.88 1769.83,2100.01 1758.63,2109.34 1744.63,2109.34 1739.96,2126.14 1732.49,2130.81 1716.63,2128.01 1711.03,2139.21 1706.36,2156.01 1699.83,2170.01 1690.49,2179.35 1693.29,2198.95 1701.69,2215.75 1714.76,2226.95 1731.56,2233.48 1756.76,2235.35 1779.16,2235.35 1804.36,2236.28 1825.83,2237.21 1841.7,2237.21 1863.16,2236.28 1876.23,2236.28 1888.37,2231.61 1907.96,2222.28 1916.37,2212.95 1919.16,2198.01 1918.23,2183.08 1919.16,2166.28 1928.5,2159.74 1946.23,2156.01 1966.83,2148.54 " vector-effect="non-scaling-stroke"/>
  </g>
  <g id="Idy-aj-6I_u6sdQc_-do5">
   <path class="fil26 str0" d="M2456.46 2015.7l2.8 101.73 -21.41 -1.86 -14.05 -3.74 -14.94 0 -11.2 8.4 -0.93 19.6c0,0 -2.8,14.01 -2.8,16.81 0,2.8 6.53,20.53 6.53,20.53l-6.53 21.47 -11.2 13.06 -8.4 21.47 -12.14 10.27 -11.2 6.53 -17.73 13.07 -14.93 1.86 -17.74 -1.86 -12.13 -9.34c0,0 -14,-5.6 -17.74,-5.6 -3.73,0 -14,-1.86 -14,-1.86l-16.8 -4.67c0,0 -10.26,-2.8 -14,-3.73 -3.73,-0.94 -15.86,-4.67 -15.86,-4.67l-15.87 -13.07c0,0 -3.73,-14 -2.8,-16.8 0.93,-2.8 9.33,-20.53 9.33,-20.53l6.54 -16.8 4.66 -14.93 14.94 -4.67 13.06 -6.54 3.74 -14 -3.74 -14.93 -10.26 -6.53 -12.14 -5.6 -13.06 -11.2 19.6 -8.4 8.4 -14.94 15.86 -7.46 17.74 -4.67 14.8 -6.53 11.33 -9.33 4.67 -11.21 8.4 -14 25.2 0.93 24.27 1.87 25.2 -5.6 16.8 -4.67 14.93 -4.66 18.67 0.93 12.13 7.47 14 8.4z" vector-effect="non-scaling-stroke"/>
  </g>
  <g id="BGFbbjryqiqZc2KPS1VyZ">
   <path class="fil27 str0" d="M2457.38 2119.25l6.53 380.81 -26.08 2.8 -13.12 8.4 -9.33 6.53 -14.94 0 -12.13 -6.53c0,0 -14,-4.1 -18.67,-4.1 -4.67,0 -23.33,8.77 -23.33,8.77l-20.54 -0.94 -14.93 -7.83 -19.6 -8.03 -30.8 8.03 -23.34 0 -10.26 -15.5 -14.94 -13.07 -13.06 -0.93 -28.94 0.93 -29.87 -8.4c0,0 -12.45,-5.6 -16.18,-7.46 -3.74,-1.87 -20.22,-7.47 -20.22,-7.47l-20.53 0 -15.87 -9.34 -25.2 -4.66 -2.8 -19.6 -12.13 -14 -18.67 -13.07 -29.05 -14 -19.6 -15.87 -11.2 -14.55 -11.2 0 -15.86 0 -0.94 -10.65 -7.46 -13.07 20.53 -20.53 17.73 -14 15.48 -3.73 19.06 -15.87 7.46 -11.2 5.6 -23.33 2.81 -19.61 -5.6 -25 -5.61 -13.26 -9.33 -19.6 -6.53 -14 5.6 -13.07 14.93 -9.33 16.8 0.93 18.67 -4.67 19.6 -1.86 18.67 5.6 19.6 3.73 24.26 3.73 11 14.94 15.14 3.73 13.07 -8.4 14.93 -7.47 14 -3.73 13.07 -1.87 9.33 13.07 6.53 11.2 -4.66 14.93 -8.4 17.74 -7.47 17.73 7.47 17.74 17.73 12.13 23.33 9.33 20.54 3.74 15.87 3.73 14.93 6.53 14 8.4 17.73 1.87 21.47 -6.53 16.8 -10.27 12.13 -12.13 9.34 -14.01 8.4 -13.06 8.4 -17.54 5.6 -12.33 0.93 -15.87 -6.53 -13.06 -0.93 -24.27 7.46 -14.93 14 -2.81 15.87 5.61 23.45 3.73z" vector-effect="non-scaling-stroke"/>
  </g>
  <g id="ZrmQ8wZx-SEMiJXXqlNoD">
   <path class="fil28 str0" d="M1672.2 2480.88l14 12.13 8.4 14.18 7.47 15.69 13.07 9.33 19.6 5.6 17.73 10.27 11.2 11.2 9.33 9.34 19.61 12.13 9.33 12.13 7.93 16.8 19.14 14.94 10.26 10.26 14 12.14 -17.73 17.16 -8.4 11.77 30.8 2.8 23.33 6.53 17.74 6.54 24.27 5.6 30.8 -0.93 23.33 -5.6c0,0 15.87,-7.47 15.87,-11.21 0,-3.73 4.67,-23.33 4.67,-23.33l2.79 -20.53 11.2 -14.94 14.01 -11.2 13.06 -5.6 25.2 -0.93 28 0.93 24.27 -7.46 20.54 -15.87 14.93 -20.53 24.01 -5.61 22.4 -10.26 25.2 2.8 21.47 3.73 26.13 4.67 9.68 13.07 -8.74 24.26 3.73 22.4 17.73 10.27 26.14 11.2 25.2 -9.33c0,0 8.4,-13.07 11.2,-14 2.8,-0.94 20.53,-6.54 20.53,-6.54l14 7.47 9.34 14 1.86 19.6 13.07 16.23 17.74 -5.03 14.93 -16.8 21.47 -17.73 -5.6 -122.27 -25.6 -0.94 -12.67 5.78 -3.73 9.16 -20.54 3.73 -14 -4.67 -12.13 -8.22c0,0 -13.07,-0.94 -15.87,0 -2.8,0.93 -17.73,12.89 -17.73,12.89l-16.8 -3.73 -14.01 -9.16 -12.13 0 -10.27 -5.78 -16.8 5.78 -27.06 0 -13.07 -6.71 -12.14 -14.93 -12.13 -7.47 -17.73 1.87 -15.87 0 -22.4 -3.74 -22.4 -8.4 -13.07 -8.4 -12.13 -0.93 -15.87 0.93 -15.61 -8.4 -14.93 -4.66 -14 -3.74 -6.54 -14 -0.93 -10.26 -12.13 -11.2 -13.07 -9.34 -15.87 -4.67 -20.53 -12.13 -6.82 -8.4 -8.12 -9.33 -3.73 -6.54 -14 -2.8 -15.87 -3.74 -14 0 -18.66 -9.32 -15.87 -5.6 -15.87 -2.8 -18.67 -3.74 -8.4 -13.06 -12.13 -7.47 -16.8 -5.6 -11.2 -0.93 -14 14 -16.8 5.6 -13.07 0 -12.13 -4.67 -14 -4.67 -7.47 -3.73 -21.47 0.93 -16.8 4.67 -12.13 1.87 -20.53 -11.2 -15.87 -13.07 -19.6 -8.4 -15.87 -8.4 -14 -8.4 -8.4 -4.67 0.93 14.93 19.6 25.21 14 14.93 13.07 14 9.33 13.07 3.74 19.6 6.53 14.93 8.4 8.4 5.88 12.13 0 21.47 6.25 21.47 5.6 13.07 6.54 14.93 0.93 11.2z" vector-effect="non-scaling-stroke"/>
  </g>
  <g id="BqlSTBT8cqjWxO6oaHtFY">
   <path class="fil29 str0" d="M1825.13 2679.69l-2.8 10.27 -8.4 6.53 -10.26 6.53 -14 7.47 -10.27 3.73 -15.87 8.41 -8.4 7.46c0,0 0,14 -1.86,18.67 -1.87,4.66 -11.2,16.8 -11.2,16.8l-7.47 -14.93 -8.4 -7.47 -18.67 -8.4 -7.47 -5.6 -10.26 -15.87 -8.4 -16.8 -8.4 -12.13 -9.34 -11.2 -10.78 -8.96 -15.35 -13.44 15.35 -19.6 -16.28 -6.54 -18.67 7.47 -1.87 -24.27 4.67 -17.73 -13.07 -7.47 -13.06 1.87 -29.87 4.66 -17.74 -7.46 -10.26 -9.34 -4.67 -14 -11.2 -12.13 -17.73 -9.33 -13.07 -14 -12.14 -15.68 -7.46 -13.26c0,0 -3.74,-14 -7.47,-14 -3.73,0 -18.67,-9.33 -18.67,-9.33l-5.6 -17.74 -1.86 -18.66 21.47 0.93 22.4 -1.87 15.16 3.74 15.64 6.53 20.53 9.33 12.13 8.4 14 10.27 15.87 4.67 14.94 2.8 16.8 2.8 15.86 3.73 17.74 5.6 13.48 -3.73 18.25 -2.8 14 9.33 4.67 13.26 9.33 13.81 12.13 11.2 22.41 6.53 13.06 7.47 13.07 12.13 12.13 7.47 16.8 12.13 12.14 13.07 9 17.73 14.33 15.87 15.87 11.2 10.27 10.27 -13.07 12.13 -4.67 12.14 -7.47 9.33z" vector-effect="non-scaling-stroke"/>
  </g>
  <g id="b1k2hxOaRmYNeoXa77v5U">
   <polygon class="fil30 str0" points="1744.89,2769.98 1751.42,2783.04 1763.55,2796.11 1774.75,2806.38 1778.49,2821.16 1757.02,2825.98 1733.69,2825.04 1713.15,2821.16 1695.42,2815.71 1670.22,2809.18 1645.02,2799.84 1621.68,2790.51 1603.01,2783.04 1591.81,2773.71 1581.55,2769.98 1567.55,2782.11 1557.28,2791.44 1550.75,2807.31 1541.41,2811.04 1522.74,2811.04 1511.54,2811.04 1495.91,2815.71 1481.68,2816.64 1474.21,2806.38 1466.74,2790.51 1456.48,2782.11 1441.54,2769.98 1423.81,2760.64 1403.27,2750.38 1388.34,2743.84 1367.81,2738.24 1359.41,2731.71 1382.74,2725.18 1412.61,2708.37 1442.48,2692.51 1458.34,2686.91 1476.08,2684.11 1495.91,2671.04 1503.15,2653.3 1507.81,2635.57 1515.28,2615.97 1521.81,2598.24 1527.41,2585.17 1533.94,2573.97 1552.61,2583.3 1565.68,2592.64 1581.55,2588.9 1598.35,2585.17 1614.21,2585.17 1620.75,2594.5 1616.08,2609.44 1615.15,2624.37 1617.02,2634.64 1628.22,2629.97 1641.28,2627.17 1652.89,2629.97 1646.88,2642.1 1641.28,2651.44 1652.89,2664.17 1663.68,2676.64 1672.08,2686.91 1678.62,2696.24 1685.15,2705.57 1689.82,2716.77 1697.28,2729.84 1710.35,2736.38 1721.55,2741.98 1729.95,2748.51 1739.29,2758.78 " vector-effect="non-scaling-stroke"/>
  </g>
  <g id="ShCfI2D6A8mdUropfmYnE">
   <path class="fil31 str0" d="M1809.85 2704.9l8.85 16.8 -8.85 25.2 0 27.06 16.31 16.81 23.34 14.93 20.53 8.4 29.87 7.07 26.13 8.8 17.73 22.4 17.74 24.26 11.2 12.14 -0.93 15.87 5.6 16.8 12.13 22.4 28 13.06 28.93 2.8 17.74 -1.86 16.8 12.13 14.93 17.73 27.93 25.2 19.68 16.8 23.33 20.54 28.93 18.67 32.67 1.86 19.6 2.8c0,0 15.87,5.6 17.73,9.34 1.87,3.73 21.47,14.93 21.47,14.93 0,0 14,13.07 14,15.87 0,2.8 -7.19,21.44 -7.19,21.44l-13.23 14.02 17.89 11.21 26.14 2.8 23.33 -1.87 14 -1.87 23.34 -5.6 21.46 -8.4 12.14 15.87 23.33 -0.93 3.73 -25.23 9.34 -25.18 11.2 -9.33 1.86 -477.43 -14 12.13 -10.26 12.14 -13.07 16.7 -13.07 0 -11.2 -8.3 -7.46 -11.2 0 -15.87 -8.4 -13.07 -10.27 -4.66 -14.93 -0.94 -14.94 8.4 -7.47 13.07 -16.8 8.4 -19.6 -3.73 -17.73 -8.4 -14.93 -9.34 -5.6 -17.73 2.8 -18.67 9.17 -10.26 -10.11 -14.94 -23.33 -3.73 -19.6 -3.74 -20.54 -1.86c0,0 -10.26,-0.94 -14.93,1.86 -4.67,2.8 -21.47,9.34 -21.47,9.34l-12.13 1.87 -8.4 11.2 -14.93 14.93 -11.55 11.2 -29.52 5.6 -17.74 2.8 -17.73 -0.93 -14 0 -8.4 5.6 -19.6 9.33 -9.33 13.07 -4.67 13.06 0 17.64 -4.67 13.16 -10.27 13.07 -21.06 7.47 -19.07 0.93 -20.53 2.8 -16.8 -3.73c0,0 -16.8,-6.54 -20.54,-6.54 -3.73,0 -24.27,-6.53 -24.27,-6.53l-20.8 -5.6 -14 0 -8.4 12.13 -12.58 13.56z" vector-effect="non-scaling-stroke"/>
  </g>
  <g id="JvLnHtf8lWngU1p3Q7llG">
   <path class="fil32 str0" d="M1777.64 3332.41l70 12.14 48.53 5.6 141.88 19.6 56 5.6 46.67 9.33 41.06 8.4 73.74 10.36 25.31 7.46 28.82 10.27 41.02 3.74 27.07 7.46 28 6.53 22.4 5.61 39.2 4.64 0.94 -344.39 -14.94 10.27 -6.53 20.14 -8.99 26.53 -15.28 0.93 -14 -14.93 -19.6 4.66 -24.27 9.34 -36.4 3.73 -23.33 -2.8 -13.07 -4.67 -11.04 -9.33 15.71 -18.67 2.8 -14.93 -11.2 -14.93 -15.87 -9.34 -13.06 -12.13 -28.94 -5.6 -23.33 0.93 -20.54 -7.47 -13.06 -9.33 -25.2 -17.73 -24.3 -23.34 -27.97 -21.46 -12.14 -16.45 -14 -14.36 -13.06 -3.73 -24.27 0.94 -30.8 -8.41 -18.67 -10.26 -11.2 -18.67 -4.88 -15.87 0 -18.66 -13.9 -22.17 -18.67 -19.6 -11.2 -15.87 -15.86 -4.66 -23.34 -5.67 -20.53 -6.47 -16.8 -6.53 -16.8 -7.47 -12.14 -11.2 -7.75 -12.13 0 -22.4 4.02 -23.34 2.8 -11.2 -11.2 -12.96 -16.8 3.74 -15.87 8.4 -12.13 9.33 -1.87 11.2 -4.66 16.8 -7.47 6.54 5.6 14 14 15.86 12.13 9.34 7.47 13.06 -3.73 13.07 -14.94 0.94 -18.66 1.86 -18.67 -2.8 -23.34 -7.64 -20.53 0 -16.8 -9.16 -16.34 -4.67 -17.26 -4.66 -16.62 -8.4 -12.13 -5.6 -12.13 -9.34 -10.27 -5.6 6.53 15.87 6.54 19.6 8.4 16.8 15.86 14 31.08 9.34 17.46 5.6 14 8.4 3.73 12.13 4.67 18.67 -3.74 19.6 0 19.6 3.74 20.53 11.2 24.28 14.93 15.86 16.8 13.06 23.34 8.4 14.93 7.47 2.8 15.87 -3.73 12.13 -13.07 4.67 -6.53 12.13 -7.47 13.07 1.87 17.73 0 16.8 -9.34 4.67 -14 0 -14 6.53 -11.2 14.94 -10.27 13.06 -21.46 4.67c0,0 -15.87,1.87 -20.54,1.87 -4.66,0 -26.13,1.87 -26.13,1.87l-14.93 -0.94 -16.81 -2.8 -16.8 -1.86 -16.8 -6.54 -12.13 -4.67 -11.2 4.67 -10.27 13.07 -8.4 19.6 -10.26 18.66 -0.94 16.81 0.94 18.66 -15.87 11.2 -13.07 10.27 -14.93 0 -12.09 -6.97 -12.13 0.94 -7.47 11.2 -2.8 15.86 352.74 52.27z" vector-effect="non-scaling-stroke"/>
  </g>
 </g>
</svg>
