<?xml version="1.0" encoding="UTF-8"?>
<!DOCTYPE svg PUBLIC "-//W3C//DTD SVG 1.1//EN" "http://www.w3.org/Graphics/SVG/1.1/DTD/svg11.dtd">
<!-- Creator: CorelDRAW 2021 (64-Bit) -->
<svg xmlns="http://www.w3.org/2000/svg" xml:space="preserve" width="2480px" height="3508px" version="1.1" style="shape-rendering:geometricPrecision; text-rendering:geometricPrecision; image-rendering:optimizeQuality; fill-rule:evenodd; clip-rule:evenodd"
viewBox="0 0 2480 3507.43"
 xmlns:xlink="http://www.w3.org/1999/xlink"
 xmlns:xodm="http://www.corel.com/coreldraw/odm/2003">
 <defs>
  <style type="text/css">
   <![CDATA[
    .str0 {stroke:#E11F1F;stroke-width:3.12;stroke-miterlimit:22.9256}
    .fil0 {fill:none}
    .fil2 {fill:none;fill-rule:nonzero}
    .fil1 {fill:white;fill-rule:nonzero;fill-opacity:0.000000}
   ]]>
  </style>
 </defs>
 <g id="Layer_x0020_1">
  <metadata id="CorelCorpID_0Corel-Layer"/>
  <g id="XmjKfMTIzCRJ8__IzdX-f">
   <path class="fil0 str0" d="M17.45 84.74l49.44 19.77 42.85 19.78 29.66 -19.78 16.48 -19.77 29.66 19.77 32.96 -19.77 36.26 0 39.55 0 19.77 19.77 39.55 0 36.26 0 13.18 19.78 46.14 0 36.26 -19.78 36.25 -39.55 46.14 0 26.37 -16.48 39.55 0 46.14 -13.18 16.49 29.66 0 39.55 -16.49 0 29.67 32.96 29.66 16.48 32.96 23.07 -62.62 32.96 -13.18 36.26 -16.49 29.66 -46.14 26.37 0 42.85 -16.47 13.18 -49.45 0 0 36.25 26.37 19.78 23.08 0 -23.08 29.66 0 32.96 0 19.78 39.55 0 29.67 42.84 32.96 19.78 -16.49 36.25 0 32.96 29.67 0 0 32.96 -13.18 32.96 -16.49 16.48 -16.47 0 -13.19 36.25 13.19 19.78 -29.67 32.96 -16.47 32.96 0 23.07 -23.08 13.18 -26.37 16.48 -19.77 23.07 -26.37 29.67 0 46.14 26.37 29.66 46.14 0 -26.37 36.26 0 36.25 -32.95 26.37 -29.67 0 -39.55 0 -16.48 -26.37 -46.14 0 -13.18 26.37 -19.78 29.66 -36.25 0 0 -56.03 -19.78 -36.25 -19.77 -19.78 -16.49 0c0,0 -19.77,9.89 -23.06,19.78 -3.3,9.88 -13.19,36.25 -13.19,36.25l-56.03 26.37 -29.66 0 -32.96 -26.37 -13.18 -36.25 -29.67 -19.78 -49.44 -16.48 -13.18 -929.44z" vector-effect="non-scaling-stroke"/>
  </g>
  <g id="fRMsTWBW5LcB4zfN1N7xm">
   <path class="fil0 str0" d="M778.64 176.83l-22.1 13.8 -20.99 12.71 -13.26 5.53 -8.84 7.74 -12.15 24.3 -6.63 20.99 -9.95 13.27 -11.05 7.73 -13.26 6.63 -7.73 6.63 -12.15 6.63 -3.32 27.62 -2.84 15.13 -12.15 12.49 -9.94 5.53 -18.79 0 -20.99 -2.21 -1.11 17.68 3.32 13.25 11.05 12.16 9.94 5.52 22.1 1.11 -11.05 15.47 -8.84 14.36 -2.21 17.68 -2.21 20.99 3.31 14.36 19.89 6.52 18.79 0 15.47 16.69 16.57 20.99 15.47 8.84 12.15 8.84 0 9.95 -5.52 17.67 -5.53 14.36 -3.31 17.68 6.63 8.84 14.36 0 6.98 1.11 5.18 11.05 -5.18 18.88 0 15.71 -12.5 22.09 -11.05 17.68 -16.58 0 -7.73 21.33 12.15 13.26 15.47 -8.84 14.37 -8.84 22.09 1.11 15.47 6.63 14.37 6.63 24.31 5.52 6.62 8.84 18.79 0 12.15 12.16 12.15 8.84 11.06 12.15 14.36 8.84 9.41 11.8 17.11 9.19 7.73 8.84 15.47 2.21 6.63 13.26 11.05 8.84 16.57 15.47 18.78 5.52 15.47 2.21 18.79 4.42 11.04 15.47 16.26 -5.53 15.79 5.53 15.47 6.63 17.67 4.42 7.74 6.63 20.99 0 12.16 -6.63 22.09 -2.21 14.37 -2.21 12.15 -9.95 11.05 -9.94 5.43 -11.05 10.04 -4.42 9.94 12.16 11.05 -12.16 8.5 -7.73 12.15 -3.32 15.47 -6.63 19.89 6.63 11.04 3.32 1.11 -18.78 3.31 -9.95 -12.15 -6.63 -15.47 -13.61 -7.73 -19.54 -9.95 -16.57 -6.63 -9.94 0 -14.37 -11.04 -15.46 -17.68 -15.47 -16.58 -12.16 -20.99 -2.21 -15.47 -4.03 5.53 -16.58 18.78 2.21 12.15 -12.15 -16.57 -11.05 1.1 -15.47 -5.52 -11.05 -19.89 -1.1 -18.78 0 -17.68 4.42 -19.89 -2.21 -6.63 -14.37 8.84 -11.05 16.58 -6.63 -8.84 -14.36 -19.89 -5.52 -16.57 -5.53 -5.53 -9.94 0 -13.26 16.57 -4.42 17.68 -1.11 -1.11 -13.25 -7.73 -13.26 -14.36 -3.32 -17.68 1.11 -6.63 14.36 -4.42 11.05 -13.23 4.42 -9.97 -3.32 -15.47 -3.31 3.31 -14.37 12.16 -7.73 -9.95 -8.84 -3.31 -14.43 3.31 -12.09 13.26 4.42 6.66 16.58 16.55 -8.91 -11.05 -18.71 0 -11.05 5.52 -9.95 13.26 -13.26 7.74 -13.26 12.15 -11.04 1.1 -15.48 -13.25 -2.2 -13.26 -1.11 -18.76 -5.52 5.5 -12.16 8.84 -12.15 4.42 -13.26 3.31 -15.76 -14.36 -5.23 -16.58 5.23 -11.05 0 -11.04 -6.34 2.21 -12.15 18.78 -9.94 16.57 -3.32 8.84 -8.84 -15.44 -13.26 -17.71 -7.73 -5.86 -14.3 23.57 -5.52 0 -9.95 -16.94 -5.52 -14.36 -2.21 -3.32 -9.94 18.78 -11.05 3.32 -12.16 -5.53 -11.04 -9.94 -5.53 9.94 -12.15 -2.2 -15.48 -16.58 -2.2 -11.05 4.42 -17.68 1.1c0,0 -3.31,1.11 -7.73,5.53 -4.42,4.42 -9.94,6.62 -9.94,6.62l-15.47 6.05 -16.58 0 -18.78 -7.15 -11.05 -6.63 -9.79 13.78 -12.31 0 -15.47 0 -13.25 13.84 -9.95 11.05 -18.78 -2.21 5.52 -22.68 -20.78 -13.8z" vector-effect="non-scaling-stroke"/>
  </g>
  <g id="_2ZgJs-eTctm8XeFsSo_ms">
   <path class="fil0 str0" d="M1097.78 912.89l-9.95 18.78 -13.26 -2.2 -14.36 8.83 -3.32 15.47 2.22 11.4 -5.53 15.12 -17.68 12.16 -17.31 -1.11 -21.36 -12.15 -15.47 13.26 -9.94 13.25 -12.15 21 -14.37 9.94 -19.89 15.47 -11.05 8.84 11.05 16.57 29.84 16.58 14.36 13.26 -8.84 28.72 11.05 22.1 18.78 12.16 22.1 19.88 28.73 23.09 19.88 2.21 11.05 19.89 13.26 15.47 5.53 13.26 16.57 10.84 5.52 11.26 7.74 12.15 17.68 4.42 23.2 5.52c0,0 10.54,3.32 11.64,6.63 1.1,3.32 8.25,22.1 8.25,22.1l-2.21 17.68 7.74 20.99 16.57 14.37 19.88 6.62 22.1 -5.52 15.47 5.52 -1.1 14.37 -2.21 11.05 1.1 15.47c0,0 12.16,9.94 15.47,9.94 3.31,0 12.15,5.53 12.15,5.53 0,0 6.64,6.53 6.64,9.85 0,3.31 -6.64,18.78 -6.64,18.78l-13.25 9.95 -7.74 18.78 -11.05 7.73 -9.94 7.74 -7.74 8.84 -1.1 18.78 8.84 13.26 14.36 18 11.05 20.67 9.94 14.37 -1.1 14.36 -4.42 13.26 -18.78 6.63 -12.16 0 -13.25 7.73 -7.74 2.21 -8.84 7.74 -12.15 14.36 -14.36 12.15 -13.78 4.42 -21.58 -1.1 -15.47 2.21 -13.26 3.31 -17.68 14.37 -19.89 -7.74 -16.57 -12.15 -13.26 -24.31 -11.05 -19.89 -12.15 -15.47 -8.84 -12.15 -11.05 -14.36 -4.42 -15.47 -13.26 -15.15 -5.52 -23.53 -3.32 -12.15 -12.15 -11.05 -16.58 -5.52 -16.57 -13.26 -17.68 -15.47 -12.15 -13.26 -17.68 -11.05 -16.57 -8.84 -18.79 -14.36 -15.47 -6.63 -12.15 9.94 -16.57 -6.63 -16.58 -7.73 -13.26 -6.63 -6.62 -8.73 16.57 -21.1 5.52 -14.37 -1.1 -14.36 -17.68 -6.63 -9.94 8.84 -15.47 0 -13.26 -1.1 -9.95 -2.22 -12.15 -5.52 -11.12 2.21 -20.92 -12.15 -7.74 -8.84 -12.15 -8.84 -15.47 -8.84 -23.2 -14.36 -14.37 -11.05 -13.25 -11.05 -8.84 -18.78 -2.21 -19.89 -5.53 -11.05 -16.57 0 -14.66 3.31 -15.17 -14.36 -5.53 -11.05 -12.18 -11 -16.57 1.1 -18.78 -4.42 -4.42 -13.26 0 -18.78 11.04 -16.57 16.58 -14.37 13.26 -7.73 4.42 -14.37 -3.32 -16.57 15.47 -6.63 15.2 -7.73 10.22 -8.84 4.42 -19.89 -1.11 -17.68 29.83 -38.67 -43.36 2.21 -19.62 -11.05 -12.15 -16.57 2.21 -28.69 1.1 -24.3 13.26 -16.58 21 -22.09 14.36 -13.27 15.47 -8.83 25.41 -13.26 5.52 -18.38 0 -18.78 8.85 -13.43 7.73 -14.19 8.84 -7.74 8.84 -9.94 6.63 -13.26 -8.84 -11.05 -1.11 -9.95 6.63 -14.36 11.05 13.26 17.68 -8.84 22.05 -6.63 18.83 2.21 17.68 4.42 18.78 9.94 13.26 2.22 8.84 8.83 15.47 -1.1 18.78 14.36 13.26 9.95 13.26 11.05 9.94 8.83 12.16 11.99 14.36 9.01 18.79 7.73 14.36 15.47 12.15 13.26 12.16 8.84 15.46 7.73 17.68 0 16.58 5.53 9.94 12.15 3.32 6.63 14.75 -4.42 11.76 0 16.58 7.4 22.1 8.84 28.75 4.46z" vector-effect="non-scaling-stroke"/>
  </g>
  <g id="nt_h1elsTNOYEVzOLdQYP">
   <path class="fil0 str0" d="M32.02 1014.19l11.05 3.69 11.05 4.6 14.74 4.61 14.73 3.68 11.05 5.53 10.14 9.21 6.44 8.29 5.53 11.97 3.68 16.58 6.45 6.44 12.89 11.05 11.05 6.45 11.05 3.69 14.74 2.76 3.69 7.33 8.28 18.46 14.74 9.21 11.05 8.28 3.68 11.98 0.93 9.21 8.28 9.21 11.98 11.05 21.18 6.44 12.89 5.53c0,0 3.69,7.37 0,15.66 -3.68,8.29 -11.05,13.81 -11.05,13.81l-18.22 10.13 5.33 22.11 -0.92 18.41 -4.41 17.5 -9.41 22.11 0 17.5 3.69 18.42 5.72 15.65 0 15.66 -18.62 13.81 -19.34 -4.6 -23.94 -4.61 -12.9 -4.6 -15.65 -8.29 -11.05 0 -17.5 -5.53 -17.5 -1.84 -11.97 11.05 -17.5 3.69 -14.74 -11.06 -12.89 -5.52 -18.42 -1.84 0 -362.87z" vector-effect="non-scaling-stroke"/>
  </g>
  <g id="w7m0q1Pp-7cnQXLD3uDNW">
   <path class="fil0 str0" d="M250.45 1261.41l12.89 8.29 8.29 11.97 3.68 13.82 0.92 17.5 7.37 14.73 11.97 12.89 16.58 2.77 19.34 -3.68 18.42 0.91 22.1 9.22 17.5 10.13 21.18 10.13 20.27 12.89 10.13 12.9 10.13 25.78 5.52 14.74 0 17.5 -6.45 15.65 -8.28 13.82 -1.84 21.18 0.92 20.26 -13.82 9.21 -21.18 0.92 -23.94 4.61 -11.06 11.05 -2.76 19.34 -0.92 14.89 -5.53 14.58 -11.05 14.73 -17.5 14.74 -16.57 0 -12.9 7.37 -8.29 9.21 -20.26 7.37 -10.13 0.92 -8.29 5.52 -12.83 11.05 -19.4 4.61 -21.18 16.58 -7.37 13.81 -3.69 21.18 -2.76 26.8 4.61 11.97 4.6 15.66 5.53 10.13 0 16.57 -11.06 21.19 -10.12 4.6 -21.19 4.61 -17.5 7.37 -12.89 9.2 -10.13 11.98 10.13 8.29 17.5 4.58 17.5 0 5.52 15.19 1.85 7.84c0,0 -5.53,6.44 -5.53,11.05 0,4.6 1.84,15.65 1.84,15.65l-20.26 6.45 -17.5 3.68 -13.81 9.21 -21.19 3.69 -23.94 1.84 -19.34 6.45 -19.34 4.6 -10.13 0 5.52 -584.69 14.74 -1.84 10.13 3.68 13.81 7.37 11.98 6.45 8.17 -1.84 9.33 -5.53 11.97 -7.37 12.89 1.85 12.9 2.76 14.73 0.92 10.13 5.53 18.42 7.36 17.5 5.53 16.58 4.6 11.97 -2.76 13.81 -7.37 4.67 -13.81 0 -13.82 -8.35 -16.58 -1.84 -17.49 5.52 -23.82 4.67 -16.58 6.39 -36.24z" vector-effect="non-scaling-stroke"/>
  </g>
  <g id="YCjNQZ4gyontNlaSEzMux">
   <path class="fil0 str0" d="M29.34 3140.72l16.58 -11.97 22.1 -6.45 21.07 -8.29 17.61 -8.29 23.03 -3.68 17.5 -5.53 26.71 -11.97 17.49 -7.37 10.13 -4.6 13.82 -5.53 18.42 0 14.73 -6.44 12.9 -4.61 12.89 -6.45 19.34 -3.68 19.34 -0.92 25.79 4.6 18.42 2.77 19.34 0.92 22.35 0.92 16.33 6.45 22.1 6.44 17.5 3.69 -4.6 -16.58 -5.53 -17.5 -2.76 -14.73 -1.84 -16.58 1.84 -15.66 8.29 -21.18 13.81 -26.71 10.13 -13.81 11.05 -18.42 16.58 -14.74 13.82 -13.81 14.73 -15.66 5.53 -20.26 1.84 -20.97 -0.92 -31.53 -0.92 -26.7 0 -25.79 11.97 -23.03 18.42 -21.18 14.73 -14.73 17.5 -5.53 20.26 -11.97 15.66 -12.35 0.92 -17.49 -21.18 -5.53 -11.05 -16.58 14.73 -14.73 7.37 -20.26 0 -15.66 -11.97 -22.1 -12.9 -18.42 -3.68 -11.05 3.68 -22.11 4.61 -20.26 14.73 -11.97 13.44 -11.64 15.65 -5.52 9.21 -11.05 9.21 -13.82 10.13 -9.21 17.5 -2.76 13.9 -1.84 25.7 -5.53 22.11 -3.68 19.33 -5.53 10.13 -5.52 8.29 -12.9 10.13 -6.76 13.82 -12.58 3.68 -12.89 -11.97 -11.97 -11.97 -8.29 -13.82 -11.97 -12.89 -9.21 -5.53 -17.5 2.77 -20.26 -2.77 -21.19 -7.36 -18.42 -9.21 -10.62 -25.79 -32.66 -19.34 -21.36 -6.45 -15.65 -15.65 -14.74 -16.58 -8.29 -11.97 -10.13 0 -17.5 -8.29 -16.58 -23.03 -18 -20.26 -12.39 -20.26 -8.29 -27.73 -10.41 -9.19 -7.37 -18.42 -3.68 -16.58 -4.6 -11.97 -7.37 -11.98 -7.37 -11.97 -8.29 -18.42 1.84 -19.34 -1.84 -11.05 -11.97 -6.45 -6.45 -14.73 -11.97c0,0 -11.98,5.52 -12.9,11.97 -0.92,6.45 -7.37,11.05 -7.37,11.05l-13.81 6.45 -6.45 7.37 -7.36 12.89 -11.98 6.45 -14.73 -7.37 -16.58 0 -18.42 -6.45 -11.97 -6.44c0,0 -12.89,-6.45 -16.58,-7.37 -3.68,-0.92 -29.47,-14.74 -33.16,-14.74 -3.68,0 -15.65,-10.13 -15.65,-10.13l-7.37 -13.81 -9.21 -6.45 -12.89 -4.6 -17.5 -2.77 -13.82 8.29 -16.57 4.61 -17.5 7.36 -23.02 4.61 -15.66 4.6 -35.9 6.45 -17.5 2.76 -5.52 21.19 0.92 34.99 4.13 1120.39z" vector-effect="non-scaling-stroke"/>
  </g>
  <g id="RiHsksglD7aE33breRhTH">
   <path class="fil0 str0" d="M637.76 2635.2l11.05 -11.05 5.53 -15.66 9.21 -12.89 22.1 -3.69 12.9 -3.68 16.57 0 10.13 -3.68 6.45 -6.45 21.18 -7.37 12.9 4.6 11.05 10.14 11.05 0.92 8.29 -13.82 13.81 8.29 6.45 9.21 11.05 -2.76 15.66 -5.53 20.55 -0.92 11.68 -4.6 10.13 -14.74 -2.76 -18.42 12.89 -12.89 17.5 -8.29 20.26 -7.65 17.5 3.97 5.53 -3.97 11.05 -14.45 20.26 0 6.45 -10.14 11.97 -3.68 7.37 9.21 12.89 4.61 13.81 9.21 1.85 11.97 3.68 21.18 9.21 10.13 4.6 11.97 2.77 18.42 0 14.74c0,0 10.13,1.84 11.05,5.53 0.92,3.68 16.58,2.76 16.58,2.76l15.65 7.36 25.79 5.53 8.29 11.05 7.37 15.66 15.65 11.05 21.19 7.37 13.81 14.73 10.13 23.03 8.29 12.89 5.53 24.87 -18.43 15.66 -17.49 10.12 -12.24 17.51 0 12.89 -20.92 20.26 1.84 17.58 19.08 7.37 14.08 12.9 4.6 7.36 8.29 11.98 7.37 9.21 9.21 19.34c0,0 4.6,15.65 3.69,19.34 -0.93,3.68 -5.53,25.78 -5.53,25.78 0,0 -8.29,11.98 -9.21,15.66 -0.92,3.68 -2.77,8.29 -2.77,8.29l-24.86 8.47 -21.18 0 -17.5 11.79 -13.82 17.5 -16.57 23.95 -13.82 24.86 0.92 30.39 12.9 25.04c0,0 7.36,11.98 8.29,14.74 0.92,2.76 1.84,21.18 1.84,21.18l-16.58 4.61 -14.73 8.29 -5.53 15.65c0,0 6.45,15.66 4.6,18.42 -1.84,2.76 -19.34,12.9 -19.34,12.9l-7.37 11.05 -19.33 1.84 -48.82 -10.13 -80.12 -20.26 -43.29 -9.21 -46.97 -11.06 -56.17 -10.12 -47.9 -11.98 -40.52 -14.54 -31.31 0 -38.68 -11.24 -25.79 -9.21 -43.03 -16.58 -29.47 -9.21 -25.79 -3.69 -28.55 -12.89 -6.45 -24.86 -5.52 -23.95 0.92 -27.63 10.13 -25.79 11.97 -25.78 11.97 -16.58 10.13 -15.66 14.74 -15.66 18.42 -17.49 10.13 -12.9 8.29 -16.58 2.76 -24.12 1.84 -20.08 -1.84 -21.18 -2.76 -26.39 0 -17.5 10.13 -18.42 11.97 -17.5 14.74 -12.89 15.65 -8.29 15.66 -8.29 13.81 -8.29 13.82 -9.21 2.51 -20.84z" vector-effect="non-scaling-stroke"/>
  </g>
  <g id="y5jVZEP5incDdIv8bOU48">
   <path class="fil0 str0" d="M649.45 2068.56l9.21 -19.03 3.68 -18.73 6.45 -12.89 19.34 -11.05 24.87 3.68 18.41 5.53 23.03 8.28 24.87 6.45 28.54 -0.92 28.55 -0.92 9.21 9.21 12.9 11.36 14.73 0 17.5 14.43 17.5 8.29 21.18 8.28 18.42 9.21 17.5 1.84 25.79 -1.84 27.45 -1.84 22.84 10.13 22.1 9.21 14.74 14.74 13.81 13.81 17.5 13.82 20.26 5.52 18.42 4.61 18.42 8.28 15.66 12.9 9.21 4.6 0.92 14.74 -10.13 13.82 0 19.33 15.66 13.82 15.65 6.45 17.5 11.97 8.29 11.05 -4.61 14.74c0,0 7.37,13.81 8.29,16.57 0.92,2.77 8.29,22.11 8.29,22.11l-7.37 23.94 -1.84 17.5 -17.5 4.6 -26.7 3.69 -35.92 -3.69 -17.5 -4.6 -22.1 -6.45 -11.06 14.74 4.61 29.47 -12.9 7.37 -15.65 4.6 -18.42 1.84 -15.66 10.14 -18.42 13.81 -11.05 18.42 -11.05 23.95 -15.65 -5.66 -10.14 6.45 -10.13 7.37 -11.05 4.6 -11.05 7.37 -8.29 4.67 -12.89 -4.67 -15.66 4.67 -18.42 10.99 -14.73 10.13 -5.53 8.29 -0.92 17.49 -7.37 11.06 -14.73 3.68 -29.47 7.37 -11.06 -2.76 -8.29 -6.45 -10.13 -8.29 -9.21 8.29 -6.44 6.45 -12.9 -10.14 -11.05 -5.52 -13.81 0.92 -11.98 8.29 -10.13 4.6 -9.21 3.69 -11.97 -3.69 -11.05 4.61 -18.08 3.68 -13.82 5.53 -7.36 10.13 -3.69 13.81 -6.45 11.97 -11.97 -1.84 -11.97 -5.52 -7.37 -8.29 11.05 -19.34 5.53 -20.26 0.92 -14.74 -5.52 -14.73 -9.22 -17.5 -9.21 -11.91 -1.84 -19.4 3.69 -15.66 3.68 -13.82 11.05 -9.21 22.11 -11.05 17.49 -11.97 8.29 -11.97 9.21 -13.82 32.64 -5.52 15.25 -1.85 23.95 -4.6 22.1 -5.52 21.19 -8.29 12.89 -13.82 11.97 -8.41 8.29 -14.61 2.76 -14.74 -6.44 -10.13 -11.98 -8.29 -11.97 -8.29 -10.13 -8.29 -10.13 -4.6 -3.69 -8.29 -0.92 -12.89 0 -21.19 -1.84 -16.57 -3.68 -13.82 -5.53 -13.19 -15.66 -14.42 -7.36 -11.05 -14.74 -12.89 -7.36 -9.21 -13.82 -17.5 -3.68 -10.13 -11.06 -10.13 -14.73 -9.21 -9.21 -4.61 -6.45 -6.44 0 -17.5 -7.34 -12.79z" vector-effect="non-scaling-stroke"/>
  </g>
  <g id="_4EiXOaLN6mlGr7QpGfyY7">
   <path class="fil0 str0" d="M443.42 1511.9l17.5 -4.6 12.89 1.84 16.58 6.45 18.42 5.52 19.34 7.37 18.42 12.89 12.89 19.35 11.05 16.57 10.13 23.03 7.37 11.97 8.29 10.13 15.66 3.69 12.89 1.84 16.58 1.84 29.47 1.84 19.34 11.05 18.48 13.82 22.96 7.37 19.34 10.12 15.66 17.5 21.18 11.05 14.74 11.98 13.81 14.73 9.21 10.51 -2.76 18.96 -5.52 18.42 0 18.42 12.89 16.58 27.63 11.05 18.42 14.74 22.1 -0.92 17.5 -3.69 17.5 6.45 15.65 12.89 11.98 16.58 1.84 25.43 10.13 18.78 -5.53 25.78 -0.92 21.19c0,0 -2.76,10.13 -6.44,10.13 -3.69,0 -22.11,1.84 -22.11,1.84 0,0 -18.42,-3.68 -22.1,-3.68 -3.69,0 -17.5,0 -17.5,0l-11.97 16.57 -5.53 23.95 -12.89 13.81 -18.42 7.37 -15.66 -1.84 -29.47 -2.76 -16.58 0 -26.7 -3.69 -23.95 -8.29 -19.34 -9.21c0,0 -17.5,-3.68 -21.18,-3.68 -3.69,0 -15.66,1.84 -15.66,1.84l-12.89 12.9 -10.13 12.89 -4.61 16.58 -4.6 17.49 -22.11 -13.06 -15.65 -15.49 -18.42 -8.28 -19.34 -8.29 -19.47 -8.29 -20.13 -5.53 -20.26 -6.44 -18.42 -9.21 -11.98 -9.21 -12.89 -6.45 -14.74 2.76 -14.73 -1.84 -10.13 -7.37 -10.13 -10.13 -7.37 -8.29 -9.21 -4.6 -11.05 6.45 -7.37 8.28 -5.53 10.14 -12.89 6.44 -8.29 11.97 -8.29 8.29 -5.52 4.61 -11.98 -5.53 -16.57 -3.68 -11.98 -2.77 -17.49 -8.28 -8.29 -3.69 -24.51 -9.21 -20.26 -8.29 -11.05 -8.28 -6.45 -12.9 -8.29 -8.29 -11.05 -4.6 -12.89 -1.84 -9.21 -2.77 0 -12.89 0 -18.42 -5.53 -9.21 -10.13 -2.76 -12.89 -2.77 -12.9 -3.68 -5.52 -5.53 8.29 -12.89 12.89 -4.6 24.87 -10.13 21.18 -7.37 11.97 -17.5 0.92 -16.58 -4.6 -17.5 -4.61 -12.89 -5.52 -11.97 0 -12.52 3.68 -31.69 12.9 -18.42 16.57 -11.97 17.57 -2.76 12.83 -11.05 8.28 -7.37 16.58 -1.84 14.74 -10.14 13.81 -10.12 14.74 -3.69 12.89 -5.52 11.05 -10.14 15.66 -17.5 6.45 -12.7 0.92 -24.13 6.44 -14.74 10.13 -7.37 19.35 -0.92 19.34 -3.68 14.73 -6.45 1.48 -15.66z" vector-effect="non-scaling-stroke"/>
  </g>
  <g id="satu">
   <polygon class="fil0 str0" points="177.8,1120.12 205.3,1106.71 225.92,1097.55 244.03,1088.38 244.03,1065.47 262.58,1040.26 285.5,1028.81 294.67,1033.39 313,1056.3 324.46,1076.93 329.04,1097.55 334.2,1120.12 334.2,1139.69 339.72,1145.22 352.61,1143.38 370.11,1140.62 378.4,1131.41 383.93,1120.12 394.98,1102.86 403.27,1090.88 414.32,1087.2 429.98,1086.28 447.47,1087.2 454.84,1096.41 463.13,1104.7 466.81,1111.15 477.87,1112.99 490.76,1113.91 506.42,1114.83 520.23,1112.99 524.83,1120.12 524.83,1134.17 516.55,1144.3 504.57,1156.27 490.76,1164.56 483.39,1173.77 477.87,1184.82 477.87,1198.64 485.23,1215.21 497.21,1217.06 509.18,1218.9 524.83,1222.58 536.81,1232.71 544.18,1246.53 553.84,1255.74 568.12,1252.98 583.78,1252.98 589.3,1262.18 592.99,1283.37 599.43,1298.1 610.48,1310.08 627.6,1322.97 647.86,1335.86 661.67,1345.07 678.25,1356.12 696.67,1368.1 708.75,1375.46 718.77,1375.46 734.43,1380.99 748.24,1382.83 769.43,1381.91 778.64,1374.54 793.37,1379.15 795.21,1392.96 790.61,1409.54 777.72,1429.93 787.85,1440.85 807.19,1452.82 823.76,1459.27 839.42,1455.59 852.31,1456.51 872.58,1469.4 893.76,1482.47 910.34,1488 921.39,1503.65 936.12,1515.63 952.7,1530.36 967.44,1538.65 984.93,1546.02 988.62,1562.59 992.3,1580.1 996.91,1591.15 1007.96,1604.04 1006.12,1616.01 991.38,1623.38 979.41,1627.07 964.67,1634.43 960.07,1646.4 956.38,1659.3 941.65,1663.9 925.07,1664.82 909.41,1667.59 898.36,1674.03 889.15,1680.48 877.18,1686.93 857.84,1693.37 843.11,1697.98 830.21,1705.35 816.4,1714.56 803.5,1713.63 786.93,1702.58 769.43,1694.3 761.14,1685.09 750.09,1671.27 735.35,1664.82 714.17,1658.38 696.67,1647.33 681.94,1635.35 664.44,1630.75 636.81,1628.91 603.65,1624.3 586.16,1605.88 573.26,1578.25 560.37,1560.75 549.32,1546.94 536.42,1534.97 517.08,1525.76 493.14,1514.71 475.64,1510.1 460.9,1510.1 443.4,1515.63 442.48,1500.89 444.33,1478.79 452.61,1457.6 455.38,1429.93 448.01,1411.56 435.11,1387.61 421.3,1374.72 398.93,1363.66 382.22,1354.78 367.48,1346.49 350.9,1340.96 335.25,1337.28 317.75,1342.8 302.09,1340.04 285.52,1328.99 279.07,1309.65 274.47,1290.31 268.94,1275.03 260.65,1264.52 248.68,1253.47 259.73,1240.58 271.7,1231.36 275.38,1219.39 270.78,1208.34 253.28,1199.13 235.78,1191.76 225.65,1182.55 218.28,1167.82 215.52,1150.32 201.71,1143.87 186.97,1135.58 " vector-effect="non-scaling-stroke"/>
  </g>
  <g id="_27euAEk3u12p4I3Qa8vPL">
   <path class="fil0 str0" d="M1187.94 2663.44l22.1 5.77 25.79 8.04 21.18 11.06 17.5 15.65 23.03 12.9 22.1 15.65 23.03 6.45 26.7 8.29 24.87 7.37 17.5 11.97 17.5 10.13 25.78 18.42 8.29 22.1 19.97 1.85 14.11 -4.61 17.5 -0.92 17.49 -1.84 11.98 -15.66 18.42 -20.26 11.97 16.58 5.53 15.65 6.44 21.18 15.66 12.9 23.94 10.13 25.79 3.68 12.11 11.05 5.52 16.58 0 26.71 -2.76 20.26 7.37 23.95 9.21 24.55 19.34 15.97 15.65 12.89 17.5 3.69 16.58 8.29 5.53 13.81 -3.69 12.89 -17.49 6.45 -11.06 23.95 2.77 22.1 -1.85 16.58 -20.26 0 -14.73 6.44 -10.13 15.66 -15.66 14.74 -19.34 1.84 -18.42 3.68 -19.34 0.92 -26.71 -2.76 -25.79 -1.84 -9.21 -6.45 -28.55 -3.68 -14.73 14.73 -7.37 29.47c0,0 -14.24,15.66 -13.32,21.18 0.92,5.53 4.11,22.11 4.11,22.11l-20.26 11.14c0,0 -11.05,12.89 -14.74,11.97 -3.68,-0.92 -12.89,-7.37 -12.89,-7.37l-11.97 -5.52 -15.66 18.42 -3.68 16.57 -48.81 -11.97 -37.76 -7.37 -31.32 -1.84 -28.55 -8.29 -35.92 -5.52 -38.68 -7.37 -48.81 -3.68 -35.92 -4.61 -31.76 -0.92 -21.18 -2.76 20.26 -12.9 17.5 -9.21 4.6 -11.97 -1.84 -13.81 1.84 -11.98 9.22 -4.6 13.81 -5.53 9.21 -8.29 -0.92 -21.18 -8.29 -12.89 -7.37 -11.97 -7.36 -13.82 0 -21.18 5.52 -18.42 7.37 -12.89 9.21 -11.06 10.13 -15.65 9.21 -11.97 9.21 -6.45 9.21 -7.77 21.18 0 18.42 -4.2 10.13 -11.05 5.53 -13.82 5.52 -12.89 2.76 -14.74 -1.84 -18.42 -5.52 -13.81 -6.45 -14.74 -8.29 -9.21 -6.45 -9.21 -7.36 -11.05 -14.17 -8.29 -12.54 -6.45 -3.69 -7.03 3.69 -14.15 12.54 -11.97 4.04 -13.81 12.89 -17.5 18.42 -11.98 14.73 -11.05 0.93 -20.65 -4.61 -13.81 -11.97 -15.66 -7.37 -12.89 -12.58 -17.2z" vector-effect="non-scaling-stroke"/>
  </g>
  <g id="E91avsQ1vb17MhGMzlph2">
   <path class="fil0 str0" d="M1250.23 2359.36l15.66 12.35 11.05 11.98 16.57 12.89 18.42 6.45 16.42 2.76 13.98 -1.84 14.73 6.45 18.42 9.21 14.74 5.52 26.7 9.21 7.37 12.9 1.84 15.65 9.21 15.66 13.82 9.21c0,0 11.97,11.97 11.97,14.73 0,2.77 3.69,11.78 3.69,11.78l12.89 17.7 16.58 15.65 18.42 9.21 8.29 7.37 0.92 15.65 -7.37 10.14 -9.21 13.81 -5.53 17.5 -10.13 29.47 -6.43 18.4c0,0 -11.07,11.99 -13.83,12.91 -2.76,0.92 -32.23,10.13 -32.23,10.13l-27.63 15.66 -21.19 11.05 -29.47 15.66 -17.49 1.84 -25.79 -11.05 -22.11 -13.82 -21.18 -14.73 -22.1 -14.74 -21.18 -9.21 -16.58 -3.7 -17.5 -7.35 -21.53 -5.53 -19.91 -9.21 -8.29 -11.97 -6.45 -13.81 -10.13 -6.45 -16.57 -4.6 -11.06 -5.53 -11.97 -1.84 -10.13 -0.92 -11.05 -5.53 -2.76 -9.21 -3.69 -15.65 -3.68 -16.58 -10.13 -12.9 -5.53 -16.57 -1.84 -15.66 -14.74 -7.37 -12.89 -10.13 5.91 -21.18 16.19 -21.18 13.82 -11.05 16.58 -6.45 13.81 -8.29 20.26 -4.6 13.81 -5.53 4.61 -13.81 -3.68 -13.82 3.68 -12.89 6.45 -5.53 22.1 6.45 20.26 5.53 14.74 4.6 22.1 0 11.05 -2.76 13.82 -3.69 11.05 -5.52 11.05 -13.28z" vector-effect="non-scaling-stroke"/>
  </g>
  <g id="AKm79wabgyFb75a4oeVlJ">
   <polygon class="fil0 str0" points="1189.47,2177.64 1203.28,2163.83 1211.57,2152.78 1227.23,2138.04 1246.57,2127.91 1258.54,2137.12 1267.75,2152.78 1283.41,2164.75 1297.22,2170.28 1315.64,2175.8 1335.9,2182.25 1351.56,2197.91 1369.98,2204.46 1384.71,2199.75 1403.13,2204.46 1409.58,2225.54 1410.5,2243.03 1415.1,2260.53 1411.42,2272.51 1398.53,2280.79 1388.4,2298.29 1379.19,2317.63 1379.19,2338.81 1383.79,2354.47 1393,2365.52 1417.87,2367.36 1438.13,2365.52 1458.39,2359.36 1474.97,2359.36 1466.68,2377.5 1448.26,2386.71 1418.79,2393.15 1391.16,2394.07 1371.82,2402.36 1354.32,2408.81 1336.82,2406.05 1311.95,2401.44 1293.54,2393.15 1280.64,2383.94 1271.43,2374.73 1257.62,2363.68 1249.33,2355.39 1250.25,2334.21 1250.25,2315.79 1241.04,2298.29 1241.96,2277.11 1236.44,2268.82 1226.31,2256.85 1214.33,2251.32 1195.91,2241.19 1182.1,2231.06 1183.02,2212.64 1192.23,2196.98 " vector-effect="non-scaling-stroke"/>
  </g>
  <g id="dua">
   <polygon class="fil0 str0" points="1396.72,2197.49 1410.53,2187.36 1428.03,2173.54 1442.77,2169.86 1469.48,2179.07 1483.31,2193.8 1498.95,2213.14 1504.47,2221.44 1514.6,2233.41 1533.94,2246.3 1551.44,2250.9 1553.29,2263.8 1552.36,2277.61 1563.42,2296.95 1578.15,2312.61 1589.2,2323.66 1606.7,2345.76 1616.83,2366.95 1620.52,2384.45 1632.49,2400.1 1634.33,2419.44 1638.22,2440.63 1646.3,2460.89 1653.67,2473.78 1655.51,2487.59 1633.41,2494.04 1608.54,2489.44 1581.84,2486.67 1555.13,2479.3 1530.26,2466.41 1511.84,2452.6 1490.66,2444.31 1471.32,2437.86 1450.14,2438.78 1424.35,2439.7 1407.77,2431.42 1392.11,2424.05 1362.65,2412.07 1382.91,2401.02 1406.85,2394.57 1435.4,2394.57 1465.79,2378.92 1483.31,2359.35 1468.56,2359.35 1449.21,2359.35 1428.03,2359.35 1402.25,2359.35 1384.75,2350.37 1380.14,2332.87 1383.82,2305.24 1400.4,2282.22 1416.06,2266.56 1414.22,2229.72 1409.61,2214.07 " vector-effect="non-scaling-stroke"/>
  </g>
  <g id="XypghiHRaJ4X_gAi_cbJY">
   <path class="fil0 str0" d="M1260.39 2133.37l21.18 -11.98 22.1 -7.36 10.13 -13.82c0,0 9.21,-14.73 10.13,-18.42 0.92,-3.68 12.9,-24.86 12.9,-24.86l7.36 -11.98 10.13 -20.26 15.66 -20.26 11.05 -14.73 20.26 -10.13 1.84 -13.82 -11.05 -15.65 6.45 -20.27 10.13 -14.73 24.87 -20.46 25.78 -12.7 23.97 -15.21 18.4 2.77 16.58 9.21 15.65 2.76 3.69 -22.11 2.76 -23.02 10.13 -18.42 9.21 -23.02 7.37 -30.39 -7.37 -19.35 -18.42 -18.42 -11.97 -18.41 1.84 -18 -13.81 -14.73 0.92 -14.74 -10.14 -25.79 0.93 -19.34 -8.29 -16.57 -22.11 -4.61 -18.41 12.9 -23.95 4.6 -23.95 -11.05 -9.21 -21.38 -0.92 -18.42 -11.05 -13.81 -20.26 -8.29 -25.79 -6.45 -16.74 -23.94 -13.65 -19.34 -20.26 -10.14 -12.89 8.3 -9.21 12.89 -9.21 14.73 -12.9 9.21 -11.05 13.82 -0.92 13.81 13.82 14.74 11.05 18.1 8.29 14.13 7.36 11.05 6.45 14.74 -4.6 20.26 -13.82 8.29 -24.87 4.6 -19.33 9.22 -11.98 11.05 -8.29 11.97 -15.65 9.21 -13.25 9.21 -15.3 -3.69 -18.42 0 -13.82 3.69 -11.05 9.21 -11.05 6.44 -14.74 -7.37 -18.41 -11.05 -11.06 -15.65 -11.97 -21.18 -10.13 -18.42 -11.97 -15.66 -15.66 -19.34 -13.45 5.52 -13.82 5.53 -11.05 3.68 -11.05 9.21 -1.84 15.66 -6.45 8.29 -15.66 1.84 -19.34 2.76 -11.97 2.77 -11.05 11.97 -7.37 4.61 -14.73 5.52 -19.34 2.76 -13.82 6.45 -11.97 6.45 -16.58 8.28 12.9 15.66 5.52 13.82 -7.37 17.49 0 14.74 0.92 19.34 9.21 12.89 17.5 7.37 21.19 16.58 16.57 0.92 28.55 -3.68 17.5 4.6 13.82 13.82 19.34 13.81 0 19.34 0.92 11.1 6.44 17.45 0 15.66 -2.76 14.73 -4.6 20.27 -4.61 10.13 -19.34 1.84 -23.02 -1.84 -11.97 -2.77 -10.14 6.45 -6.44 11.05 -5.53 17.5 -9.21 14.82 -12.13 7.37 -11.81 5.53 11.81 16.72 11.21 -4.75 14.73 12.89 12.9 9.21 27.63 12.9 23.95 7.36 24.86 0 35.92 -1.84 21.18 8.29 25.79 8.29 18.42 16.58 22.1 19.83 19.34 8.29 20.26 6.45 18.42 11.97 17.5 11.97 12.89 -1.84 11.06 -10.13 11.97 -16.58 11.97 -11.97 18.42 -9.21 16.22 6.11z" vector-effect="non-scaling-stroke"/>
  </g>
  <g id="KY6w06f3NUjcuxLdqRTGE">
   <path class="fil0 str0" d="M1276.08 825.49l25.79 -15.17 17.5 0 12.89 -6.93 17.5 -6.45 19.34 4.6 7.36 20.27 11.06 18.42 11.05 7.36 19.34 4.61 20.26 7.36 7.37 14.74c0,0 -15.66,5.53 -14.74,9.21 0.92,3.69 8.29,11.97 8.29,11.97l0 19.34 9.21 20.27 3.69 24.86 11.05 19.34 20.28 27.63 11.95 11.97 23.02 10.13 -3.68 14.74c0,0 13.82,14.73 16.58,16.58 2.76,1.84 12.89,19.34 12.89,19.34l2.76 14.73 25.79 11.05 11.98 14.67 4.6 12.04 -1.84 11.05 -0.92 12.9 3.68 23.94 19.34 12.9 13.82 -3.69 14.93 10.13 -20.46 15.66 -16.58 17.5 -11.05 23.02 -7.37 27.63 9.21 15.66 15.66 7.37 16.58 -7.37 14.01 4.6 23.75 -11.05 22.1 17.48 15.66 13.82 16.58 15.65 16.08 13.9 18.41 8.29 0.93 13.82 11.05 13.81 -11.05 9.21 -17.5 -3.68 -18.42 9.21 11.97 13.81 4.61 19.34 -16.58 17.5 -23.95 23.03 -4.6 20.26 -8.29 26.28 -4.61 18.42 -17.5 -5.53 -18.64 -1.84 -20.96 7.37 -11.97 11.97 -15.66 7.37 -18.41 1.84 -20.26 2.76 -17.51 8.29 -15.65 13.82 -11.05 13.81 -17.5 -4.6 -13.82 0 -22.1 11.05 -20.26 0 -18.42 -8.29 -11.97 -15.74 -1.84 -22.02 -2.77 -12.9 -12.89 -8.28 -19.34 -5.53 -17.5 -8.29 -11.97 -11.97 -19.34 -23.95 -12.9 -8.28 -13.81 -2.77 2.76 -19.34 -15.65 -16.58 -16.58 -14.99 0 -18.16 0 -17.5 -15.12 -4.6 -14.73 5.52 -19.34 -2.76 -16.58 -9.21 -11.97 -13.81 -0.92 -20.27 0.92 -18.42 -5.53 -13.81 -9.21 -9.21 -15.65 -6.45 -18.42 -2.76 -11.97 -6.45 -6.45 -17.02c0,0 -11.05,-10.6 -11.97,-6 -0.93,4.61 -12.9,-11.05 -12.9,-11.05l-3.68 -12.9 -11.05 -12.89 -10.13 -17.5 -11.06 -1.84 -12.89 -4.6 -23.6 -15.66 -10.48 -12.89 -12.89 -9.21 -16.57 -12.9 -8.3 -11.05 -3.68 -17.5 5.53 -20.26 -1.85 -9.21 -14.73 -9.21 -14.74 -7.24 -16.57 -10.13 -2.77 -12.9 16.58 -11.97 19.34 -11.97 11.05 -17.5 11.98 -18.42 14.73 -14.73 18.42 7.36 18.42 0.93 19.34 -9.21 10.13 -14.74 0 -11.05 2.76 -17.5 11.98 -10.13 14.73 -1.84 10.13 -12.9 11.97 -7.36 19.35 -2.77 18.42 -4.69 12.89 -10.13 9.73 -13.82 5.93 -6.44 11.97 10.13 13.81 -10.13 12.9 -9.21 15.65 -5.53 11.97 -2.76 19.35 2.76 9.21 -5.52 1.79 -25.47z" vector-effect="non-scaling-stroke"/>
  </g>
  <g id="_FDd83y98r85az1DIX4w1">
   <path class="fil0 str0" d="M1002.6 178.13l26.71 0.92 15.66 11.63 23.02 0 37.76 0 11.06 16 10.13 23.95 22.1 1.84 20.26 -8.29 37.76 -2.76 23.95 -2.76 25.78 6.44 33.16 22.11 15.66 6.44 22.81 -24.87 12.18 -15.65 19.34 -7.37 30.39 1.84 11.75 11.06 18.42 -0.93 25.78 -11.05 18.43 8.29 18.61 11.05 26.51 10.13 24.87 10.13 12.89 18.42 12.9 11.98 20.26 14.73 17.49 19.34 17.5 -2.76 14.74 -13.82 15.66 -5.52 24.86 1.84 26.71 2.76 7.37 19.34 14.73 8.29 23.95 10.13 19.34 14.57 11.97 13.98 8.29 23.95 -0.92 8.29 10.7 33.15 0 25.79 0 25.78c0,0 4.03,11.06 4.03,20.27 0,9.21 6.45,27.63 6.45,27.63l14.74 18.42 8.29 20.26 4.6 8.29 8.29 14.73 17.5 -5.52 19.34 -11.98 12.87 14.74 8.29 8.29 -12.9 11.97 1.85 14.74 -11.05 5.52 -15.66 4.61 -4.61 20.26c0,0 4.61,13.81 4.61,17.5 0,3.68 -2.76,14.73 -5.53,15.65 -2.76,0.92 -18.42,9.21 -18.42,9.21l-20.26 8.29 -11.97 9.21 -16.58 20.26 -23.94 16.65 -15.66 12.89 -17.5 7.37 -1.84 27.63 -13.82 11.05 -23.94 11.97 -13.82 22.11 -2.76 18.42 4.61 12.89 -1.85 11.97 19.35 13.82 19.33 14.73 1.85 8.29 -3.69 24.44 -2.76 22.11 -9.21 15.65 -12.89 13.81 -6.45 11.06 -7.37 25.78 -11.05 26.28 -0.92 23.95 8.29 15.66 9.21 22.72 2.76 22.49 5.53 14.74 -13.82 13.81 -14.73 13.81 -21.7 13.82 -8.7 -6.45 -11.97 -1.84 -11.05 -0.92 -11.97 -11.05 -4.61 -14.73 -0.92 -23.95 -3.68 -19.73 -7.37 -12.5 -14.74 -9.21 -12.89 -8.29 -12.89 -22.11c0,0 -7.37,-12.89 -10.13,-13.81 -2.77,-0.92 -8.29,-11.97 -8.29,-11.97l1.84 -11.98 -11.97 -8.29 -18.42 -11.97 -23.95 -23.94 -10.13 -20.84 -4.6 -22.45 -8.29 -26.71 -0.92 -19.34 -8.29 -14.73 16.57 -10.13 -10.12 -14.74 -11.98 -4.6 -28.55 -6.45 -12.89 -12.89 -11.05 -17.5 -4.61 -12.9 -17.49 -8.28 -20.27 6.44 -15.9 9.38 -15.65 0 -13.82 12.43 -15.66 5.52 -13.81 -10.13 -10.13 -14.74 -10.13 -15.65 -7.37 -18.42 -3.68 -14.74 -6.45 -17.5 -12.89 -11.05 -11.98 -10.13 -16.57 -7.37 -20.26 -5.52 -12.9 -3.68 3.69 -13.82 16.57 2.76 14.74 -15.65 -18.42 -7.37 2.76 -18.42 -6.44 -10.13 -25.79 -4.61 -12.9 1.85 -21.18 3.68 -19.34 -3.68 0.92 -16.58 19.34 -11.96 -5.52 -9.21 -15.66 -7.36 -18.42 -6.45 -10.13 -9.21 0 -15.66 18.42 -5.52 17.5 -2.77 -8.29 -15.65 -3.68 -8.29 -18.42 -6.45 -12.9 3.69 -10.13 17.49 -14.82 13.82 -22.01 -5.53 0.91 -17.49 13.82 -8.29 -13.82 -11.98 -0.91 -20.26 16.57 5.53 5.44 15.66 16.66 -10.98 -11.97 -21.75 6.45 -16.58 19.34 -19.34 13.81 -17.5 4.61 -19.34 -26.71 -1.84 -22.19 -4.61 16.66 -24.03 5.53 -22.1 -0.92 -7.82 -21.27 -6 -18.33 6 -11.97 -8.76 10.13 -12.89 27.63 -10.13 11.97 -8.29 -14.74 -15.23 -20.26 -6.45 -8.29 -12.89 23.86 -5.53 0 -15.66 -20.17 -1.84 -13.82 -8.29 17.5 -13.81 4.6 -11.97 -6.44 -11.05 -9.21 -6.45 11.54 -18.21z" vector-effect="non-scaling-stroke"/>
  </g>
  <g id="fu6Dn69sDGW2IGjGC_V84">
   <path class="fil0 str0" d="M1700.42 288.22l32.23 -1.84 16.58 -11.97 29.47 -6.45 30.39 -1.84 40.52 -0.92 33.16 0 22.1 -13.82 32.24 -12.89 31.31 8.29 26.71 19.34 34.07 7.36 27.63 5.53 22.1 0 20.26 -5.53 14.74 -11.05 20.26 -9.21 31.32 0 28.79 -5.52 21.18 -6.45 35.92 0 32.23 7.37 32.24 -1.84 29.47 0 20.26 8.29 27.63 -6.45 46.97 0.92 -4.6 556.23 -33.16 11.97 -30.39 0 -38.68 1.84 -34.08 -2.76 -19.34 5.53 -40.52 12.89 -32.23 13.82 -25.79 4.6 -25.79 -11.05 -22.1 -6.45 -30.58 -13.81c0,0 -3.5,-13.91 -14.55,-12.06 -11.05,1.84 -37.76,9.29 -37.76,9.29l-11.05 21.18 -25.79 2.77 -30.39 -8.29 -28.55 -2.76 -13.82 11.05 -22.1 15.65c0,0 0,20.27 -2.76,21.19 -2.77,0.92 -21.19,0.92 -21.19,0.92l-26.7 -6.45 -36.01 -12.89 -22.1 -6.45 -17.04 -12.89 -21.64 -15.66 -18.42 -16.66 -19.34 -13.73 -5.53 -15.66 5.53 -15.65 30.39 -18.42 23.94 -15.66 19.35 -19.34 24.86 -14.74 23.95 -14.73 5.52 -12.89 -3.68 -14.09 0 -19.99 18.42 -11.97 10.13 -10.13 2.76 -10.14 11.05 -11.97 -15.65 -13.81 -6.45 -6.45 -16.58 8.29 -20.26 4.6 -11.05 -12.89 -7.37 -21.18 -7.37 -13.82 -12.89 -12.89 -2.76 -22.56 -6.91 -17.96 0 -16.58 4.14 -25.79 -4.14 -23.92 -6.91 -18.42 -1.84 -19.34 -6.44 -15.66 -9.21 -17.23 -14.74 -9.48 -15.66 -9.21 -17.5 -5.52 -16.57 -10.13 -3.84 -23.01z" vector-effect="non-scaling-stroke"/>
  </g>
  <g id="NImcY81r_Pu96rNaVePRv">
   <path class="fil0 str0" d="M2434.52 805.29l0 58.95 -0.92 435.79 -14.73 27.63 -25.79 15.65 -31.31 6.45 -35.92 0.92 -30.39 0c0,0 -25.79,-0.92 -28.55,0 -2.77,0.92 -32.24,0 -32.24,0l-21.18 5.53 -24.86 11.05 -31.32 11.97 -34.07 23.95 -31.32 20.26c0,0 -16.57,25.79 -17.49,30.39 -0.93,4.61 -19.34,29.47 -19.34,29.47l-19.35 11.05 -36.83 -1.84 -20.26 -13.81 -15.66 -18.42 -14.95 -6.45 -24.65 -5.53 1.84 -18.39 11.05 -12 7.37 -12.89 4.39 -21.18 6.66 -25.79 6.45 -24.86 1.84 -28.56 -14.95 -24.86 -20.05 -23.95 -10.13 -36.84 -13.82 -3.68 -13.81 13.81 -29.85 0.93 -19.34 -6.45 -21.18 1.84 -26.72 0.92 -28.54 -0.92 -16.58 2.77 -14.73 9.2 -24.87 10.13 -8.29 -11.05 -12.89 -15.65 -17.5 3.68 -18.42 12.89 -13.09 14.74 -24.67 13.81 -14.73 -2.76 -7.37 -12.89 15.65 -21.19 20.27 -16.57 21.18 -18.42 16.57 -11.98 23.03 -22.1 -2.76 -23.94 -3.69 -21.19 -9.21 -20.26 -8.28 -21.18 7.36 -26.71 14.74 -35 11.97 -23.02 12.89 -18.42 6.45 -26.28 1.84 -14.74 -2.76 -14.73 -5.53 -10.13 -12.89 -11.05 -16.58 -9.21 -4.6 -11.05 0 -15.66 4.6 -24.87 11.06 -15.65 11.05 -6.67 11.97 -7.15 11.05 -5.52 14.74 5.52 16.57 13.82 12.9 11.97 22.09 18.42 12.9 9.21 16.58 6.45 17.5 8.28 12.89 4.61 17.5 4.6 10.13 0.92 23.95 6.45 17.5 -11.05 1.84 -17.5 14.73 -12.89 13.82 -10.13 19.34 0 23.02 6.44 23.95 3.69 19.34 -1.84 6.45 -6.45 5.52 -12.89 12.9 -5.53 18.41 -3.68 11.91 -0.93 9.63 10.14 8.79 6.44 16.57 7.37 26.71 8.29 13.82 7.36 13.81 2.77 21.18 -4.61 28.55 -11.05 19.34 -8.28 13.82 -4.61 14.73 -4.61 15.66 -4.6 14.74 0.92 23.94 1.84 20.26 0 17.5 -0.92 20.26 0 13.82 -1.84 28.07 -14.42z" vector-effect="non-scaling-stroke"/>
  </g>
  <g id="_4uC6VEZhdCqV_9_XH0x4X">
   <path class="fil0 str0" d="M1733.25 1441.36l13.82 3.68 13.81 3.68 16.58 13.82 10.13 20.26 -3.68 25.79 2.76 26.7 6.46 22.11 13.8 21.68 9.21 24.86 6.45 15.66 11.05 23.02 12.9 11.05 11.05 15.66 14.73 1.84 9.21 -10.13 5.53 -16.57 2.76 -14.74 7.37 -13.82 22.1 -3.68 35 2.76 23.94 -12.89 35 -17.26 23.03 -6.69 33.15 -6.44 17.5 8.29 3.68 15.65 12.35 11.98c0,0 13.44,8.28 18.04,12.89 4.61,4.6 12.9,12.89 12.9,12.89l11.97 17.5 11.97 14.74 -2.76 11.05 -13.81 8.29 -11.06 10.13 -11.05 14.82 6.45 17.5 7.37 16.58 15.65 3.68 15.66 1.84c0,0 11.97,6.45 13.81,10.13 1.85,3.69 4.61,11.06 3.69,14.74 -0.92,3.68 -10.13,16.58 -10.13,16.58l-14.74 11.97 -11.05 13.81 -2.76 23.52 14.73 18.42 6.45 19.34 1.84 16.61 10.13 16.33 0 12.9 13.82 13.81 15.65 11.05 16.53 10.52 10.13 12.9 6.45 12.89 4.61 17.5 14.42 10.13 23.33 11.97 29.48 1.84 30.39 0 24.86 -7.37 16.58 -5.52 18.42 0 23.03 11.05 11.05 3.68 -1.85 -724.23 -15.65 23.95 -11.97 13.81 -36.84 9.21 -25.79 0 -26.71 1.85 -39.6 -0.93 -23.02 0 -24.87 1.84 -21.18 6.45 -21.18 7.37 -22.11 11.05 -17.5 9.21 -11.97 8.29 -13.81 9.21 -18 11.05 -10.55 8.29 -7.37 11.97 -9.21 18.42 -12.89 20.26 -11.98 13.82 -19.34 8.29 -29.47 -2.77 -20.26 -9.21 -10.13 -13.81 -11.05 -11.97 -17.5 -7.37 -20.26 -1.84 -2.77 -20.62 9.22 -12.54 10.13 -15.65 8.52 -29.48 8.97 -34.07 4.61 -26.71 -13.58 -24.87 -10.36 -15.65 -12.9 -15.66 -4.61 -11.97 -1.84 -14.74 -9.21 -10.13 -10.13 4.61 -4.6 7.36 -27.63 0 -13.82 0 -10.13 -3.68 -23.94 0 -11.05 0 -28.5 0 -18.43 3.68 -11.05 0 -5.52 5.53 -13.82 9.21 -18.42 4.61 -7.37 -4.61 -8.28 -9.21 -7.37 -11.97 -12.89 0.92 -11.98 5.52 -8.29 9.21 -9.21 12.9 -12.89 7.37 -13.81 8.28 -9.21 -0.92 -11.98 -4.6 -5.52 -5.53 -4.61 12.9 -0.92 14.73 14.74 15.66 13.81 -2.77 11.06 -0.92 10.87 2.77 18.59 -10.13 17.51 11.05 13.81 9.21 11.97 10.13 15.66 11.05 13.81 11.05 8.29 9.21 12.89 6.45 5.53 6.45 1.84 10.13 5.53 8.28 0.92 11.06 -7.37 11.05 -11.97 -4.61 -10.13 -0.92 -11.97 7.37 4.6 11.97 5.52 23.05z" vector-effect="non-scaling-stroke"/>
  </g>
  <g id="otbWQBCN3raTbsNHQ7XUp">
   <path class="fil0 str0" d="M1552.71 1812.94l18.42 -1.84 14.74 8.29 19.33 22.11 14.74 8.29 18.25 23.02 17.67 21.85 9.21 25.12 10.13 20.26 9.21 18.42 13.82 17.5 18.41 16.58 17.5 9.21 12.9 11.05 0 18.42 20.26 22.1 25.79 12.79 0 13.81 22.1 2.76 35.92 -7.36 14.73 -8.29 40.52 4.6 41.64 0.92 19.15 -4.6 28.55 0 12.89 -13.82 16.58 -12.89 26.71 -3.68 30.39 7.37c0,0 17.88,2.79 20.64,4.64 2.76,1.84 24.49,13.77 24.49,13.77l26.7 14.74 24.87 19.34 23.95 -6.45c0,0 7.36,-18.42 10.13,-18.42 2.76,0 15.65,-5.52 15.65,-5.52l10.27 0 18.85 -9.21 10.62 -8.25 7.37 -9.25 1.84 -11.97 -8.29 -9.21 -11.54 -9.21 -14.25 -9.21 -5.52 -14.74 -8.29 -18.42 -23.03 -22.1 -17.49 -8.29 -13.82 -18.42 -1.84 -15.66 -9.21 -8.43 0 -21.96 -8.29 -13.81 -13.81 -17.5 3.68 -18.42 4.61 -14.73 13.81 -11.98 11.05 -14.73 5.53 -12.9 -4.61 -12.89 -13.81 -8.29 -13.82 -1.84 -13.81 -5.86 -6.45 -11.64 -8.29 -20.26 13.82 -12.89 16.58 -15.66 9.21 -12.89 -11.98 -16.58 -11.05 -16.58 -14.74 -14.74 -19.09 -10.12 -8.53 -11.98 -3.69 -18.42 -11.97 -7.36 -13.82 0 -13.81 2.76 -20.26 7.37 -19.34 4.09 -19.34 6.96 -17.5 11.05 -12.9 6.45 -13.75 4.6 -20.32 -1.84 -14.74 0 -15.65 3.68 -10.13 12.9 -2.77 13.81 -6.44 16.58 -7.37 11.05 -12.89 -1.84 -7.37 -10.13 -11.98 -11.98 -8.28 -11.97 -8.29 -16.57 -10.13 -23.03 -10.13 -20.26 -8.42 -16.58 -6.32 -21.18 -0.92 -20.56 1.84 -17.5 -3.68 -22.4 -11.05 -15.66 -11.05 -10.13 -22.11 -7.37 -11.05 -0.92 -11.97 12.89 -8.29 10.13 -8.29 7.37 -6.45 5.53 -3.68 12.89 -2.76 11.05 -4.61 11.05 -2.76 13.82 -2.77 16.58 -11.97 -2.77 -12.89 -1.84 -14.12 0 -12.07 2.76 -10.13 3.69 -6.45 6.44 -6.44 5.53 -9.21 2.76 -10.13 2.77 -11.06 1.84 -15.65 0.92 -9.21 4.6 -11.05 4.61 -9.21 10.21 -10.14 7.29 -8.28 9.21 0 9.21 0 12.89 0 13.82 4.6 10.12 4.61 9.21 0 10.14 0 9.2 8.29 10.14 4.6 9.21 0 11.05 3.69 12.89 11.97 11.97 12.89 15.66 4.6 12.89 0 16.58 -6.44 17.5 -5.26 19.12z" vector-effect="non-scaling-stroke"/>
  </g>
  <g id="tiga">
   <polygon class="fil0 str0" points="1530.37,1880.13 1527.61,1894.65 1529.46,1911.44 1527.61,1923.41 1521.17,1935.38 1505.51,1946.43 1487.09,1951.96 1477.88,1961.17 1472.35,1972.22 1476.04,1981.43 1475.12,1994.33 1475.12,2004.45 1483.32,2013.66 1483.32,2026.56 1483.32,2039.45 1477.88,2049.55 1476.96,2066.16 1483.32,2084.58 1483.32,2103 1494.46,2112.21 1506.43,2125.1 1503.67,2135.23 1483.32,2141.68 1462.22,2150.89 1450.25,2160.1 1436.44,2170.23 1423.54,2177.6 1410.65,2189.57 1398.68,2197.86 1389.47,2198.78 1376.57,2204.46 1354.47,2198.78 1346.18,2189.57 1333.29,2180.36 1316.71,2175.76 1297.37,2170.23 1278.03,2159.18 1266.98,2149.05 1260.53,2133.39 1293.68,2120.5 1310.26,2108.53 1321.32,2089.18 1328.41,2069.84 1340.65,2049.55 1354.47,2032.08 1365.52,2011.82 1378.41,1995.25 1390.39,1985.12 1402.36,1979.59 1406.97,1965.77 1394.07,1950.12 1397.76,1934.46 1409.73,1916.96 1421.7,1905.91 1443.8,1894.65 1454.86,1884.73 1469.59,1877.36 1483.32,1867.23 1503.67,1870.91 1518.4,1878.28 " vector-effect="non-scaling-stroke"/>
  </g>
  <g id="empat">
   <polygon class="fil0 str0" points="1554.28,1812.9 1569.02,1810.13 1584.67,1816.58 1593.88,1827.63 1603.09,1838.68 1620.59,1849.74 1632.57,1865.39 1643.62,1878.29 1655.59,1890.26 1659.27,1903.15 1667.56,1920.65 1674.01,1937.23 1681.38,1951.04 1689.66,1964.86 1698.87,1977.75 1716.37,1989.72 1736.63,2003.54 1744.92,2012.75 1747.69,2029.32 1758.74,2044.98 1772.55,2056.03 1793.09,2065.24 1793.09,2077.21 1784.53,2086.42 1767.95,2091.03 1757.82,2103 1748.61,2111.29 1742.16,2115.9 1727.42,2118.66 1724.66,2134.32 1718.21,2138.92 1697.95,2137.08 1691.51,2155.5 1685.06,2176.68 1674.01,2187.73 1663.88,2195.1 1649.14,2186.81 1638.18,2179.44 1624.27,2179.44 1608.62,2174.84 1597.57,2175.76 1584.67,2172.08 1569.94,2164.71 1557.04,2157.34 1540.47,2150.89 1522.05,2145.37 1505.47,2135.24 1504.55,2120.5 1487.97,2106.69 1483.28,2084.58 1476.92,2069.85 1476.92,2056.03 1483.28,2041.3 1483.28,2025.64 1483.28,2011.83 1476,2000.77 1476.92,1986.96 1474.16,1970.38 1483.28,1957.49 1497.18,1950.12 1513.76,1940.91 1527.57,1927.1 1532.18,1908.68 1531.26,1894.65 1534.94,1880.13 1535.86,1862.63 1541.39,1844.21 1543.23,1828.55 " vector-effect="non-scaling-stroke"/>
  </g>
  <g id="lima">
   <polygon class="fil0 str0" points="1670.37,2197.54 1675.89,2215.04 1686.94,2230.69 1703.52,2242.66 1721.94,2247.27 1738.52,2247.27 1762.46,2248.19 1779.04,2250.03 1793.13,2250.03 1811.27,2248.19 1825.09,2250.03 1844.43,2250.03 1861.93,2249.11 1861.01,2264.77 1872.06,2274.9 1876.66,2286.87 1866.53,2298.84 1856.4,2315.42 1849.03,2325.55 1844.43,2336.6 1825.09,2334.76 1815.88,2320.94 1803.9,2316.34 1788.25,2311.74 1779.04,2308.05 1767.99,2316.34 1760.62,2326.47 1741.28,2329.24 1720.1,2321.87 1704.44,2312.66 1674.97,2314.5 1648.26,2321.87 1625.24,2308.98 1611.42,2298.84 1581.95,2282.27 1565.37,2274.9 1552.48,2263.85 1546.03,2250.95 1535.9,2247.27 1516.56,2232.53 1503.67,2217.8 1493.54,2204.46 1483.32,2191.09 1468.67,2180.96 1454.86,2175.43 1436.44,2169.91 1461.3,2155.17 1478.8,2145.04 1489.86,2140.44 1500.91,2135.83 1518.41,2142.28 1539.59,2151.49 1553.4,2157.01 1573.66,2168.07 1586.56,2174.51 1600.37,2178.2 1609.58,2178.2 1624.31,2179.12 1638.22,2180.04 1652.87,2188.33 " vector-effect="non-scaling-stroke"/>
  </g>
  <g id="pvsiV-7Ux87NFiwdvLty5">
   <path class="fil0 str0" d="M1863.73 2246.02l18.43 -9.21 10.12 -4.6 8.3 -7.37 2.76 -12.89 -0.92 -12.9 -0.93 -17.49 0 -5.53 9.21 -4.6 20.27 -2.77 11.97 -7.37 12.89 -11.97 3.69 17.5 8.29 13.82 6.44 23.81c0,0 1.84,5.66 3.69,11.18 1.84,5.53 2.76,21.18 2.76,21.18l-5.53 19.35 -0.92 14.73 -10.13 12.89 -11.97 10.13 -11.97 3.69 -10.14 6.45 -16.57 13.81 -12.89 9.21 -6.45 8.29 9.21 11.05 -1.85 12.95 -26.7 -12.03 -9.21 -3.68 -18.42 -6.45 2.76 -13.81 10.13 -12.9 10.13 -13.81 6.45 -9.21 -1.84 -9.21 -9.21 -6.45 -4.61 -11.97 2.76 -13.82z" vector-effect="non-scaling-stroke"/>
  </g>
  <g id="fJqFZIaoVtZ-D4P45Sgbo">
   <polygon class="fil0 str0" points="1958.07,2148.42 1972.8,2136.45 1992.14,2136.45 2010.56,2131.84 2029.9,2130 2040.95,2134.61 2057.53,2138.29 2077.79,2141.05 2094.37,2142.89 2102.9,2158.55 2118.31,2158.55 2133.97,2153.95 2143.18,2147.5 2168.05,2140.13 2180.02,2144.74 2183.7,2158.55 2191.99,2164.08 2210.41,2156.71 2219.62,2144.74 2221.46,2131.84 2214.09,2117.11 2202.12,2112.5 2187.39,2106.05 2174.49,2095.92 2153.31,2079.35 2134.89,2068.29 2118.31,2060.01 2098.97,2049.56 2079.63,2044.35 2064.9,2040.67 2048.32,2039.75 2030.82,2042.51 2017.93,2049.56 2007.8,2061.85 1998.59,2070.14 1979.25,2071.98 1966.35,2071.06 1947.99,2074.74 1939.65,2074.74 1922.15,2073.82 1898.2,2071.98 1884.39,2070.14 1864.13,2071.06 1853.99,2078.43 1837.42,2083.03 1829.13,2083.03 1814.39,2083.03 1798.74,2083.03 1793.09,2083.03 1775.71,2092.24 1762.82,2100.53 1753.61,2112.5 1742.56,2121.71 1728.74,2121.71 1724.14,2138.29 1716.77,2142.89 1701.11,2140.13 1695.59,2151.18 1690.98,2167.76 1684.54,2181.58 1675.33,2190.78 1678.09,2210.13 1686.38,2226.7 1699.27,2237.75 1715.85,2244.2 1740.72,2246.04 1762.82,2246.04 1787.69,2246.96 1808.87,2247.88 1824.52,2247.88 1845.71,2246.96 1858.6,2246.96 1870.57,2242.36 1889.91,2233.15 1898.2,2223.94 1900.96,2209.2 1900.04,2194.47 1900.96,2177.89 1910.17,2171.44 1927.67,2167.76 1947.99,2160.39 " vector-effect="non-scaling-stroke"/>
  </g>
  <g id="Idy-aj-6I_u6sdQc_-do5">
   <path class="fil0 str0" d="M2431.13 2029.31l2.76 100.38 -21.13 -1.84 -13.86 -3.68 -14.74 0 -11.05 8.29 -0.92 19.34c0,0 -2.76,13.81 -2.76,16.58 0,2.76 6.44,20.26 6.44,20.26l-6.44 21.18 -11.06 12.89 -8.28 21.19 -11.98 10.12 -11.05 6.45 -17.5 12.9 -14.73 1.84 -17.5 -1.84 -11.97 -9.21c0,0 -13.82,-5.53 -17.5,-5.53 -3.69,0 -13.82,-1.84 -13.82,-1.84l-16.57 -4.61c0,0 -10.13,-2.76 -13.82,-3.68 -3.68,-0.92 -15.66,-4.6 -15.66,-4.6l-15.65 -12.9c0,0 -3.68,-13.81 -2.77,-16.58 0.93,-2.76 9.22,-20.26 9.22,-20.26l6.44 -16.57 4.61 -14.74 14.73 -4.61 12.9 -6.44 3.68 -13.82 -3.68 -14.73 -10.13 -6.45 -11.98 -5.53 -12.89 -11.05 19.34 -8.28 8.29 -14.74 15.65 -7.37 17.5 -4.6 14.61 -6.45 11.18 -9.2 4.61 -11.06 8.28 -13.82 24.87 0.93 23.95 1.84 24.86 -5.53 16.58 -4.6 14.73 -4.61 18.42 0.92 11.98 7.37 13.81 8.29z" vector-effect="non-scaling-stroke"/>
  </g>
  <g id="BGFbbjryqiqZc2KPS1VyZ">
   <path class="fil0 str0" d="M2432.03 2131.49l6.45 375.75 -25.74 2.76 -12.94 8.29 -9.21 6.45 -14.74 0 -11.97 -6.45c0,0 -13.81,-4.04 -18.42,-4.04 -4.6,0 -23.02,8.65 -23.02,8.65l-20.27 -0.92 -14.73 -7.73 -19.34 -7.93 -30.39 7.93 -23.03 0 -10.13 -15.3 -14.73 -12.89 -12.9 -0.92 -28.55 0.92 -29.47 -8.29c0,0 -12.29,-5.53 -15.97,-7.37 -3.69,-1.84 -19.95,-7.37 -19.95,-7.37l-20.26 0 -15.65 -9.2 -24.87 -4.61 -2.76 -19.34 -11.97 -13.82 -18.43 -12.89 -28.66 -13.81 -19.34 -15.66 -11.05 -14.36 -11.05 0 -15.66 0 -0.92 -10.51 -7.36 -12.89 20.26 -20.26 17.5 -13.82 15.26 -3.68 18.81 -15.66 7.37 -11.05 5.53 -23.02 2.76 -19.34 -5.53 -24.68 -5.53 -13.08 -9.2 -19.34 -6.45 -13.82 5.53 -12.89 14.73 -9.21 16.58 0.92 18.42 -4.6 19.34 -1.84 18.42 5.52 19.34 3.69 23.94 3.68 10.85 14.73 14.94 3.69 12.89 -8.29 14.74 -7.37 13.81 -3.68 12.9 -1.85 9.21 12.9 6.45 11.05 -4.61 14.74 -8.29 17.49 -7.37 17.5 7.37 17.5 17.5 11.97 23.02 9.21 20.26 3.69 15.66 3.68 14.74 6.45 13.81 8.29 17.5 1.84 21.18 -6.45 16.58 -10.13 11.97 -11.97 9.21 -13.82 8.29 -12.89 8.29 -17.31 5.53 -12.16 0.92 -15.66 -6.45 -12.89 -0.92 -23.94 7.37 -14.74 13.81 -2.76 15.66 5.52 23.13 3.69z" vector-effect="non-scaling-stroke"/>
  </g>
  <g id="ZrmQ8wZx-SEMiJXXqlNoD">
   <path class="fil0 str0" d="M1657.28 2488.32l13.81 11.97 8.29 13.98 7.37 15.49 12.9 9.21 19.33 5.52 17.5 10.14 11.05 11.05 9.21 9.21 19.35 11.97 9.21 11.97 7.82 16.58 18.88 14.74 10.13 10.13 13.82 11.97 -17.5 16.93 -8.29 11.62 30.39 2.76 23.03 6.45 17.5 6.44 23.94 5.53 30.39 -0.92 23.03 -5.52c0,0 15.65,-7.37 15.65,-11.06 0,-3.68 4.61,-23.02 4.61,-23.02l2.76 -20.26 11.05 -14.74 13.82 -11.05 12.89 -5.53 24.87 -0.92 27.63 0.92 23.94 -7.36 20.26 -15.66 14.74 -20.26 23.69 -5.53 22.11 -10.13 24.86 2.76 21.19 3.69 25.78 4.6 9.55 12.9 -8.63 23.94 3.69 22.11 17.49 10.13 25.79 11.05 24.87 -9.21c0,0 8.29,-12.9 11.05,-13.82 2.76,-0.92 20.26,-6.44 20.26,-6.44l13.82 7.36 9.2 13.82 1.85 19.34 12.89 16.01 17.5 -4.96 14.73 -16.58 21.19 -17.49 -5.53 -120.65 -25.26 -0.92 -12.5 5.69 -3.68 9.04 -20.26 3.69 -13.82 -4.61 -11.97 -8.12c0,0 -12.9,-0.92 -15.66,0 -2.76,0.93 -17.5,12.73 -17.5,12.73l-16.57 -3.69 -13.82 -9.04 -11.97 0 -10.13 -5.69 -16.58 5.69 -26.71 0 -12.89 -6.61 -11.97 -14.74 -11.98 -7.37 -17.5 1.85 -15.65 0 -22.1 -3.69 -22.11 -8.29 -12.89 -8.29 -11.97 -0.92 -15.66 0.92 -15.41 -8.28 -14.73 -4.61 -13.82 -3.68 -6.44 -13.82 -0.92 -10.13 -11.97 -11.05 -12.9 -9.21 -15.65 -4.61 -20.27 -11.97 -6.72 -8.29 -8.01 -9.21 -3.69 -6.44 -13.81 -2.77 -15.66 -3.69 -13.81 0 -18.42 -9.2 -15.66 -5.52 -15.65 -2.77 -18.42 -3.68 -8.29 -12.9 -11.97 -7.36 -16.58 -5.53 -11.05 -0.92 -13.82 13.81 -16.57 5.53 -12.9 0 -11.97 -4.6 -13.82 -4.61 -7.37 -3.68 -21.18 0.92 -16.57 4.6 -11.98 1.84 -20.26 -11.05 -15.65 -12.89 -19.35 -8.29 -15.65 -8.29 -13.82 -8.29 -8.28 -4.6 0.92 14.73 19.34 24.87 13.81 14.74 12.89 13.81 9.21 12.89 3.69 19.34 6.44 14.74 8.3 8.29 5.79 11.97 0 21.18 6.18 21.19 5.52 12.89 6.45 14.73 0.92 11.06z" vector-effect="non-scaling-stroke"/>
  </g>
  <g id="BqlSTBT8cqjWxO6oaHtFY">
   <path class="fil0 str0" d="M1808.18 2684.49l-2.76 10.13 -8.29 6.45 -10.13 6.44 -13.81 7.37 -10.13 3.68 -15.66 8.29 -8.29 7.37c0,0 0,13.81 -1.84,18.42 -1.84,4.61 -11.05,16.58 -11.05,16.58l-7.37 -14.74 -8.29 -7.37 -18.42 -8.29 -7.37 -5.52 -10.13 -15.66 -8.29 -16.57 -8.28 -11.98 -9.21 -11.05 -10.65 -8.83 -15.14 -13.27 15.14 -19.34 -16.06 -6.45 -18.42 7.37 -1.84 -23.95 4.6 -17.5 -12.89 -7.36 -12.9 1.84 -29.47 4.6 -17.5 -7.37 -10.13 -9.2 -4.6 -13.82 -11.05 -11.97 -17.5 -9.21 -12.9 -13.82 -11.97 -15.46 -7.37 -13.09c0,0 -3.68,-13.81 -7.36,-13.81 -3.69,0 -18.42,-9.21 -18.42,-9.21l-5.53 -17.5 -1.84 -18.42 21.18 0.92 22.1 -1.84 14.96 3.68 15.44 6.45 20.26 9.21 11.97 8.29 13.81 10.13 15.66 4.61 14.74 2.76 16.57 2.76 15.66 3.69 17.5 5.52 13.3 -3.68 18.01 -2.77 13.82 9.21 4.6 13.09 9.21 13.62 11.98 11.05 22.1 6.45 12.89 7.37 12.89 11.97 11.98 7.37 16.57 11.97 11.98 12.89 8.88 17.5 14.14 15.66 15.66 11.05 10.13 10.13 -12.89 11.98 -4.61 11.97 -7.37 9.21z" vector-effect="non-scaling-stroke"/>
  </g>
  <g id="enam">
   <polygon class="fil0 str0" points="1729,2773.57 1735.44,2786.47 1747.42,2799.36 1758.47,2809.49 1762.15,2824.08 1740.97,2828.83 1717.95,2827.91 1697.68,2824.08 1680.19,2818.7 1655.32,2812.26 1630.45,2803.05 1607.43,2793.84 1589.01,2786.47 1577.96,2777.26 1567.83,2773.57 1554.01,2785.55 1543.88,2794.76 1537.44,2810.41 1528.23,2814.1 1509.81,2814.1 1498.76,2814.1 1483.32,2818.7 1469.28,2819.62 1461.92,2809.49 1454.55,2793.84 1444.42,2785.55 1429.68,2773.57 1412.19,2764.36 1391.92,2754.24 1377.19,2747.79 1356.92,2742.26 1348.64,2735.81 1371.66,2729.37 1401.13,2712.79 1430.6,2697.13 1446.26,2691.61 1463.76,2688.85 1483.32,2675.95 1490.47,2658.45 1495.07,2640.95 1502.44,2621.61 1508.89,2604.12 1514.41,2591.22 1520.86,2580.17 1539.28,2589.38 1552.17,2598.59 1567.83,2594.91 1584.41,2591.22 1600.06,2591.22 1606.51,2600.43 1601.9,2615.17 1600.98,2629.9 1602.83,2640.03 1613.88,2635.43 1626.77,2632.67 1638.23,2635.43 1632.29,2647.4 1626.77,2656.61 1638.23,2669.17 1648.87,2681.48 1657.16,2691.61 1663.61,2700.82 1670.06,2710.03 1674.66,2721.08 1682.03,2733.97 1694.92,2740.42 1705.97,2745.95 1714.26,2752.39 1723.47,2762.52 " vector-effect="non-scaling-stroke"/>
  </g>
  <g id="ShCfI2D6A8mdUropfmYnE">
   <path class="fil0 str0" d="M1793.1 2709.36l8.73 16.58 -8.73 24.86 0 26.71 16.1 16.58 23.02 14.73 20.26 8.29 29.47 6.98 25.79 8.68 17.5 22.1 17.5 23.95 11.05 11.97 -0.92 15.65 5.52 16.58 11.98 22.11 27.63 12.89 28.55 2.76 17.49 -1.84 16.58 11.97 14.74 17.5 27.56 24.87 19.41 16.58 23.02 20.26 28.55 18.42 32.23 1.84 19.35 2.76c0,0 15.65,5.53 17.49,9.21 1.84,3.68 21.19,14.74 21.19,14.74 0,0 13.81,12.89 13.81,15.65 0,2.77 -7.1,21.16 -7.1,21.16l-13.05 13.84 17.66 11.05 25.78 2.76 23.03 -1.84 13.81 -1.84 23.03 -5.53 21.18 -8.28 11.97 15.65 23.02 -0.92 3.69 -24.89 9.21 -24.84 11.05 -9.21 1.84 -471.09 -13.81 11.97 -10.13 11.97 -12.9 16.48 -12.89 0 -11.05 -8.19 -7.37 -11.05 0 -15.66 -8.29 -12.89 -10.13 -4.61 -14.74 -0.92 -14.73 8.29 -7.37 12.89 -16.57 8.29 -19.35 -3.68 -17.49 -8.29 -14.74 -9.21 -5.53 -17.5 2.77 -18.42 9.05 -10.13 -9.97 -14.73 -23.03 -3.69 -19.34 -3.68 -20.26 -1.84c0,0 -10.13,-0.92 -14.73,1.84 -4.61,2.76 -21.19,9.21 -21.19,9.21l-11.97 1.84 -8.29 11.05 -14.73 14.74 -11.39 11.05 -29.14 5.52 -17.5 2.77 -17.49 -0.92 -13.82 0 -8.29 5.52 -19.34 9.21 -9.21 12.9 -4.6 12.89 0 17.4 -4.61 12.99 -10.13 12.9 -20.78 7.36 -18.82 0.92 -20.26 2.77 -16.58 -3.69c0,0 -16.58,-6.44 -20.26,-6.44 -3.68,0 -23.94,-6.45 -23.94,-6.45l-20.53 -5.53 -13.82 0 -8.29 11.98 -12.41 13.37z" vector-effect="non-scaling-stroke"/>
  </g>
  <g id="JvLnHtf8lWngU1p3Q7llG">
   <path class="fil0 str0" d="M1761.32 3328.55l69.07 11.97 47.89 5.52 139.99 19.34 55.26 5.53 46.05 9.21 40.52 8.29 72.75 10.22 24.98 7.37 28.44 10.13 40.48 3.68 26.71 7.37 27.62 6.44 22.11 5.53 38.68 4.58 0.92 -339.81 -14.74 10.13 -6.44 19.87 -8.87 26.18 -15.08 0.92 -13.81 -14.74 -19.34 4.61 -23.95 9.21 -35.92 3.68 -23.02 -2.76 -12.89 -4.61 -10.9 -9.21 15.5 -18.42 2.76 -14.73 -11.05 -14.74 -15.66 -9.21 -12.89 -11.97 -28.55 -5.53 -23.02 0.93 -20.27 -7.37 -12.89 -9.21 -24.86 -17.5 -23.97 -23.02 -27.61 -21.19 -11.97 -16.23 -13.82 -14.16 -12.89 -3.68 -23.94 0.92 -30.4 -8.29 -18.42 -10.13 -11.05 -18.42 -4.81 -15.66 0 -18.42 -13.72 -21.87 -18.42 -19.34 -11.05 -15.65 -15.65 -4.61 -23.03 -5.59 -20.26 -6.38 -16.58 -6.45 -16.57 -7.37 -11.98 -11.05 -7.65 -11.97 0 -22.1 3.97 -23.03 2.76 -11.05 -11.05 -12.79 -16.58 3.69 -15.65 8.29 -11.98 9.21 -1.84 11.05 -4.6 16.57 -7.37 6.45 5.52 13.82 13.82 15.65 11.97 9.21 7.37 12.9 -3.68 12.89 -14.74 0.92 -18.42 1.84 -18.42 -2.76 -23.02 -7.55 -20.27 0 -16.57 -9.03 -16.12 -4.6 -17.04 -4.61 -16.39 -8.29 -11.98 -5.52 -11.97 -9.21 -10.13 -5.53 6.45 15.66 6.45 19.34 8.28 16.58 15.66 13.81 30.67 9.21 17.22 5.53 13.81 8.29 3.69 11.97 4.6 18.42 -3.68 19.34 0 19.34 3.68 20.26 11.06 23.95 14.73 15.65 16.58 12.89 23.02 8.29 14.74 7.37 2.76 15.66 -3.68 11.97 -12.9 4.61 -6.44 11.97 -7.37 12.89 1.84 17.5 0 16.58 -9.21 4.6 -13.81 0 -13.82 6.45 -11.05 14.73 -10.13 12.9 -21.18 4.6c0,0 -15.66,1.84 -20.26,1.84 -4.61,0 -25.79,1.85 -25.79,1.85l-14.74 -0.92 -16.57 -2.77 -16.58 -1.84 -16.58 -6.45 -11.97 -4.6 -11.05 4.6 -10.13 12.9 -8.29 19.34 -10.14 18.42 -0.91 16.58 0.91 18.41 -15.65 11.05 -12.89 10.14 -14.74 0 -11.93 -6.88 -11.97 0.92 -7.37 11.06 -2.76 15.65 348.06 51.58z" vector-effect="non-scaling-stroke"/>
  </g>
  <g id="tujuh">
   <g vector-effect="non-scaling-stroke">
    <path class="fil1" d="M1351.58 2738.84l17.49 -10.13 25.79 -12.89 29.47 -16.58 24.87 -9.21 26.71 -10.13 7.34 -17.5 11.08 -25.79 7.37 -22.1 7.36 -15.66 10.13 -15.65 18.42 3.68 16.58 9.21 17.5 -3.69 29.47 -0.91 4.6 11.97 -3.68 20.26 0 18.42 14.73 -6.45 14.74 -1.84 -2.76 17.5 9.37 17.82 9.97 10.73 13.81 18.42 11.98 21.18 12.89 15.66 14.74 7.36 15.65 13.82 11.97 12.89 12.9 23.03 12.89 11.05c0,0 9.21,10.13 9.21,12.89 0,2.76 -8.29,13.82 -8.29,13.82l-16.57 2.76 -41.45 -4.61 -20.26 -8.28 -25.79 -6.45 -21.18 -7.37 -18.42 -7.37 -15.66 -7.37 -16.57 -9.21 -13.82 -5.52 -12.89 9.21 -14.74 18.42 -12.89 10.13 -23.02 0.92 -19.37 4.61 -14.71 -2.77 -9.21 -11.97 -7.37 -13.82 -14.73 -11.97 -19.34 -13.81 -17.5 -10.13 -20.26 -6.45 -28.55 -10.13z"/>
    <path class="fil2 str0" d="M1351.58 2738.84l17.49 -10.13 25.79 -12.89 29.47 -16.58 24.87 -9.21 26.71 -10.13 7.34 -17.5 11.08 -25.79 7.37 -22.1 7.36 -15.66 10.13 -15.65 18.42 3.68 16.58 9.21 17.5 -3.69 29.47 -0.91 4.6 11.97 -3.68 20.26 0 18.42 14.73 -6.45 14.74 -1.84 -2.76 17.5 9.37 17.82 9.97 10.73 13.81 18.42 11.98 21.18 12.89 15.66 14.74 7.36 15.65 13.82 11.97 12.89 12.9 23.03 12.89 11.05c0,0 9.21,10.13 9.21,12.89 0,2.76 -8.29,13.82 -8.29,13.82l-16.57 2.76 -41.45 -4.61 -20.26 -8.28 -25.79 -6.45 -21.18 -7.37 -18.42 -7.37 -15.66 -7.37 -16.57 -9.21 -13.82 -5.52 -12.89 9.21 -14.74 18.42 -12.89 10.13 -23.02 0.92 -19.37 4.61 -14.71 -2.77 -9.21 -11.97 -7.37 -13.82 -14.73 -11.97 -19.34 -13.81 -17.5 -10.13 -20.26 -6.45 -28.55 -10.13z"/>
   </g>
  </g>
  <g id="delapan">
   <g vector-effect="non-scaling-stroke">
    <polygon class="fil1" points="1651.84,2487.52 1638.19,2493.96 1621.45,2493.96 1594.74,2489.36 1568.95,2487.52 1543.17,2477.38 1528.43,2465.41 1512.78,2455.28 1494.35,2446.99 1475.94,2443.31 1459.36,2440.55 1438.17,2442.39 1424.36,2442.39 1409.63,2434.1 1386.6,2424.89 1367.26,2416.6 1365.42,2406.47 1383.84,2399.1 1399.49,2395.42 1420.68,2394.5 1438.17,2390.82 1454.75,2385.29 1471.33,2373.32 1483.28,2359.4 1441.86,2359.4 1411.47,2365.03 1393.05,2359.4 1379.23,2340.16 1380.15,2318.98 1388.44,2298.72 1398.57,2283.06 1411.47,2271.09 1416.07,2256.35 1412.39,2234.25 1410.55,2217.67 1394.89,2204.5 1405.94,2187.28 1421.6,2180.83 1436.33,2169.78 1451.99,2171.62 1469.49,2180.83 1483.28,2195.57 1499.88,2210.3 1509.09,2225.04 1524.75,2239.77 1543.17,2247.14 1552.38,2256.35 1555.14,2267.4 1556.98,2283.98 1565.27,2296.88 1582.77,2316.22 1601.19,2336.48 1612.24,2353.97 1618.69,2375.16 1626.05,2390.82 1638.19,2403.71 1638.19,2420.29 1638.19,2437.78 1647.24,2457.12 1655.52,2474.62 "/>
    <polygon class="fil2 str0" points="1651.84,2487.52 1638.19,2493.96 1621.45,2493.96 1594.74,2489.36 1568.95,2487.52 1543.17,2477.38 1528.43,2465.41 1512.78,2455.28 1494.35,2446.99 1475.94,2443.31 1459.36,2440.55 1438.17,2442.39 1424.36,2442.39 1409.63,2434.1 1386.6,2424.89 1367.26,2416.6 1365.42,2406.47 1383.84,2399.1 1399.49,2395.42 1420.68,2394.5 1438.17,2390.82 1454.75,2385.29 1471.33,2373.32 1483.28,2359.4 1441.86,2359.4 1411.47,2365.03 1393.05,2359.4 1379.23,2340.16 1380.15,2318.98 1388.44,2298.72 1398.57,2283.06 1411.47,2271.09 1416.07,2256.35 1412.39,2234.25 1410.55,2217.67 1394.89,2204.5 1405.94,2187.28 1421.6,2180.83 1436.33,2169.78 1451.99,2171.62 1469.49,2180.83 1483.28,2195.57 1499.88,2210.3 1509.09,2225.04 1524.75,2239.77 1543.17,2247.14 1552.38,2256.35 1555.14,2267.4 1556.98,2283.98 1565.27,2296.88 1582.77,2316.22 1601.19,2336.48 1612.24,2353.97 1618.69,2375.16 1626.05,2390.82 1638.19,2403.71 1638.19,2420.29 1638.19,2437.78 1647.24,2457.12 1655.52,2474.62 "/>
   </g>
  </g>
  <g id="sembilan">
   <g vector-effect="non-scaling-stroke">
    <polygon class="fil1" points="1844.3,2336 1851.67,2319.43 1864.57,2304.69 1874.69,2289.96 1874.69,2277.06 1866.41,2267.85 1862.72,2258.64 1860.88,2248.51 1837.86,2247.59 1799.18,2246.67 1774.31,2248.51 1747.6,2246.67 1717.21,2245.75 1700.63,2240.22 1686.82,2228.25 1679.45,2211.67 1675.76,2199.7 1661.95,2193.25 1638.17,2180.36 1617.74,2176.68 1603.01,2176.68 1579.06,2169.31 1556.96,2160.1 1540.38,2150.89 1523.8,2143.52 1513.68,2140.76 1498.02,2138 1483.26,2144.44 1467.63,2150.89 1456.57,2159.18 1444.6,2166.55 1457.5,2175.76 1474.99,2188.65 1490.65,2200.62 1502.62,2218.12 1518.28,2235.62 1536.7,2246.67 1550.51,2256.8 1559.72,2271.54 1583.67,2284.43 1606.69,2299.17 1627.87,2310.22 1646.29,2326.79 1664.71,2322.19 1681.29,2319.43 1697.87,2316.66 1710.76,2319.43 1729.18,2327.72 1745.76,2331.4 1759.58,2327.72 1770.63,2318.51 1780.75,2307.46 1800.1,2315.74 1814.83,2320.35 1826.8,2337.85 "/>
    <polygon class="fil2 str0" points="1844.3,2336 1851.67,2319.43 1864.57,2304.69 1874.69,2289.96 1874.69,2277.06 1866.41,2267.85 1862.72,2258.64 1860.88,2248.51 1837.86,2247.59 1799.18,2246.67 1774.31,2248.51 1747.6,2246.67 1717.21,2245.75 1700.63,2240.22 1686.82,2228.25 1679.45,2211.67 1675.76,2199.7 1661.95,2193.25 1638.17,2180.36 1617.74,2176.68 1603.01,2176.68 1579.06,2169.31 1556.96,2160.1 1540.38,2150.89 1523.8,2143.52 1513.68,2140.76 1498.02,2138 1483.26,2144.44 1467.63,2150.89 1456.57,2159.18 1444.6,2166.55 1457.5,2175.76 1474.99,2188.65 1490.65,2200.62 1502.62,2218.12 1518.28,2235.62 1536.7,2246.67 1550.51,2256.8 1559.72,2271.54 1583.67,2284.43 1606.69,2299.17 1627.87,2310.22 1646.29,2326.79 1664.71,2322.19 1681.29,2319.43 1697.87,2316.66 1710.76,2319.43 1729.18,2327.72 1745.76,2331.4 1759.58,2327.72 1770.63,2318.51 1780.75,2307.46 1800.1,2315.74 1814.83,2320.35 1826.8,2337.85 "/>
   </g>
  </g>
  <g id="sepuluh">
   <g vector-effect="non-scaling-stroke">
    <polygon class="fil1" points="1861.2,2245.74 1876.86,2238.37 1892.51,2229.16 1900.8,2220.88 1899.88,2204.49 1898.96,2190.48 1900.8,2176.67 1913.7,2170.22 1929.35,2165.62 1948.03,2161.93 1954.22,2154.56 1964.35,2143.51 1982.77,2137.99 2006.71,2134.3 2028.82,2132.46 2050,2137.07 2066.57,2138.91 2080.39,2142.59 2096.97,2147.2 2102.94,2155.49 2115.39,2158.25 2129.2,2156.41 2139.33,2149.04 2153.15,2144.44 2168.8,2140.75 2178.02,2146.28 2184.46,2158.25 2191.83,2161.93 2201.96,2158.25 2215.77,2149.04 2220.38,2139.83 2218.54,2127.86 2213.01,2117.73 2195.51,2109.44 2180.78,2100.23 2161.44,2084.57 2141.17,2071.68 2119.99,2061.55 2102.94,2049.58 2085.92,2044.97 2064.73,2040.36 2048.16,2038.52 2032.5,2040.36 2015.92,2049.58 2006.71,2063.39 1995.66,2069.84 1979.08,2069.84 1954.22,2073.52 1931.19,2073.52 1915.54,2071.68 1898.04,2071.68 1877.78,2069.84 1863.96,2069.84 1848.31,2079.05 1826.2,2081.81 1805.94,2081.81 1793.12,2081.81 1782,2087.33 1770.94,2095.62 1759.89,2102.99 1750.68,2112.2 1740.55,2118.65 1731.34,2120.49 1726.74,2132.46 1717.53,2141.67 1698.19,2139.83 1693.58,2157.33 1684.37,2179.43 1674.24,2189.56 1677.01,2204.49 1679.77,2216.27 1688.98,2234.69 1708.32,2244.82 1726.74,2247.59 1747.92,2249.43 1766.34,2250.35 1793.12,2250.35 1812.39,2248.5 1840.94,2249.43 "/>
    <polygon class="fil2 str0" points="1861.2,2245.74 1876.86,2238.37 1892.51,2229.16 1900.8,2220.88 1899.88,2204.49 1898.96,2190.48 1900.8,2176.67 1913.7,2170.22 1929.35,2165.62 1948.03,2161.93 1954.22,2154.56 1964.35,2143.51 1982.77,2137.99 2006.71,2134.3 2028.82,2132.46 2050,2137.07 2066.57,2138.91 2080.39,2142.59 2096.97,2147.2 2102.94,2155.49 2115.39,2158.25 2129.2,2156.41 2139.33,2149.04 2153.15,2144.44 2168.8,2140.75 2178.02,2146.28 2184.46,2158.25 2191.83,2161.93 2201.96,2158.25 2215.77,2149.04 2220.38,2139.83 2218.54,2127.86 2213.01,2117.73 2195.51,2109.44 2180.78,2100.23 2161.44,2084.57 2141.17,2071.68 2119.99,2061.55 2102.94,2049.58 2085.92,2044.97 2064.73,2040.36 2048.16,2038.52 2032.5,2040.36 2015.92,2049.58 2006.71,2063.39 1995.66,2069.84 1979.08,2069.84 1954.22,2073.52 1931.19,2073.52 1915.54,2071.68 1898.04,2071.68 1877.78,2069.84 1863.96,2069.84 1848.31,2079.05 1826.2,2081.81 1805.94,2081.81 1793.12,2081.81 1782,2087.33 1770.94,2095.62 1759.89,2102.99 1750.68,2112.2 1740.55,2118.65 1731.34,2120.49 1726.74,2132.46 1717.53,2141.67 1698.19,2139.83 1693.58,2157.33 1684.37,2179.43 1674.24,2189.56 1677.01,2204.49 1679.77,2216.27 1688.98,2234.69 1708.32,2244.82 1726.74,2247.59 1747.92,2249.43 1766.34,2250.35 1793.12,2250.35 1812.39,2248.5 1840.94,2249.43 "/>
   </g>
  </g>
  <g id="sebelas">
   <g vector-effect="non-scaling-stroke">
    <polygon class="fil1" points="1668.3,2192.8 1680.27,2184.51 1688.56,2170.69 1693.16,2152.28 1698.69,2138.46 1716.19,2141.22 1724.48,2132.01 1729.08,2120.96 1743.82,2116.36 1753.95,2108.07 1765.92,2097.94 1776.05,2090.57 1793.13,2084.12 1793.13,2064.78 1776.05,2056.49 1761.31,2049.52 1751.18,2036.23 1747.5,2021.5 1745.66,2010.45 1731.84,1999.39 1715.27,1991.11 1702.37,1979.13 1688.56,1959.79 1676.59,1940.45 1668.3,1920.19 1663.69,1906.37 1656.32,1894.62 1638.22,1871.38 1626.85,1858.49 1619.48,1847.43 1603.83,1835.46 1587.25,1820.73 1579.88,1813.36 1569.75,1812.44 1555.94,1812.44 1546.73,1828.09 1541.2,1840.99 1539.36,1858.49 1537.52,1871.38 1531.99,1887.03 1531.07,1904.53 1526.47,1919.27 1526.47,1928.48 1518.18,1935.85 1507.13,1945.98 1494.23,1954.27 1483.32,1958.87 1476.73,1970.85 1474.89,1988.34 1477.66,2009.52 1483.32,2018.73 1483.32,2031.63 1483.32,2040.84 1478.58,2053.73 1476.73,2065.7 1479.5,2078.6 1483.32,2092.41 1483.32,2106.23 1494.23,2113.59 1506.21,2122.8 1504.37,2134.78 1521.86,2143.98 1536.6,2149.51 1552.25,2156.88 1565.15,2163.33 1578.04,2168.85 1593.7,2173.46 1610.28,2176.22 1629.62,2179.9 1642.51,2182.67 1652.64,2187.27 "/>
    <polygon class="fil2 str0" points="1668.3,2192.8 1680.27,2184.51 1688.56,2170.69 1693.16,2152.28 1698.69,2138.46 1716.19,2141.22 1724.48,2132.01 1729.08,2120.96 1743.82,2116.36 1753.95,2108.07 1765.92,2097.94 1776.05,2090.57 1793.13,2084.12 1793.13,2064.78 1776.05,2056.49 1761.31,2049.52 1751.18,2036.23 1747.5,2021.5 1745.66,2010.45 1731.84,1999.39 1715.27,1991.11 1702.37,1979.13 1688.56,1959.79 1676.59,1940.45 1668.3,1920.19 1663.69,1906.37 1656.32,1894.62 1638.22,1871.38 1626.85,1858.49 1619.48,1847.43 1603.83,1835.46 1587.25,1820.73 1579.88,1813.36 1569.75,1812.44 1555.94,1812.44 1546.73,1828.09 1541.2,1840.99 1539.36,1858.49 1537.52,1871.38 1531.99,1887.03 1531.07,1904.53 1526.47,1919.27 1526.47,1928.48 1518.18,1935.85 1507.13,1945.98 1494.23,1954.27 1483.32,1958.87 1476.73,1970.85 1474.89,1988.34 1477.66,2009.52 1483.32,2018.73 1483.32,2031.63 1483.32,2040.84 1478.58,2053.73 1476.73,2065.7 1479.5,2078.6 1483.32,2092.41 1483.32,2106.23 1494.23,2113.59 1506.21,2122.8 1504.37,2134.78 1521.86,2143.98 1536.6,2149.51 1552.25,2156.88 1565.15,2163.33 1578.04,2168.85 1593.7,2173.46 1610.28,2176.22 1629.62,2179.9 1642.51,2182.67 1652.64,2187.27 "/>
   </g>
  </g>
  <g id="duabelas">
   <g vector-effect="non-scaling-stroke">
    <path class="fil1" d="M1260 2136.63l15.66 -8.29 18.41 -7.37 13.82 -10.13 11.05 -19.34 9.45 -21.18 13.57 -20.79 17.5 -25.26 11.05 -17.5 11.06 -13.81 11.97 -8.29 11.97 -13.82 -3.68 -11.97 -4.61 -12.89 2.76 -17.5 11.98 -16.58 18.42 -17.29 22.1 -10.34 13.82 -7.37 17 -10.12 17.99 1.84 13.82 7.36 16.57 5.53 -0.92 13.1 -1.84 16.37 -3.68 12.89 -3.69 11.05 -16.57 11.06 -11.98 6.44 -13.81 8.29 -3.69 9.21 -1.84 11.06 0.93 11.97 0.91 10.13 7.8 10.13c0,0 0.92,11.05 0,13.81 -0.92,2.77 0,14.74 0,14.74l-5.95 7.76 -1.85 14.34 0.93 11.06 6.87 8.28 0 9.21 0 13.82 9.7 8.29 9.21 4.6 2.77 9.21 -3.69 9.21 -11.97 3.68 -15.66 7.37 -12.89 6.45 -13.82 7.37 -17.49 11.97 -13.82 9.21 -10.13 8.29 -10.13 7.36 -13.81 0.93 -9.21 4.26 -11.05 -5.19 -9.22 -3.68 -10.13 -6.44 -6.44 -7.37 -7.13 -3.69 -12.21 -2.76 -15.66 -4.61 -12.89 -6.44 -12.9 -8.29 -10.13 -7.37 -4.6 -11.97z"/>
    <path class="fil2 str0" d="M1260 2136.63l15.66 -8.29 18.41 -7.37 13.82 -10.13 11.05 -19.34 9.45 -21.18 13.57 -20.79 17.5 -25.26 11.05 -17.5 11.06 -13.81 11.97 -8.29 11.97 -13.82 -3.68 -11.97 -4.61 -12.89 2.76 -17.5 11.98 -16.58 18.42 -17.29 22.1 -10.34 13.82 -7.37 17 -10.12 17.99 1.84 13.82 7.36 16.57 5.53 -0.92 13.1 -1.84 16.37 -3.68 12.89 -3.69 11.05 -16.57 11.06 -11.98 6.44 -13.81 8.29 -3.69 9.21 -1.84 11.06 0.93 11.97 0.91 10.13 7.8 10.13c0,0 0.92,11.05 0,13.81 -0.92,2.77 0,14.74 0,14.74l-5.95 7.76 -1.85 14.34 0.93 11.06 6.87 8.28 0 9.21 0 13.82 9.7 8.29 9.21 4.6 2.77 9.21 -3.69 9.21 -11.97 3.68 -15.66 7.37 -12.89 6.45 -13.82 7.37 -17.49 11.97 -13.82 9.21 -10.13 8.29 -10.13 7.36 -13.81 0.93 -9.21 4.26 -11.05 -5.19 -9.22 -3.68 -10.13 -6.44 -6.44 -7.37 -7.13 -3.69 -12.21 -2.76 -15.66 -4.61 -12.89 -6.44 -12.9 -8.29 -10.13 -7.37 -4.6 -11.97z"/>
   </g>
  </g>
 </g>
</svg>
