<?xml version="1.0" encoding="UTF-8" standalone="no" ?>
<!DOCTYPE svg PUBLIC "-//W3C//DTD SVG 1.1//EN" "http://www.w3.org/Graphics/SVG/1.1/DTD/svg11.dtd">
<svg xmlns="http://www.w3.org/2000/svg" width="800" height="813.61702" viewBox="0 0 470 478" xml:space="preserve">
  <path style="stroke:#e11f1f;stroke-width:1;stroke-dasharray:none;stroke-linecap:butt;stroke-dashoffset:0;stroke-linejoin:miter;stroke-miterlimit:4;fill:#97dacf;fill-rule:nonzero;opacity:1" vector-effect="non-scaling-stroke" transform="translate(159.47 91.43)" d="m-48.7234-65.10638 6.38298 2.55319L-36.80851-60l3.82979-2.55319 2.12766-2.55319 3.82979 2.55319 4.25532-2.55319h9.78723l2.55319 2.55319H-.6383L1.06383-60h5.95745l4.68085-2.55319 4.68085-5.10638h5.95745l3.40426-2.12766h5.10638l5.95745-1.70213 2.12766 3.82979v5.10638h-2.12766l3.82979 4.25532 3.82979 2.12766 4.25532 2.97872-8.08511 4.25532-1.70213 4.68085-2.12766 3.82979-5.95745 3.40426v5.53191l-2.12766 1.70213h-6.38298v4.68085l3.40426 2.55319h2.97872l-2.97872 3.82979v6.80851h5.10638l3.82979 5.53191 4.25532 2.55319L36.80852.85106v4.25532h3.82979V9.3617l-1.70213 4.25532-2.12766 2.12766h-2.12766l-1.70213 4.68085 1.70213 2.55319-3.82979 4.25532-2.12766 4.25532v2.97872l-2.97872 1.70213-3.40426 2.12766-2.55319 2.97872-3.40426 3.82979v5.95745l3.40426 3.82979h5.95745l-3.40426 4.68085v4.68085l-4.25532 3.40426H9.14894l-2.12766-3.40426H1.06383L-.6383 67.65958l-2.55319 3.82979h-4.68085v-7.23404l-2.55319-4.68085-2.55319-2.55319h-2.12766s-2.55319 1.2766-2.97872 2.55319c-.42553 1.2766-1.70213 4.68085-1.70213 4.68085l-7.23404 3.40426h-3.82979l-4.25532-3.40426-1.70213-4.68085-3.82979-2.55319-6.38298-2.12766z" stroke-linecap="round"/>
  <path style="stroke:#e11f1f;stroke-width:1;stroke-dasharray:none;stroke-linecap:butt;stroke-dashoffset:0;stroke-linejoin:miter;stroke-miterlimit:4;fill:#2c22b6;fill-rule:nonzero;opacity:1" vector-effect="non-scaling-stroke" transform="translate(227.75 85.12)" d="m-18.72664-46.90672-2.85307 1.78199-2.71041 1.64169-1.71184.71327-1.14123.99857-1.56919 3.13837-.85592 2.71041-1.28388 1.71184-1.42653.99857-1.71184.85592-.99857.85592-1.56919.85592-.42796 3.56633-.36657 1.95317-1.56919 1.61316-1.28388.71327h-2.42511l-2.71041-.28531-.14265 2.28245.42796 1.71184 1.42653 1.56919 1.28388.71327 2.85307.14265-1.42653 1.99715-1.14123 1.85449-.28531 2.28245-.28531 2.71041.42796 1.85449 2.56776.84048h2.42511l1.99715 2.15524 2.1398 2.71041 1.99715 1.14123 1.56919 1.14123v1.28388l-.71327 2.28245-.71327 1.85449-.42796 2.28245.85592 1.14123h1.85449l.9008.14265.66839 1.42653-.66839 2.43819v2.02768l-1.61406 2.85307-1.42653 2.28245h-2.1398l-.99857 2.75403 1.56919 1.71184 1.99715-1.14123 1.85449-1.14123 2.85307.14265 1.99715.85592 1.85449.85592 3.13837.71327.85592 1.14123h2.42511l1.56919 1.56919 1.56919 1.14123 1.42653 1.56919 1.85449 1.14123 1.21463 1.52357 2.20905 1.18684.99857 1.14123 1.99715.28531.85592 1.71184 1.42653 1.14123 2.1398 1.99715 2.42511.71327 1.99715.28531 2.42511.57061 1.42653 1.99715 2.09908-.71327 2.03786.71327 1.99715.85592 2.28245.57061.99857.85592h2.71041l1.56919-.85592 2.85307-.28531 1.85449-.28531 1.56919-1.28388 1.42653-1.28388.70108-1.42653 1.29606-.57061 1.28388 1.56919 1.42653-1.56919 1.09654-.99857 1.56919-.42796 1.99715-.85592 2.56776.85592 1.42653.42796.14265-2.42511.42796-1.28388-1.56919-.85592-1.99715-1.75745-.99857-2.52215-1.28388-2.1398-.85592-1.28388v-1.85449l-1.42653-1.99715-2.28245-1.99715-2.1398-1.56919-2.71041-.28531-1.99715-.52109.71327-2.1398 2.42511.28531 1.56919-1.56919-2.1398-1.42653.14265-1.99715-.71327-1.42653-2.56776-.14265h-2.42511l-2.28245.57061-2.56776-.28531-.85592-1.85449 1.14123-1.42653 2.1398-.85592-1.14123-1.85449-2.56776-.71327-2.1398-.71327-.71327-1.28388V2.16011l2.1398-.57061 2.28245-.14265-.14265-1.71184-.99857-1.71184-1.85449-.42796-2.28245.14265-.85592 1.85449-.57061 1.42653-1.70787.57061-1.28785-.42796L8.96482.73357l.42796-1.85449 1.56919-.99857-1.28388-1.14123-.42796-1.86403.42796-1.55965 1.71184.57061.85989 2.1398 2.13583-1.15077-1.42653-2.41557v-1.42653l.71327-1.28388 1.71184-1.71184.99857-1.71184 1.56919-1.42653.14265-1.99715-1.71184-.28531-1.71184-.14265-2.42114-.71327.7093-1.56919 1.14123-1.56919.57061-1.71184.42796-2.03522-1.85449-.67519-2.1398.67519H9.6781l-1.42653-.81785.28531-1.56919 2.42511-1.28388 2.1398-.42796 1.14123-1.14123-1.99318-1.71184-2.28642-.99857-.75706-1.84564 3.04348-.71327v-1.28388l-2.18756-.71327-1.85449-.28531-.42796-1.28388 2.42511-1.42653.42796-1.56919-.71327-1.42653-1.28388-.71327 1.28388-1.56919-.28531-1.99715-2.1398-.28531-1.42653.57061-2.28245.14265s-.42796.14265-.99857.71327c-.57061.57061-1.28388.85592-1.28388.85592l-1.99715.78046h-2.1398l-2.42511-.92312-1.42653-.85592-1.26465 1.77904h-3.58557l-1.71184 1.7873-1.28388 1.42653-2.42511-.28531.71327-2.92852z" stroke-linecap="round"/>
  <path style="stroke:#e11f1f;stroke-width:1;stroke-dasharray:none;stroke-linecap:butt;stroke-dashoffset:0;stroke-linejoin:miter;stroke-miterlimit:4;fill:#54742c;fill-rule:nonzero;opacity:1" vector-effect="non-scaling-stroke" transform="translate(223.05 173.48)" d="m27.17705-40.23382-1.28388 2.42511-1.71184-.28531-1.85449 1.14123-.42796 1.99715.28531 1.47077-.71327 1.95291-2.28245 1.56919-2.23469-.14265-2.75818-1.56919-1.99715 1.71184-1.28388 1.71184-1.56919 2.71041-1.85449 1.28388-2.56776 1.99715-1.42653 1.14123 1.42653 2.1398 3.85164 2.1398 1.85449 1.71184-1.14123 3.70899 1.42653 2.85307 2.42511 1.56919 2.85307 2.56776 3.70899 2.98097 2.56776.28531 1.42653 2.56776 1.71184 1.99715.71327 1.71184 2.1398 1.39994.71327 1.45313.99857 1.56919 2.28245.57061 2.99572.71327s1.36017.42796 1.50283.85592c.14265.42796 1.06493 2.85307 1.06493 2.85307l-.28531 2.28245.99857 2.71041 2.1398 1.85449 2.56776.85592 2.85307-.71327 1.99715.71327-.14265 1.85449-.28531 1.42653.14265 1.99715s1.56919 1.28388 1.99715 1.28388c.42796 0 1.56919.71327 1.56919.71327s.85592.84412.85592 1.27208c0 .42796-.85592 2.42511-.85592 2.42511l-1.71184 1.28388-.99857 2.42511-1.42653.99857-1.28388.99857-.99857 1.14123-.14265 2.42511 1.14123 1.71184 1.85449 2.32472 1.42653 2.66815 1.28388 1.85449-.14265 1.85449-.57061 1.71184-2.42511.85592H46.0073l-1.71184.99857-.99857.28531-1.14123.99857-1.56919 1.85449-1.85449 1.56919-1.7782.57061-2.78671-.14265-1.99715.28531-1.71184.42796-2.28245 1.85449-2.56776-.99857-2.1398-1.56919-1.71184-3.13837-1.42653-2.56776-1.56919-1.99715-1.14123-1.56919-1.42653-1.85449-.57061-1.99715-1.71184-1.95488-.71327-3.03799-.42796-1.56919-1.56919-1.42653-2.1398-.71327-2.1398-1.71184-2.28245-1.99715-1.56919-1.71184-2.28245-1.42653-2.1398-1.14123-2.42511-1.85449-1.99715-.85592-1.56919 1.28388-2.1398-.85592-2.1398-.99857-1.71184-.85592-.85592-1.12749 2.1398-2.72415.71327-1.85449-.14265-1.85449-2.28245-.85592-1.28388 1.14123h-1.99715l-1.71184-.14265-1.28388-.28531-1.56919-.71327-1.43583.28531-2.70112-1.56919-.99857-1.14123-1.56919-1.14123-1.99715-1.14123-2.99572-1.85449-1.85449-1.42653-1.71184-1.42653-1.14123-2.42511-.28531-2.56776-.71327-1.42653h-2.1398l-1.89232.42796-1.95932-1.85449-.71327-1.42653-1.57235-1.42063-2.1398.14265-2.42511-.57061-.57061-1.71184v-2.42511l1.42653-2.1398 2.1398-1.85449 1.71184-.99857.57061-1.85449-.42796-2.1398 1.99715-.85592 1.96248-.99857 1.31855-1.14123.57061-2.56776-.14265-2.28245 3.85164-4.99287-5.59815.28531-2.53309-1.42653-1.56919-2.1398.28531-3.70309.14265-3.13837 1.71184-2.1398 2.71041-2.85307 1.85449-1.71184 1.99715-1.14123 3.28103-1.71184.71327-2.37264v-2.42511l1.14123-1.73385.99857-1.83249 1.14123-.99857 1.14123-1.28388.85592-1.71184-1.14123-1.42653-.14265-1.28388.85592-1.85449 1.42653 1.71184 2.28245-1.14123 2.84693-.85592 2.43124.28531 2.28245.57061 2.42511 1.28388 1.71184.28531 1.14123 1.14123 1.99715-.14265 2.42511 1.85449 1.71184 1.28388 1.71184 1.42653 1.28388 1.14123 1.56919 1.54718 1.85449 1.16323 2.42511.99857 1.85449 1.99715 1.56919 1.71184 1.56919 1.14123 1.99715.99857h2.28245l2.1398.71327 1.28388 1.56919.42796.85592 1.90542-.57061h1.51826l2.1398.95496 2.85307 1.14123z" stroke-linecap="round"/>
  <path style="stroke:#e11f1f;stroke-width:1;stroke-dasharray:none;stroke-linecap:butt;stroke-dashoffset:0;stroke-linejoin:miter;stroke-miterlimit:4;fill:#416fde;fill-rule:nonzero;opacity:1" vector-effect="non-scaling-stroke" transform="translate(128.31 171.89)" d="m-15.68239-25.5648 1.42687.47562 1.42687.59453 1.9025.59453 1.9025.47562 1.42687.71344 1.30797 1.18906.83234 1.07015.71344 1.54578.47562 2.14031.83234.83234 1.66468 1.42687 1.42687.83234 1.42687.47562 1.9025.35672.47562.94743L4.53162-9.5125l1.9025 1.18906 1.42687 1.07015.47562 1.54578.11891 1.18906 1.07015 1.18906 1.54578 1.42687 2.73484.83234 1.66468.71344s.47562.95125 0 2.0214-1.42687 1.78359-1.42687 1.78359l-2.35245 1.30797.68776 2.85375-.11891 2.37812-.56885 2.25922-1.21474 2.85375v2.25922l.47562 2.37812.73911 2.0214v2.0214l-2.4038 1.78359-2.49703-.59453-3.09156-.59453-1.66468-.59453-2.0214-1.07015H-1.4137l-2.25922-.71344-2.25922-.23781-1.54578 1.42687-2.25922.47562-1.9025-1.42687-1.66468-.71344-2.37812-.23781z" stroke-linecap="round"/>
  <path style="stroke:#e11f1f;stroke-width:1;stroke-dasharray:none;stroke-linecap:butt;stroke-dashoffset:0;stroke-linejoin:miter;stroke-miterlimit:4;fill:#f9b481;fill-rule:nonzero;opacity:1" vector-effect="non-scaling-stroke" transform="translate(139.58 223.67)" d="m1.24851-45.42652 1.66468 1.07015 1.07015 1.54578.47562 1.78359.11891 2.25922.95125 1.9025L7.0749-35.2006l2.14031.35672 2.49703-.47562 2.37812.11891 2.85375 1.18906 2.25922 1.30797 2.73484 1.30797 2.61593 1.66468 1.30797 1.66468 1.30797 3.32937.71344 1.9025v2.25922l-.83234 2.0214-1.07015 1.78359-.23781 2.73484.11891 2.61593-1.78359 1.18906-2.73484.11891-3.09156.59453-1.42687 1.42687-.35672 2.49703-.11891 1.9224-.71344 1.88259-1.42687 1.9025-2.25922 1.9025H9.80976l-1.66468.95125-1.07015 1.18906-2.61593.95125-1.30797.11891-1.07015.71344L.42459 7.36779l-2.50542.59453-2.73484 2.14031-.95125 1.78359-.47562 2.73484-.35672 3.45956.59453 1.54578.59453 2.0214.71344 1.30797v2.14031l-1.42687 2.73484-1.30797.59453-2.73484.59453-2.25922.95125-1.66468 1.18906-1.30797 1.54578 1.30797 1.07015 2.25922.59206h2.25922l.71344 1.96115.23781 1.0115s-.71344.83234-.71344 1.42687c0 .59453.23781 2.0214.23781 2.0214l-2.61593.83234-2.25922.47562-1.78359 1.18906-2.73484.47562-3.09156.23781-2.49703.83234-2.49703.59453h-1.30797l.71344-75.48911 1.9025-.23781 1.30797.47562 1.78359.95125 1.54578.83234 1.05476-.23781 1.20445-.71344 1.54578-.95125 1.66468.23781 1.66468.35672 1.9025.11891 1.30797.71344 2.37812.95125 2.25922.71344 2.14031.59453 1.54578-.35672 1.78359-.95125.60292-1.78359v-1.78359l-1.07855-2.14031-.23781-2.25922.71344-3.07532.60292-2.14031z" stroke-linecap="round"/>
  <path style="stroke:#e11f1f;stroke-width:1;stroke-dasharray:none;stroke-linecap:butt;stroke-dashoffset:0;stroke-linejoin:miter;stroke-miterlimit:4;fill:#c6ecc5;fill-rule:nonzero;opacity:1" vector-effect="non-scaling-stroke" transform="translate(163.12 342.43)" d="m-50.83794 78.44993 2.14031-1.54578 2.85375-.83234 2.71945-1.07015 2.27461-1.07015 2.97265-.47562 2.25922-.71344 3.44828-1.54578 2.25922-.95125 1.30797-.59453 1.78359-.71344h2.37812l1.9025-.83234 1.66468-.59453 1.66468-.83234 2.49703-.47562 2.49703-.11891 3.32937.59453 2.37812.35672 2.49703.11891 2.88592.11891 2.10814.83234 2.85375.83234 2.25922.47562-.59453-2.14031-.71344-2.25922-.35672-1.9025-.23781-2.14031.23781-2.0214 1.07015-2.73484 1.78359-3.44828 1.30797-1.78359 1.42687-2.37812 2.14031-1.9025 1.78359-1.78359 1.9025-2.0214.71344-2.61593.23781-2.70775-.11891-4.06989-.11891-3.44828V26.7258l1.54578-2.97265 2.37812-2.73484 1.9025-1.9025 2.25922-.71344 2.61593-1.54578 2.0214-1.5934.11891-2.25922-2.73484-.71344-1.42687-2.14031 1.9025-1.9025.95125-2.61593v-2.0214L24.54854.75664l-1.66468-2.37812-.47562-1.42687.47562-2.85375.59453-2.61593 1.9025-1.54578 1.73382-1.50202 2.0214-.71344 1.18906-1.42687 1.18906-1.78359 1.30797-1.18906 2.25922-.35672 1.79419-.23781 3.31877-.71344 2.85375-.47562 2.49703-.71344 1.30797-.71344 1.07015-1.66468 1.30797-.87274 1.78359-1.62429.47562-1.66468-1.54578-1.54578-1.54578-1.07015-1.78359-1.54578-1.66468-1.18906-.71344-2.25922.35672-2.61593-.35672-2.73484-.95125-2.37812-1.18906-1.37214-3.32937-4.21644-2.49703-2.75741-.83234-2.0214-2.0214-1.9025-2.14031-1.07015-1.54578-1.30797v-2.25922l-1.07015-2.14031-2.97265-2.3246-2.61593-1.5993-2.61593-1.07015-3.58037-1.3443-1.18708-.95125-2.37812-.47562-2.14031-.59453-1.54578-.95125-1.54578-.95125-1.54578-1.07015-2.37812.23781-2.49703-.23781-1.42687-1.54578-.83234-.83234-1.9025-1.54578s-1.54578.71344-1.66468 1.54578c-.11891.83234-.95125 1.42687-.95125 1.42687l-1.78359.83234-.83234.95125-.95125 1.66468-1.54578.83234-1.9025-.95125h-2.14031l-2.37812-.83234-1.54578-.83234s-1.66468-.83234-2.14031-.95125c-.47562-.11891-3.80499-1.9025-4.28062-1.9025-.47562 0-2.0214-1.30797-2.0214-1.30797l-.95125-1.78359-1.18906-.83234-1.66468-.59453-2.25922-.35672-1.78359 1.07015-2.14031.59453-2.25922.95125-2.97265.59453-2.0214.59453-4.6343.83234-2.25922.35672-.71344 2.73484.11891 4.51843z" stroke-linecap="round"/>
  <path style="stroke:#e11f1f;stroke-width:1;stroke-dasharray:none;stroke-linecap:butt;stroke-dashoffset:0;stroke-linejoin:miter;stroke-miterlimit:4;fill:#4c1c43;fill-rule:nonzero;opacity:1" vector-effect="non-scaling-stroke" transform="translate(215.94 383.81)" d="m-25.10542-28.19767 1.42687-1.42687.71344-2.0214 1.18906-1.66468 2.85375-.47562 1.66468-.47562h2.14031l1.30797-.47562.83234-.83234 2.73484-.95125 1.66468.59453 1.42687 1.30797 1.42687.11891 1.07015-1.78359L-2.87-35.2131l.83234 1.18906 1.42687-.35672 2.0214-.71344 2.65335-.11891 1.50836-.59453 1.30797-1.9025-.35672-2.37812 1.66468-1.66468 2.25922-1.07015 2.61593-.98796 2.25922.51234.71344-.51234 1.42687-1.86578h2.61593l.83234-1.30797 1.54578-.47562.95125 1.18906 1.66468.59453 1.78359 1.18906.23781 1.54578.47562 2.73484 1.18906 1.30797.59453 1.54578.35672 2.37812v1.9025s1.30797.23781 1.42687.71344c.11891.47562 2.14031.35672 2.14031.35672l2.0214.95125 3.32937.71344 1.07015 1.42687.95125 2.0214 2.0214 1.42687 2.73484.95125 1.78359 1.9025 1.30797 2.97265 1.07015 1.66468.71344 3.21046-2.37812 2.0214-2.25922 1.30797-1.5797 2.25922v1.66468l-2.70092 2.61593.23781 2.2705 2.4631.95125 1.81752 1.66468.59453.95125 1.07015 1.54578.95125 1.18906 1.18906 2.49703s.59453 2.0214.47562 2.49703c-.11891.47562-.71344 3.32937-.71344 3.32937s-1.07015 1.54578-1.18906 2.0214c-.11891.47562-.35672 1.07015-.35672 1.07015l-3.21046 1.0935h-2.73484l-2.25922 1.52243-1.78359 2.25922-2.14031 3.09156-1.78359 3.21046.11891 3.9239 1.66468 3.23304s.95125 1.54578 1.07015 1.9025c.11891.35672.23781 2.73484.23781 2.73484l-2.14031.59453-1.9025 1.07015-.71344 2.0214s.83234 2.0214.59453 2.37812c-.23781.35672-2.49703 1.66468-2.49703 1.66468l-.95125 1.42687-2.49703.23781-6.30202-1.30797-10.34483-2.61593-5.58859-1.18906-6.06421-1.42687-7.25327-1.30797-6.18312-1.54578-5.23187-1.87795h-4.04281l-4.99405-1.45142-3.32937-1.18906-5.5561-2.14031-3.80499-1.18906-3.32937-.47562-3.68609-1.66468-.83234-3.21046-.71344-3.09156.11891-3.56718 1.30797-3.32937 1.54578-3.32937 1.54578-2.14031 1.30797-2.0214 1.9025-2.0214 2.37812-2.25922 1.30797-1.66468 1.07015-2.14031.35672-3.11457.23781-2.59292-.23781-2.73484-.35672-3.40699v-2.25922l1.30797-2.37812 1.54578-2.25922 1.9025-1.66468 2.0214-1.07015 2.0214-1.07015 1.78359-1.07015 1.78359-1.18906z" stroke-linecap="round"/>
  <path style="stroke:#e11f1f;stroke-width:1;stroke-dasharray:none;stroke-linecap:butt;stroke-dashoffset:0;stroke-linejoin:miter;stroke-miterlimit:4;fill:#438201;fill-rule:nonzero;opacity:1" vector-effect="non-scaling-stroke" transform="translate(228.05 314.61)" d="m-35.70639-32.15597 1.18906-2.45727.47562-2.41788.83234-1.66468 2.49703-1.42687 3.21046.47562 2.37812.71344 2.97265 1.07015 3.21046.83234 3.68609-.11891 3.68609-.11891 1.18906 1.18906 1.66468 1.46663h1.9025l2.25922 1.86274 2.25922 1.07015 2.73484 1.07015 2.37812 1.18906 2.25922.23781 3.32937-.23781 3.54404-.23781 2.94906 1.30797 2.85375 1.18906 1.9025 1.9025 1.78359 1.78359 2.25922 1.78359 2.61593.71344 2.37812.59453 2.37812 1.07015 2.0214 1.66468 1.18906.59453.11891 1.9025-1.30797 1.78359v2.49703l2.0214 1.78359 2.0214.83234 2.25922 1.54578 1.07015 1.42687-.59453 1.9025s.95125 1.78359 1.07015 2.14031c.11891.35672 1.07015 2.85375 1.07015 2.85375l-.95125 3.09156-.23781 2.25922-2.25922.59453-3.44828.47562-4.63734-.47562-2.25922-.59453-2.85375-.83234-1.42687 1.9025.59453 3.80499-1.66468.95125-2.0214.59453-2.37812.23781-2.0214 1.30797-2.37812 1.78359-1.42687 2.37812-1.42687 3.09156-2.0214-.72967-1.30797.83234-1.30797.95125-1.42687.59453-1.42687.95125-1.07015.60297-1.66468-.60297-2.0214.60297-2.37812 1.41844-1.9025 1.30797-.71344 1.07015-.11891 2.25922-.95125 1.42687-1.9025.47562-3.80499.95125-1.42687-.35672-1.07015-.83234-1.30797-1.07015-1.18906 1.07015-.83234.83234-1.66468-1.30797-1.42687-.71344-1.78359.11891-1.54578 1.07015-1.30797.59453-1.18906.47562-1.54578-.47562-1.42687.59453-2.33443.47562-1.78359.71344-.95125 1.30797-.47562 1.78359-.83234 1.54578-1.54578-.23781-1.54578-.71344-.95125-1.07015 1.42687-2.49703.71344-2.61593.11891-1.9025-.71344-1.9025-1.18906-2.25922-1.18906-1.53734-.23781-2.50546.47562-2.0214.47562-1.78359 1.42687-1.18906 2.85375-1.42687 2.25922-1.54578 1.07015-1.54578 1.18906-1.78359 4.21296-.71344 1.97016-.23781 3.09156-.59453 2.85375-.71344 2.73484-1.07015 1.66468-1.78359 1.54578-1.0855 1.07015-1.88715.35672-1.9025-.83234-1.30797L-15.13867-.781l-1.54578-1.07015-1.30797-1.07015-1.30797-.59453-.47562-1.07015-.11891-1.66468V-8.9855l-.23781-2.14031-.47562-1.78359-.71344-1.70381-2.0214-1.86089-.95125-1.42687-1.9025-1.66468-.95125-1.18906-1.78359-2.25922-.47562-1.30797-1.42687-1.30797-1.9025-1.18906-1.18906-.59453-.83234-.83234v-2.25922z" stroke-linecap="round"/>
  <path style="stroke:#e11f1f;stroke-width:1;stroke-dasharray:none;stroke-linecap:butt;stroke-dashoffset:0;stroke-linejoin:miter;stroke-miterlimit:4;fill:#56bccb;fill-rule:nonzero;opacity:1" vector-effect="non-scaling-stroke" transform="translate(179.56 245.84)" d="m-13.81647-35.25565 2.25922-.59453 1.66468.23781 2.14031.83234 2.37812.71344 2.49703.95125 2.37812 1.66468 1.66468 2.49703 1.42687 2.14031 1.30797 2.97265.95125 1.54578 1.07015 1.30797 2.0214.47562 1.66468.23781 2.14031.23781 3.80499.23781 2.49703 1.42687 2.38568 1.78359 2.96509.95125 2.49703 1.30797 2.0214 2.25922 2.73484 1.42687 1.9025 1.54578 1.78359 1.9025 1.18906 1.3566-.35672 2.4484-.71344 2.37812v2.37812l1.66468 2.14031 3.56718 1.42687 2.37812 1.9025 2.85375-.11891 2.25922-.47562 2.25922.83234 2.0214 1.66468 1.54578 2.14031.23781 3.28288 1.30797 2.42461-.71344 3.32937-.11891 2.73484s-.35672 1.30797-.83234 1.30797-2.85375.23781-2.85375.23781-2.37812-.47562-2.85375-.47562h-2.25922l-1.54578 2.14031-.71344 3.09156-1.66468 1.78359-2.37812.95125-2.0214-.23781-3.80499-.35672h-2.14031l-3.44828-.47562-3.09156-1.07015-2.49703-1.18906s-2.25922-.47562-2.73484-.47562c-.47562 0-2.0214.23781-2.0214.23781l-1.66468 1.66468-1.30797 1.66468-.59453 2.14031-.59453 2.25922-2.85375-1.6874-2.0214-1.99869-2.37812-1.07015-2.49703-1.07015L.436 28.95365l-2.59971-.71344-2.61593-.83234-2.37812-1.18906-1.54578-1.18906-1.66468-.83234-1.9025.35672-1.9025-.23781-1.30797-.95125-1.30797-1.30797-.95125-1.07015-1.18906-.59453-1.42687.83234-.95125 1.07015-.71344 1.30797-1.66468.83234-1.07015 1.54578-1.07015 1.07015-.71344.59453-1.54578-.71344-2.14031-.47562-1.54578-.35672-2.25922-1.07015-1.07015-.47562-3.16373-1.18906-2.61593-1.07015-1.42687-1.07015-.83234-1.66468-1.07015-1.07015-1.42687-.59453-1.66468-.23781-1.18906-.35672v-4.0428l-.71344-1.18906-1.30797-.35672-1.66468-.35672-1.66468-.47562-.71344-.71344 1.07015-1.66468 1.66468-.59453 3.21046-1.30797 2.73484-.95125 1.54578-2.25922.11891-2.14031-.59453-2.25922-.59453-1.66468-.71344-1.54578v-1.61605l.47562-4.09144 1.66468-2.37812 2.14031-1.54578 2.26761-.35672 1.65629-1.42687 1.07015-.95125 2.14031-.23781 1.9025-1.30797 1.78359-1.30797 1.9025-.47562 1.66468-.71344 1.42687-1.30797 2.0214-2.25922.83234-1.63983.11891-3.11641.83234-1.9025 1.30797-.95125 2.49703-.11891 2.49703-.47562 1.9025-.83234z" stroke-linecap="round"/>
  <path style="stroke:#e11f1f;stroke-width:1;stroke-dasharray:none;stroke-linecap:butt;stroke-dashoffset:0;stroke-linejoin:miter;stroke-miterlimit:4;fill:#2e8aa9;fill-rule:nonzero;opacity:1" vector-effect="non-scaling-stroke" transform="translate(185.36 192.82)" d="m27.2991 43.96648 2.37812-1.18906 1.54578-1.07015 2.25922-.83234 2.25922-.23781 2.25922-1.07015 1.42687-1.66468 2.15759-.35672 3.09156-.11891 2.14031-.83234.35672-1.42687.23781-1.78359 2.25922-.95125 1.66468-.47562 2.0214-1.42687-.59453-2.0214-1.42687-1.32688-.59453-1.40796-.23781-2.73484-1.78359-1.54578-1.78359-.59453-1.78359-1.30797-2.0214-1.54578-1.78359-1.78359-1.54578-1.54578-2.0214-1.18906-1.78359-1.18906-2.14031-1.30797-1.66468-.71344-1.42687.71344-1.9025-.11891-2.14031-.95125-2.37812-1.54578-1.07015-1.23175.83234-1.7409 1.42687-1.30797.35672-1.54578V.80359L24.34376.20906 23.03579.9225l-1.9025.35672-2.14031-.23781L17.3283.9225 16.02033.20906 13.64221.09015l-2.25922-1.78359L9.5994-2.8825 7.45909-4.30937 5.31878-5.85515 2.94066-7.40093.32473-9.18452l-1.07015-2.54712-.23781-1.78359-.23781-1.78359-1.78359-.59453-2.3537.47562-1.5702-.95125-1.18906-1.66468-1.30797-1.66468-2.0214-.35672-2.49703-.23781-1.18906-2.14031-.11891-2.25922 1.07015-2.25922 2.14031-1.66468 1.66468-1.31925.95125-1.18906v-2.37812l-3.9239-.11891h-2.61593l-1.42687-.23781-.95125-1.78359-.83234-1.18906-2.73484-.47562-2.49703.35672-.9506.95125-1.0708 2.0214-.95125 1.78359-.95125 1.9025-2.0214.59453-2.73484.23781-.59453-1.07015.35672-2.28808-.47562-3.3005-.47562-1.54578-1.12505-2.25922-1.07015-1.42687-.95125-1.42687-.95125-1.18906h-1.30797l-1.9025.47562-1.42687 1.07015-.83234 1.30797-.47562 1.78359-1.0384 1.18906v1.42687l-1.69644.47562-1.66468 1.18906-1.30797.59453-1.66468.59453-1.30797.35672-.35672.68457 1.07015 2.16918 1.42687.95125 1.54578.83234.59453 1.66468.35672 1.07015.83234 1.30797 1.18906 1.18906 1.66468.71344 1.42687.59453 1.18906.59453.83234.47562.35672 1.18906-.11891 1.30797-1.07015.83234-1.18906 1.18906-.83234.47562-.59453.59453.59453 1.07015 1.18906.83234 1.18906 1.42687.35672 1.07015.35672 1.30797.23781 1.54578.47562 1.66468 1.54578 1.78359 1.66468.95125 1.78359-.35672 2.25922-.47562 2.49703.83234 2.49703.47562 2.67147 1.9025 3.03602 1.54578 1.9025 1.66468.95125 1.54578.83234 2.25922.95125 1.80228.23781 1.64599-.47562 2.61593-1.18906 2.37812-.59453 2.97265.47562 1.30797 2.37812-.59453 2.37812.11891 2.14031.95125 3.21046 1.18906 3.21046 1.66468 1.18906 1.78359 1.30797 1.54578 1.18906 2.4206.71344 1.6335.83234 1.9025 2.0214 1.66468 2.61593.23781 2.61593.23781 3.44828.11891 1.9025 1.54578 2.71903 1.54578 2.03721.83234 2.49703.71344 1.78359 1.78359 1.78359 1.55707 1.9025 1.07015z" stroke-linecap="round"/>
  <path style="stroke:#e11f1f;stroke-width:1;stroke-dasharray:none;stroke-linecap:butt;stroke-dashoffset:0;stroke-linejoin:miter;stroke-miterlimit:4;fill:#b20dd5;fill-rule:nonzero;opacity:1" vector-effect="non-scaling-stroke" transform="translate(289.74 398.86)" d="m-27.87179-39.60136 2.85375.74426 3.32937 1.03933 2.73484 1.42687 2.25922 2.0214 2.97265 1.66468 2.85375 2.0214 2.97265.83234 3.44828 1.07015 3.21046.95125L1.0224-26.2839l2.25922 1.30797 3.32937 2.37812 1.07015 2.85375 2.57772.23781 1.82181-.59453 2.25922-.11891 2.25922-.23781 1.54578-2.0214 2.37812-2.61593 1.54578 2.14031.71344 2.0214.83234 2.73484 2.0214 1.66468 3.09156 1.30797 3.32937.47562 1.56306 1.42687.71344 2.14031v3.44828l-.35672 2.61593.95125 3.09156 1.18906 3.16995 2.49703 2.06192 2.0214 1.66468 2.25922.47562 2.14031 1.07015.71344 1.78359-.47562 1.66468-2.25922.83234-1.42687 3.09156.35672 2.85375-.23781 2.14031h-2.61593l-1.9025.83234-1.30797 2.0214-2.0214 1.9025-2.49703.23781-2.37812.47562-2.49703.11891-3.44828-.35672-3.32937-.23781-1.18906-.83234-3.68609-.47562-1.9025 1.9025-.95125 3.80499s-1.83909 2.0214-1.72018 2.73484c.11891.71344.53112 2.85375.53112 2.85375l-2.61593 1.43816S6.7472 36.8665 6.27157 36.7476c-.47562-.11891-1.66468-.95125-1.66468-.95125l-1.54578-.71344-2.0214 2.37812-.47562 2.14031-6.30202-1.54578-4.87515-.95125-4.04281-.23781-3.68609-1.07015-4.63734-.71344-4.99405-.95125-6.30202-.47562-4.63734-.59453-4.10074-.11891-2.73484-.35672 2.61593-1.66468 2.25922-1.18906.59453-1.54578-.23781-1.78359.23781-1.54578 1.18906-.59453 1.78359-.71344 1.18906-1.07015-.11891-2.73484-1.07015-1.66468-.95125-1.54578-.95125-1.78359v-2.73484l.71344-2.37812.95125-1.66468 1.18906-1.42687 1.30797-2.0214 1.18906-1.54578 1.18906-.83234 1.18906-1.00305h2.73484l2.37812-.54273 1.30797-1.42687.71344-1.78359.71344-1.66468.35672-1.9025-.23781-2.37812-.71344-1.78359-.83234-1.9025-1.07015-1.18906-.83234-1.18906-.95125-1.42687-1.82872-1.07015-1.61956-.83234-.47562-.90793.47562-1.82691 1.61956-1.54578.52075-1.78359 1.66468-2.25922 2.37812-1.54578 1.9025-1.42687.11891-2.66603-.59453-1.78359-1.54578-2.0214-.95125-1.66468z" stroke-linecap="round"/>
  <path style="stroke:#e11f1f;stroke-width:1;stroke-dasharray:none;stroke-linecap:butt;stroke-dashoffset:0;stroke-linejoin:miter;stroke-miterlimit:4;fill:#c063ce;fill-rule:nonzero;opacity:1" vector-effect="non-scaling-stroke" transform="translate(272.11 344.34)" d="m-2.19976-24.34089 2.0214 1.59499 1.42687 1.54578 2.14031 1.66468 2.37812.83234 2.11896.35672 1.80494-.23781 1.9025.83234 2.37812 1.18906 1.9025.71344 3.44828 1.18906.95125 1.66468.23781 2.0214 1.18906 2.0214 1.78359 1.18906s1.54578 1.54578 1.54578 1.9025c0 .35672.47562 1.52035.47562 1.52035l1.66468 2.28464 2.14031 2.0214 2.37812 1.18906 1.07015.95125.11891 2.0214-.95125 1.30797-1.18906 1.78359-.71344 2.25922-1.30797 3.80499-.82991 2.37648s-1.42931 1.54742-1.78602 1.66633c-.35672.11891-4.16171 1.30797-4.16171 1.30797l-3.56718 2.0214-2.73484 1.42687-3.80499 2.0214-2.25922.23781-3.32937-1.42687-2.85375-1.78359-2.73484-1.9025-2.85375-1.9025-2.73484-1.18906-2.14031-.47727-2.25922-.9496-2.77997-.71344-2.5708-1.18906-1.07015-1.54578-.83234-1.78359-1.30797-.83234-2.14031-.59453-1.42687-.71344-1.54578-.23781-1.30797-.11891-1.42687-.71344-.35672-1.18906-.47562-2.0214-.47562-2.14031-1.30797-1.66468-.71344-2.14031-.23781-2.0214-1.9025-.95125-1.66468-1.30797.76343-2.73484 2.09031-2.73484 1.78359-1.42687 2.14031-.83234 1.78359-1.07015 2.61593-.59453 1.78359-.71344.59453-1.78359-.47562-1.78359.47562-1.66468.83234-.71344 2.85375.83234 2.61593.71344 1.9025.59453h2.85375l1.42687-.35672 1.78359-.47562 1.42687-.71344z" stroke-linecap="round"/>
  <path style="stroke:#e11f1f;stroke-width:1;stroke-dasharray:none;stroke-linecap:butt;stroke-dashoffset:0;stroke-linejoin:miter;stroke-miterlimit:4;fill:#886b26;fill-rule:nonzero;opacity:1" vector-effect="non-scaling-stroke" transform="translate(280.02 308.25)" d="m-17.95482-11.71225 1.78359-1.78359 1.07015-1.42687 2.0214-1.9025 2.49703-1.30797 1.54578 1.18906 1.18906 2.0214 2.0214 1.54578 1.78359.71344 2.37812.71344 2.61593.83234 2.0214 2.0214 2.37812.84579 1.9025-.60797 2.37812.60797.83234 2.7214.11891 2.25922.59453 2.25922-.47562 1.54578-1.66468 1.07015-1.30797 2.25922-1.18906 2.49703v2.73484l.59453 2.0214 1.18906 1.42687 3.21046.23781 2.61593-.23781 2.61593-.79512h2.14031l-1.07015 2.3409-2.37812 1.18906-3.80499.83234-3.56718.11891-2.49703 1.07015-2.25922.83234-2.25922-.35672-3.21046-.59453-2.37812-1.07015-1.66468-1.18906-1.18906-1.18906-1.78359-1.42687-1.07015-1.07015.11891-2.73484V6.12368l-1.18906-2.25922.11891-2.73484-.71344-1.07015-1.30797-1.54578-1.54578-.71344-2.37812-1.30797-1.78359-1.30797.11891-2.37812 1.18906-2.0214z" stroke-linecap="round"/>
  <path style="stroke:#e11f1f;stroke-width:1;stroke-dasharray:none;stroke-linecap:butt;stroke-dashoffset:0;stroke-linejoin:miter;stroke-miterlimit:4;fill:#966b68;fill-rule:nonzero;opacity:1" vector-effect="non-scaling-stroke" transform="translate(303.33 316.46)" d="m-14.50654-17.36029 1.78359-1.30797 2.25922-1.78359 1.9025-.47562 3.44828 1.18906 1.78602 1.9025 2.01897 2.49703.71344 1.07015 1.30797 1.54578 2.49703 1.66468 2.25922.59453.23781 1.66468-.11891 1.78359 1.42687 2.49703 1.9025 2.0214 1.42687 1.42687 2.25922 2.85375 1.30797 2.73484.47562 2.25922 1.54578 2.0214.23781 2.49703.50184 2.73484 1.04394 2.61593.95125 1.66468.23781 1.78359-2.85375.83234-3.21046-.59453-3.44828-.35672-3.44828-.95125-3.21046-1.66468-2.37812-1.78359-2.73484-1.07015-2.49703-.83234-2.73484.11891-3.32937.11891-2.14031-1.07015-2.0214-.95125-3.80499-1.54578 2.61593-1.42687 3.09156-.83234h3.68609l3.9239-2.0214 2.26165-2.52614h-10.46617l-2.25922-1.15995-.59453-2.25922.47562-3.56718 2.14031-2.97265 2.0214-2.0214-.23781-4.75624-.59453-2.0214z" stroke-linecap="round"/>
  <path style="stroke:#e11f1f;stroke-width:1;stroke-dasharray:none;stroke-linecap:butt;stroke-dashoffset:0;stroke-linejoin:miter;stroke-miterlimit:4;fill:#42ffa8;fill-rule:nonzero;opacity:1" vector-effect="non-scaling-stroke" transform="translate(261.97 251.41)" d="m9.25131 39.41117 2.73484-1.54578 2.85375-.95125 1.30797-1.78359s1.18906-1.9025 1.30797-2.37812c.11891-.47562 1.66468-3.21046 1.66468-3.21046l.95125-1.54578 1.30797-2.61593 2.0214-2.61593 1.42687-1.9025 2.61593-1.30797.23781-1.78359-1.42687-2.0214.83234-2.61593 1.30797-1.9025 3.21046-2.64124 3.32937-1.63938 3.09399-1.96388 2.37569.35672 2.14031 1.18906 2.0214.35672.47562-2.85375.35672-2.97265 1.30797-2.37812 1.18906-2.97265.95125-3.9239-.95125-2.49703-2.37812-2.37812-1.54578-2.37812.23781-2.32307-1.78359-1.9025.11891-1.9025-1.30797-3.32937.11891-2.49703-1.07015-2.14031-2.85375-.59453-2.37812 1.66468-3.09156.59453-3.09156-1.42687-1.18906-2.75989-.11891-2.37812-1.42687-1.78359-2.61593-1.07015-3.32937-.83234-2.16166-3.09156-1.76224-2.49703-2.61593-1.30797-1.66468 1.07015-1.18906 1.66468-1.18906 1.9025-1.66468 1.18906-1.42687 1.78359-.11891 1.78359 1.78359 1.9025 1.42687 2.33664 1.07015 1.82507.95125 1.42687.83234 1.9025-.59453 2.61593-1.78359 1.07015-3.21046.59453-2.49703 1.18906-1.54578 1.42687-1.07015 1.54578-2.0214 1.18906-1.70981 1.18906-1.97627-.47562h-2.37812l-1.78359.47562-1.42687 1.18906-1.42687.83234-1.9025-.95125-2.37812-1.42687-1.42687-2.0214-1.54578-2.73484-1.30797-2.37812-1.54578-2.0214-2.0214-2.49703-1.73686.71344-1.78359.71344-1.42687.47562-1.42687 1.18906-.23781 2.0214-.83234 1.07015-2.0214.23781-2.49703.35672-1.54578.35672-1.42687 1.54578-.95125.59453-1.9025.71344-2.49703.35672-1.78359.83234-1.54578.83234-2.14031 1.07015 1.66468 2.0214.71344 1.78359-.95125 2.25922v1.9025l.11891 2.49703 1.18906 1.66468 2.25922.95125L-41.11809.8542l2.14031.11891 3.68609-.47562 2.25922.59453 1.78359 1.78359 2.49703 1.78359v2.49703l.11891 1.43295.83234 2.25314v2.0214l-.35672 1.9025-.59453 2.61593-.59453 1.30797-2.49703.23781-2.97265-.23781-1.54578-.35672-1.30797.83234-.83234 1.42687-.71344 2.25922-1.18906 1.91378-1.56629.95125-1.52527.71344 1.52527 2.15888 1.44739-.6131 1.9025 1.66468 1.66468 1.18906 3.56718 1.66468 3.09156.95125h3.21046l4.63734-.23781 2.73484 1.07015 3.32937 1.07015 2.37812 2.14031 2.85375 2.56089 2.49703 1.07015 2.61593.83234 2.37812 1.54578 2.25922 1.54578 1.66468-.23781 1.42687-1.30797 1.54578-2.14031 1.54578-1.54578 2.37812-1.18906z" stroke-linecap="round"/>
  <path style="stroke:#e11f1f;stroke-width:1;stroke-dasharray:none;stroke-linecap:butt;stroke-dashoffset:0;stroke-linejoin:miter;stroke-miterlimit:4;fill:#0b5ad9;fill-rule:nonzero;opacity:1" vector-effect="non-scaling-stroke" transform="translate(281.78 170.69)" d="m-8.53227-48.72837 3.32937-1.95883h2.25922l1.66468-.89491 2.25922-.83234 2.49703.59453.95125 2.61593 1.42687 2.37812 1.42687.95125 2.49703.59453 2.61593.95125.95125 1.9025s-2.0214.71344-1.9025 1.18906c.11891.47562 1.07015 1.54578 1.07015 1.54578v2.49703l1.18906 2.61593.47562 3.21046 1.42687 2.49703 2.61837 3.56718 1.54334 1.54578 2.97265 1.30797-.47562 1.9025s1.78359 1.9025 2.14031 2.14031c.35672.23781 1.66468 2.49703 1.66468 2.49703l.35672 1.9025 3.32937 1.42687 1.54578 1.89373.59453 1.55455-.23781 1.42687-.11891 1.66468.47562 3.09156 2.49703 1.66468 1.78359-.47562 1.92871 1.30797-2.64215 2.0214-2.14031 2.25922-1.42687 2.97265-.95125 3.56718 1.18906 2.0214 2.0214.95125 2.14031-.95125 1.80981.59453 3.06534-1.42687 2.85375 2.25674 2.0214 1.78359 2.14031 2.0214 2.0763 1.79488 2.37812 1.07015.11891 1.78359 1.42687 1.78359-1.42687 1.18906-2.25922-.47562-2.37812 1.18906 1.54578 1.78359.59453 2.49703-2.14031 2.25922-3.09156 2.97265-.59453 2.61593-1.07015 3.39323-.59453 2.37812-2.25922-.71344-2.4068-.23781-2.70616.95125-1.54578 1.54578-2.0214.95125-2.37812.23781-2.61593.35672-2.25922 1.07015-2.0214 1.78359-1.42687 1.78359-2.25922-.59453h-1.78359l-2.85375 1.42687h-2.61593l-2.37812-1.07015-1.54578-2.0315-.23781-2.84365-.35672-1.66468-1.66468-1.07015-2.49703-.71344-2.25922-1.07015-1.54578-1.54578-2.49703-3.09156-1.66468-1.07015-1.78359-.35672.35672-2.49703-2.0214-2.14031-2.14031-1.93638v-4.60346l-1.95131-.59453-1.9025.71344-2.49703-.35672-2.14031-1.18906-1.54578-1.78359-.11891-2.61593.11891-2.37812-.71344-1.78359-1.18906-1.18906-2.0214-.83234-2.37812-.35672-1.54578-.83234-.83234-2.19797s-1.42687-1.36921-1.54578-.77468c-.11891.59453-1.66468-1.42687-1.66468-1.42687l-.47562-1.66468-1.42687-1.66468-1.30797-2.25922-1.42687-.23781-1.66468-.59453-3.04764-2.0214-1.35188-1.66468-1.66468-1.18906-2.14031-1.66468-1.07015-1.42687-.47562-2.25922.71344-2.61593-.23781-1.18906-1.9025-1.18906-1.9025-.93501-2.14031-1.30797-.35672-1.66468 2.14031-1.54578 2.49703-1.54578 1.42687-2.25922 1.54578-2.37812 1.9025-1.9025 2.37812.95125 2.37812.11891 2.49703-1.18906 1.30797-1.9025v-1.42687l.35672-2.25922 1.54578-1.30797 1.9025-.23781 1.30797-1.66468 1.54578-.95125 2.49703-.35672 2.37812-.60582 1.66468-1.30797 1.25676-1.78359.76465-.83234 1.54578 1.30797 1.78359-1.30797 1.66468-1.18906 2.0214-.71344 1.54578-.35672 2.49703.35672 1.18906-.71344z" stroke-linecap="round"/>
  <path style="stroke:#e11f1f;stroke-width:1;stroke-dasharray:none;stroke-linecap:butt;stroke-dashoffset:0;stroke-linejoin:miter;stroke-miterlimit:4;fill:#7f1b74;fill-rule:nonzero;opacity:1" vector-effect="non-scaling-stroke" transform="translate(294.55 104.27)" d="m-56.61049-65.88841 3.44828.11891 2.0214 1.50085h7.8478l1.42687 2.06633 1.30797 3.09156 2.85375.23781 2.61593-1.07015 4.87515-.35672 3.09156-.35672 3.32937.83234 4.28062 2.85375 2.0214.83234 2.94522-3.21046 1.57321-2.0214 2.49703-.95125 3.9239.23781 1.51633 1.42687 2.37812-.11891 3.32937-1.42687 2.37812 1.07015 2.40392 1.42687 3.42248 1.30797 3.21046 1.30797 1.66468 2.37812 1.66468 1.54578 2.61593 1.9025 2.25922 2.49703 2.25922-.35672 1.9025-1.78359 2.0214-.71344 3.21046.23781 3.44828.35672.95125 2.49703 1.9025 1.07015L39.07945-46.15l2.49703 1.88135 1.54578 1.80474 1.07015 3.09156-.11891 1.07015 1.38133 4.28062v6.65874s.52117 1.42687.52117 2.61593.83234 3.56718.83234 3.56718l1.9025 2.37812 1.07015 2.61593.59453 1.07015 1.07015 1.9025 2.25922-.71344 2.49703-1.54578 1.66164 1.9025 1.07015 1.07015-1.66468 1.54578.23781 1.9025-1.42687.71344-2.0214.59453-.59453 2.61593s.59453 1.78359.59453 2.25922c0 .47562-.35672 1.9025-.71344 2.0214-.35672.11891-2.37812 1.18906-2.37812 1.18906l-2.61593 1.07015-1.54578 1.18906-2.14031 2.61593-3.09156 2.14912-2.0214 1.66468-2.25922.95125-.23781 3.56718-1.78359 1.42687-3.09156 1.54578-1.78359 2.85375-.35672 2.37812.59453 1.66468-.23781 1.54578 2.49703 1.78359 2.49703 1.9025.23781 1.07015-.47562 3.15542-.35672 2.85505-1.18906 2.0201-1.66468 1.78359-.83234 1.42687-.95125 3.32937-1.42687 3.39323-.11891 3.09156 1.07015 2.0214 1.18906 2.93388.35672 2.9038.71344 1.9025-1.78359 1.78359-1.9025 1.78359-2.80113 1.78359-1.12277-.83234-1.54578-.23781-1.42687-.11891-1.54578-1.42687-.59453-1.9025-.11891-3.09156-.47562-2.54708-.95125-1.61463-1.9025-1.18906-1.66468-1.07015-1.66468-2.85375s-.95125-1.66468-1.30797-1.78359c-.35672-.11891-1.07015-1.54578-1.07015-1.54578l.23781-1.54578-1.54578-1.07015-2.37812-1.54578-3.09156-3.09156-1.30797-2.68977-.59453-2.89881-1.07015-3.44828-.11891-2.49703-1.07015-1.9025 2.14031-1.30797-1.30797-1.9025-1.54578-.59453-3.68609-.83234-1.66468-1.66468-1.42687-2.25922-.59453-1.66468-2.25922-1.07015-2.61593.83234-2.05293 1.21035h-2.0214l-1.78359 1.60459-2.0214.71344-1.78359-1.30797-1.30797-1.9025-1.30797-2.0214-.95125-2.37812-.47562-1.9025-.83234-2.25922-1.66468-1.42687-1.54578-1.30797-2.14031-.95125-2.61593-.71344-1.66468-.47562.47562-1.78359 2.14031.35672 1.9025-2.0214-2.37812-.95125.35672-2.37812-.83234-1.30797-3.32937-.59453-1.66468.23781-2.73484.47562-2.49703-.47562.11891-2.14031 2.49703-1.5433-.71344-1.18906-2.0214-.95125-2.37812-.83234-1.30797-1.18906v-2.0214l2.37812-.71344 2.25922-.35672-1.07015-2.0214-.47562-1.07015-2.37812-.83234-1.66468.47562-1.30797 2.25922-1.91347 1.78359-2.84277-.71344.11891-2.25922 1.78359-1.07015-1.78359-1.54578-.11891-2.61593 2.14031.71344.70246 2.0214 2.15129-1.41681-1.54578-2.80876.83234-2.14031 2.49703-2.49703 1.78359-2.25922.59453-2.49703-3.44828-.23781-2.86472-.59453 2.15129-3.10284.71344-2.85375-.11891-1.00873-2.74582-.77486-2.36714.77486-1.54578-1.13158 1.30797-1.66468 3.56718-1.30797 1.54578-1.07015-1.9025-1.96636-2.61593-.83234-1.07015-1.66468 3.08058-.71344v-2.0214l-2.60496-.23781-1.78359-1.07015 2.25922-1.78359.59453-1.54578-.83234-1.42687-1.18906-.83234z" stroke-linecap="round"/>
  <path style="stroke:#e11f1f;stroke-width:1;stroke-dasharray:none;stroke-linecap:butt;stroke-dashoffset:0;stroke-linejoin:miter;stroke-miterlimit:4;fill:#0c3951;fill-rule:nonzero;opacity:1" vector-effect="non-scaling-stroke" transform="translate(375.79 87.67)" d="m-47.75655-35.07481 4.16171-.23781 2.14031-1.54578 3.80499-.83234 3.9239-.23781 5.23187-.11891h4.28062l2.85375-1.78359 4.16171-1.66468 4.04281 1.07015 3.44828 2.49703 4.39952.95125 3.56718.71344h2.85375l2.61593-.71344 1.9025-1.42687 2.61593-1.18906h4.04281l3.71762-.71344 2.73484-.83234h4.63734l4.16171.95125 4.16171-.23781h3.80499l2.61593 1.07015 3.56718-.83234 6.06421.11891-.59453 71.81431-4.28062 1.54578h-3.9239l-4.99405.23781-4.39952-.35672-2.49703.71344-5.23187 1.66468-4.16171 1.78359-3.32937.59453-3.32937-1.42687-2.85375-.83234-3.94733-1.78359s-.45219-1.79478-1.87907-1.55697c-1.42687.23781-4.87515 1.20025-4.87515 1.20025l-1.42687 2.73484-3.32937.35672-3.9239-1.07015-3.68609-.35672-1.78359 1.42687-2.85375 2.0214s0 2.61593-.35672 2.73484c-.35672.11891-2.73484.11891-2.73484.11891l-3.44828-.83234-4.64854-1.66468-2.85375-.83234-2.2001-1.66468-2.79396-2.0214-2.37812-2.1515-2.49703-1.7724-.71344-2.0214.71344-2.0214 3.9239-2.37812 3.09156-2.0214 2.49703-2.49703 3.21046-1.9025 3.09156-1.9025.71344-1.66468-.47562-1.81856V9.74787l2.37812-1.54578 1.30797-1.30797.35672-1.30797 1.42687-1.54578-2.0214-1.78359-.83234-.83234-2.14031 1.07015-2.61593.59453-1.42687-1.66468-.95125-2.73484-.95125-1.78359-1.66468-1.66468-.35672-2.9125-.89213-2.31937v-2.14031l.53541-3.32937-.53541-3.08908-.89146-2.37812-.23781-2.49703-.83234-2.0214-1.18906-2.22531-1.9025-1.22296-2.0214-1.18906-2.25922-.71344-2.14031-1.30797z" stroke-linecap="round"/>
  <path style="stroke:#e11f1f;stroke-width:1;stroke-dasharray:none;stroke-linecap:butt;stroke-dashoffset:0;stroke-linejoin:miter;stroke-miterlimit:4;fill:#d2b373;fill-rule:nonzero;opacity:1" vector-effect="non-scaling-stroke" transform="translate(368.39 163.34)" --d="M54.42393-43.98589v7.60999l-.11891 56.26514-1.9025 3.56718-3.32937 2.0214-4.04281.83234-4.63734.11891h-3.9239s-3.32937-.11891-3.68609 0c-.35672.11891-4.16171 0-4.16171 0l-2.73484.71344-3.21046 1.42687-4.04281 1.54578-4.39952 3.09156-4.04281 2.61593s-2.14031 3.32937-2.25922 3.9239c-.11891.59453-2.49703 3.80499-2.49703 3.80499l-2.49703 1.42687-4.75624-.23781-2.61593-1.78359-2.0214-2.37812-1.92939-.83234-3.18358-.71344.23781-2.37567 1.42687-1.54823.95125-1.66468.56764-2.73484.85923-3.32937.83234-3.21046.23781-3.68609-1.92939-3.21046-2.58905-3.09156-1.30797-4.75624-1.78359-.47562-1.78359 1.78359-3.85381.11891-2.49703-.83234-2.73484.23781-3.45013.11891-3.68423-.11891-2.14031.35672-1.9025 1.18906-3.21046 1.30797-1.07015-1.42687-1.66468-2.0214-2.25922.47562-2.37812 1.66468-1.69032 1.9025-3.18483 1.78359-1.9025-.35672-.95125-1.66468 2.0214-2.73484 2.61593-2.14031 2.73484-2.37812 2.14031-1.54578 2.97265-2.85375-.35672-3.09156-.47562-2.73484-1.18906-2.61593-1.07015-2.73484.95125-3.44828 1.9025-4.51843 1.54578-2.97265 1.66468-2.37812.83234-3.39323.23781-1.9025-.35672-1.9025-.71344-1.30797-1.66468-1.42687-2.14031-1.18906-.59453-1.42687v-2.0214l.59453-3.21046 1.42687-2.0214 1.42687-.86115 1.54578-.92244 1.42687-.71344 1.9025.71344 2.14031 1.78359 1.66468 1.54578 2.85189 2.37812 1.66654 1.18906 2.14031.83234 2.25922 1.07015 1.66468.59453 2.25922.59453 1.30797.11891 3.09156.83234 2.25922-1.42687.23781-2.25922 1.9025-1.66468 1.78359-1.30797h2.49703l2.97265.83234 3.09156.47562 2.49703-.23781.83234-.83234.71344-1.66468 1.66468-.71344 2.37812-.47562 1.53666-.11891 1.24389 1.30797 1.13423.83234 2.14031.95125 3.44828 1.07015 1.78359.95125 1.78359.35672 2.73484-.59453 3.68609-1.42687 2.49703-1.07015 1.78359-.59453 1.9025-.59453 2.0214-.59453 1.9025.11891 3.09156.23781h2.61593l2.25922-.11891h2.61593l1.78359-.23781z" stroke-linecap="round"/>
  <path style="stroke:#e11f1f;stroke-width:1;stroke-dasharray:none;stroke-linecap:butt;stroke-dashoffset:0;stroke-linejoin:miter;stroke-miterlimit:4;fill:#9de3d0;fill-rule:nonzero;opacity:1" vector-effect="non-scaling-stroke" transform="translate(368.18 224.98)" d="m-35.90659-23.50405 1.78359.47562 1.78359.47562 2.14031 1.78359 1.30797 2.61593-.47562 3.32937.35672 3.44828.83353 2.85375 1.78241 2.7987 1.18906 3.21046.83234 2.0214 1.42687 2.97265 1.66468 1.42687 1.42687 2.0214 1.9025.23781 1.18906-1.30797.71344-2.14031.35672-1.9025.95125-1.78359 2.85375-.47562 4.51843.35672 3.09156-1.66468L.24087-4.97858l2.97265-.86353 4.28062-.83234L9.75336-5.6043l.47562 2.0214 1.59452 1.54578s1.73484 1.07015 2.32938 1.66468l1.66468 1.66468 1.54578 2.25922 1.54578 1.9025-.35672 1.42687-1.78359 1.07015-1.42687 1.30797-1.42687 1.91378.83234 2.25922.95125 2.14031 2.0214.47562 2.0214.23781s1.54578.83234 1.78359 1.30797c.23781.47562.59453 1.42687.47562 1.9025-.11891.47562-1.30797 2.14031-1.30797 2.14031l-1.9025 1.54578-1.42687 1.78359-.35672 3.03651 1.9025 2.37812.83234 2.49703.23781 2.14391 1.30797 2.10918v1.66468l1.78359 1.78359 2.0214 1.42687 2.13423 1.35806 1.30797 1.66468.83234 1.66468.59453 2.25922 1.8622 1.30797 3.01295 1.54578 3.80499.23781h3.9239l3.21046-.95125 2.14031-.71344h2.37812l2.97265 1.42687 1.42687.47562-.23781-93.50531-2.0214 3.09156-1.54578 1.78359-4.75624 1.18906h-3.32937l-3.44828.23781-5.11296-.11891h-2.97265l-3.21046.23781-2.73484.83234-2.73484.95125-2.85375 1.42687-2.25922 1.18906-1.54578 1.07015-1.78359 1.18906-2.3233 1.42687-1.36279 1.07015-.95125 1.54578-1.18906 2.37812-1.66468 2.61593-1.54578 1.78359-2.49703 1.07015-3.80499-.35672-2.61593-1.18906-1.30797-1.78359-1.42687-1.54578-2.25922-.95125-2.61593-.23781-.35672-2.6611 1.18906-1.61952 1.30797-2.0214 1.1012-3.80499 1.15802-4.39952.59453-3.44828-1.75255-3.21046-1.33901-2.0214-1.66468-2.0214-.59453-1.54578-.23781-1.9025-1.18906-1.30797-1.30797.59453-.59453.95125h-5.35077l-1.30797-.47562h-8.19844l-2.37812.47562h-1.42687l-.71344.71344-1.78359 1.18906-2.37812.59453-.95125-.59453-1.07015-1.18906-.95125-1.54578-1.66468.11891-1.54578.71344-1.07015 1.18906-1.18906 1.66468-1.66468.95125-1.78359 1.07015-1.18906-.11891-1.54578-.59453-.71344-.71344-.59453 1.66468-.11891 1.9025 1.9025 2.0214 1.78359-.35672 1.42687-.11891 1.40428.35672 2.40072-1.30797 2.25922 1.42687 1.78359 1.18906 1.54578 1.30797 2.0214 1.42687 1.78359 1.42687 1.07015 1.18906 1.66468.83234.71344.83234.23781 1.30797.71344 1.07015.11891 1.42687-.95125 1.42687-1.54578-.59453-1.30797-.11891-1.54578.95125.59453 1.54578z" stroke-linecap="round"/>
  <path style="stroke:#e11f1f;stroke-width:1;stroke-dasharray:none;stroke-linecap:butt;stroke-dashoffset:0;stroke-linejoin:miter;stroke-miterlimit:4;fill:#df9ab1;fill-rule:nonzero;opacity:1" vector-effect="non-scaling-stroke" transform="translate(352.95 243.87)" d="m-43.9866 5.5817 2.37812-.23781 1.9025 1.07015 2.49703 2.85375 1.9025 1.07015 2.35552 2.97265 2.28181 2.82101 1.18906 3.2432 1.30797 2.61593 1.18906 2.37812 1.78359 2.25922 2.37812 2.14031 2.25922 1.18906 1.66468 1.42687v2.37812l2.61593 2.85375 3.33055 1.65092v1.78359l2.85256.35672 4.63734-.95125 1.9025-1.07015 5.23187.59453 5.37574.11891 2.47206-.59453h3.68609l1.66468-1.78359 2.14031-1.66468 3.44828-.47562 3.9239.95125s2.30796.36153 2.66468.59934c.35672.23781 3.16172 1.77878 3.16172 1.77878l3.44828 1.9025 3.21046 2.49703 3.09156-.83234s.95125-2.37812 1.30797-2.37812c.35672 0 2.0214-.71344 2.0214-.71344h1.32525l2.43336-1.18906 1.37163-1.06534.95125-1.19387.23781-1.54578-1.07015-1.18906-1.49054-1.18906-1.83883-1.18906-.71344-1.9025-1.07015-2.37812-2.97265-2.85375-2.25922-1.07015-1.78359-2.37812-.23781-2.0214-1.18906-1.08912v-2.83478l-1.07015-1.78359-1.78359-2.25922.47562-2.37812.59453-1.9025 1.78359-1.54578 1.42687-1.9025.71344-1.66468-.59453-1.66468-1.78359-1.07015-1.78359-.23781-1.78359-.75619-.83234-1.50303-1.07015-2.61593L31.06043-9.652l2.14031-2.0214 1.18906-1.66468-1.54578-2.14031-1.42687-2.14031-1.9025-1.9025-2.46557-1.30797-1.10162-1.54578-.47562-2.37812-1.54578-.95125h-1.78359l-1.78359.35672-2.61593.95125-2.49703.528-2.49703.89887-2.25922 1.42687-1.66468.83234-1.77591.59453-2.62361-.23781h-1.9025l-2.0214.47562-1.30797 1.66468-.35672 1.78359-.83234 2.14031-.95125 1.42687-1.66468-.23781-.95125-1.30797-1.54578-1.54578-1.07015-1.54578-1.07015-2.14031-1.30797-2.97265-1.30797-2.61593-1.08626-2.14031-.81624-2.73484-.11891-2.65474.23781-2.25922-.47562-2.89256-1.42687-2.0214-1.42687-1.30797-2.85375-.95125-1.42687-.11891-1.54578 1.66468-1.07015 1.30797-1.07015.95125-.83234.71344-.47562 1.66468-.35672 1.42687-.59453 1.42687-.35672 1.78359-.35672 2.14031-1.54578-.35672-1.66468-.23781h-1.82347l-1.55775.35672-1.30797.47562-.83234.83234-.83234.71344-1.18906.35672-1.30797.35672-1.42687.23781-2.0214.11891-1.18906.59453-1.42687.59453-1.18906 1.31906-1.30797.94016-1.07015 1.18906v4.63733l.59453 1.30797.59453 1.18906v2.49703l1.07015 1.30797.59453 1.18906v1.42687l.47562 1.66468 1.54578 1.54578 1.66468 2.0214.59453 1.66468V.85298l-.83234 2.25922z" stroke-linecap="round"/>
  <path style="stroke:#e11f1f;stroke-width:1;stroke-dasharray:none;stroke-linecap:butt;stroke-dashoffset:0;stroke-linejoin:miter;stroke-miterlimit:4;fill:#59c7ed;fill-rule:nonzero;opacity:1" vector-effect="non-scaling-stroke" transform="translate(288.66 278.23)" d="m17.41974-20.10502-.35672 1.87472.23781 2.16809-.23781 1.54578-.83234 1.54578-2.0214 1.42687-2.37812.71344-1.18906 1.18906-.71344 1.42687.47562 1.18906-.11891 1.66468v1.30797l1.05834 1.18906V.46572l-.70163 1.30397-.11891 2.14431.82053 2.37812v2.37812l1.43868 1.18906 1.54578 1.66468-.35672 1.30797-2.62774.83234-2.72303 1.18906-1.54578 1.18906-1.78359 1.30797-1.66468.95125-1.66468 1.54578-1.54578 1.07015-1.18906.11891-1.66468.73322-2.85375-.73322-1.07015-1.18906-1.66468-1.18906-2.14031-.59453-2.49703-.71344-2.49703-1.42687-1.42687-1.30797-.83234-2.0214 4.28062-1.66468 2.14031-1.54578 1.42687-2.49703.91566-2.49703 1.58137-2.61993 1.78359-2.25522 1.42687-2.61593 1.66468-2.14031 1.54578-1.30797 1.54578-.71344.59453-1.78359-1.66468-2.0214.47562-2.0214 1.54578-2.25922 1.54578-1.42687 2.85375-1.45465 1.42687-1.28019 1.9025-.95125 1.77178-1.30797 2.62774.47562 1.9025.95125z" stroke-linecap="round"/>
  <path style="stroke:#e11f1f;stroke-width:1;stroke-dasharray:none;stroke-linecap:butt;stroke-dashoffset:0;stroke-linejoin:miter;stroke-miterlimit:4;fill:#4e61bb;fill-rule:nonzero;opacity:1" vector-effect="non-scaling-stroke" transform="translate(319.41 273.94)" d="m-10.2438-24.49465 1.9025-.35672 2.0214.83234 1.18906 1.42687 1.18906 1.42687 2.25922 1.42687 1.54578 2.0214 1.42687 1.66468 1.54578 1.54578.47562 1.66468 1.07015 2.25922.83234 2.14031.95125 1.78359 1.07015 1.78359 1.18906 1.66468 2.25922 1.54578L13.29959.11888l1.07015 1.18906.35672 2.14031 1.42687 2.0214 1.78359 1.42687 2.65169 1.18906v1.54578l-1.10591 1.18906-2.14031.59453-1.30797 1.54578-1.18906 1.07015-.83234.59453-1.9025.35672-.35672 2.0214-.83234.59453-2.61593-.23781-.83234 2.37812-.83234 2.73484-1.42687 1.42687-1.30797.95125-1.9025-1.07015-1.4149-.95125h-1.79556l-2.0214-.59453-1.42687.11891-1.66468-.47562-1.9025-.95125-1.66468-.95125-2.14031-.83234-2.37812-.71344-2.14031-1.30797-.11891-1.9025-2.14031-1.78359-.60634-2.85375-.82053-1.9025V6.89651l.82053-1.9025V1.18902l-.93944-1.42687.11891-1.78359-.35672-2.14031 1.17725-1.66468 1.7954-.95125 2.14031-1.18906 1.78359-1.78359.59453-2.37812-.11891-1.81137.47562-1.87472.11891-2.25922.71344-2.37812.23781-2.0214z" stroke-linecap="round"/>
  <path style="stroke:#e11f1f;stroke-width:1;stroke-dasharray:none;stroke-linecap:butt;stroke-dashoffset:0;stroke-linejoin:miter;stroke-miterlimit:4;fill:#7c23d3;fill-rule:nonzero;opacity:1" vector-effect="non-scaling-stroke" transform="translate(322.37 304.1)" d="m1.78359-4.99405.71344 2.25922L3.9239-.71343 6.06421.83235l2.37812.59453h2.14031l3.09156.11891 2.14031.23781h1.81934l2.34237-.23781 1.78359.23781h2.49703l2.25922-.11891-.11891 2.0214 1.42687 1.30797.59453 1.54578-1.30797 1.54578-1.30797 2.14031-.95125 1.30797-.59453 1.42687-2.49703-.23781-1.18906-1.78359-1.54578-.59453-2.0214-.59453-1.18906-.47562-1.42687 1.07015-.95125 1.30797-2.49703.35672-2.73484-.95125-2.0214-1.18906-3.80499.23781-3.44828.95125-2.97265-1.66468-1.78359-1.30797-3.80499-2.14031-2.14031-.95125-1.66468-1.42687-.83234-1.66468-1.30797-.47562-2.49703-1.9025-1.66468-1.9025-1.30797-1.72252-1.31978-1.72575-1.89069-1.30797-1.78359-.71344-2.37812-.71344 3.21046-1.9025 2.25922-1.30797 1.42687-.59453 1.42687-.59453 2.25922.83234 2.73484 1.18906 1.78359.71344 2.61593 1.42687 1.66468.83234 1.78359.47562h1.18906l1.9025.11891 1.79556.11891 1.89053 1.07015z" stroke-linecap="round"/>
  <path style="stroke:#e11f1f;stroke-width:1;stroke-dasharray:none;stroke-linecap:butt;stroke-dashoffset:0;stroke-linejoin:miter;stroke-miterlimit:4;fill:#dbf2e1;fill-rule:nonzero;opacity:1" vector-effect="non-scaling-stroke" transform="translate(355.6 306.44)" d="m-6.48038-1.07377 2.37812-1.18906 1.30797-.59453 1.07015-.95125.35672-1.66468-.11891-1.66468-.11891-2.25922v-.71344l1.18906-.59453 2.61593-.35672 1.54578-.95125 1.66468-1.54578.47562 2.25922L6.95598-9.5161l.83234 3.075s.23781.72999.47562 1.44343.35672 2.73484.35672 2.73484L7.90722.2342l-.11891 1.9025-1.30797 1.66468-1.54578 1.30797-1.54578.47562-1.30797.83234L-.0595 8.2009l-1.66468 1.18906-.83234 1.07015 1.18906 1.42687-.23781 1.67191-3.44828-1.55301-1.18906-.47562-2.37812-.83234.35672-1.78359 1.30797-1.66468 1.30797-1.78359.83234-1.18906-.23781-1.18906-1.18906-.83234-.59453-1.54578z" stroke-linecap="round"/>
  <path style="stroke:#e11f1f;stroke-width:1;stroke-dasharray:none;stroke-linecap:butt;stroke-dashoffset:0;stroke-linejoin:miter;stroke-miterlimit:4;fill:#b7eab8;fill-rule:nonzero;opacity:1" vector-effect="non-scaling-stroke" transform="translate(360.05 292.17)" d="m1.24851.59453 1.9025-1.54578h2.49703l2.37812-.59453 2.49703-.23781 1.42687.59453 2.14031.47562 2.61593.35672 2.14031.23781 1.10162 2.0214h1.98994l2.0214-.59453 1.18906-.83234 3.21046-.95125 1.54578.59453.47562 1.78359 1.07015.71344 2.37812-.95125L35.01782.1189l.23781-1.66468-.95125-1.9025-1.54578-.59453-1.9025-.83234-1.66468-1.30797-2.73484-2.14031-2.37812-1.42687-2.14031-1.07015-2.49703-1.3483-2.49703-.6731-1.9025-.47562-2.14031-.11891-2.25922.35672-1.66468.91091-1.30797 1.58611-1.18906 1.07015-2.49703.23781-1.66468-.11891-2.37044.47562h-1.07784l-2.25922-.11891-3.09156-.23781-1.78359-.23781-2.61593.11891-1.30797.95125-2.14031.59453h-5.72359l-2.24311 1.18906-1.66468 1.07015-1.18906 1.54578-1.42687 1.18906h-1.78359l-.59453 2.14031-.95125.59453-2.0214-.35672-.71344 1.42687-.59453 2.14031-.83234 1.78359-1.18906 1.18906.35672 2.49703 1.07015 2.14031 1.66468 1.42687 2.14031.83234 3.21046.23781h2.85375l3.21046.11891 2.73484.11891h2.0214l2.73484-.11891h1.66468l1.54578-.59453 2.49703-1.18906 1.07015-1.18906.35672-1.9025-.11891-1.9025.11891-2.14031 1.18906-.83234 2.25922-.47562 2.62361-.95125z" stroke-linecap="round"/>
  <path style="stroke:#e11f1f;stroke-width:1;stroke-dasharray:none;stroke-linecap:butt;stroke-dashoffset:0;stroke-linejoin:miter;stroke-miterlimit:4;fill:#267be0;fill-rule:nonzero;opacity:1" vector-effect="non-scaling-stroke" transform="translate(405.66 292.19)" d="m16.71584-14.8038.35672 12.96076-2.72799-.23781-1.79044-.47562h-1.9025L9.22476-1.48632l-.11891 2.49703s-.35672 1.78359-.35672 2.14031c0 .35672.83234 2.61593.83234 2.61593l-.83234 2.73484-1.42687 1.66468-1.07015 2.73484-1.54578 1.30797-1.42687.83234-2.25922 1.66468-1.9025.23781-2.25922-.23781-1.54578-1.18906s-1.78359-.71344-2.25922-.71344c-.47562 0-1.78359-.23781-1.78359-.23781l-2.14031-.59453s-1.30797-.35672-1.78359-.47562c-.47562-.11891-2.0214-.59453-2.0214-.59453l-2.0214-1.66468s-.47562-1.78359-.35672-2.14031c.11891-.35672 1.18906-2.61593 1.18906-2.61593l.83234-2.14031.59453-1.9025 1.9025-.59453 1.66468-.83234.47562-1.78359-.47562-1.9025-1.30797-.83234-1.54578-.71344-1.66468-1.42687 2.49703-1.07015 1.07015-1.9025 2.0214-.95125 2.25922-.59453 1.88556-.83234 1.44381-1.18811.59453-1.42782 1.07015-1.78359 3.21046.11891 3.09156.23781 3.21046-.71344 2.14031-.59453 1.9025-.59453 2.37812.11891 1.54578.95125z" stroke-linecap="round"/>
  <path style="stroke:#e11f1f;stroke-width:1;stroke-dasharray:none;stroke-linecap:butt;stroke-dashoffset:0;stroke-linejoin:miter;stroke-miterlimit:4;fill:#7d518d;fill-rule:nonzero;opacity:1" vector-effect="non-scaling-stroke" transform="translate(388.24 315.37)" d="m34.25207-24.79191.83234 48.51367-3.32252.35672-1.67153 1.07015-1.18906.83234h-1.9025l-1.54578-.83234s-1.78359-.52224-2.37812-.52224-2.97265 1.11677-2.97265 1.11677l-2.61593-.11891-1.9025-.99786-2.49703-1.02354-3.9239 1.02354H6.19024L4.88227 22.6516l-1.9025-1.66468-1.66468-.11891-3.68609.11891-3.80499-1.07015s-1.58649-.71344-2.06212-.95125c-.47562-.23781-2.57522-.95125-2.57522-.95125h-2.61593l-2.0214-1.18906-3.21046-.59453-.35672-2.49703-1.54578-1.78359-2.37812-1.66468-3.70033-1.78359-2.49703-2.0214-1.42687-1.85398h-3.44827l-.11891-1.35648-.95125-1.66468 2.61593-2.61593 2.25922-1.78359 1.97115-.47562 2.42837-2.0214.95125-1.42687.71344-2.97265.35672-2.49703-.71344-3.18573-.71344-1.68942-1.18906-2.49703-.83234-1.78359.71344-1.66468 1.9025-1.18906 2.14031.11891 2.37812-.59453 2.49703-.23781 2.37812.71344 2.49703.47562 3.09156.47562 1.4004 1.9025 1.92897.47562 1.66468-1.07015 1.9025-.95125 1.78359-.47562 1.66468-.23781 1.18906 1.66468.83234 1.42687-.59453 1.9025-1.07015 2.25922-.95125 2.25922.95125 2.25922 2.25922 1.54578 2.97265 1.18906 2.61593.47562 2.0214.47562 1.9025.83234 1.78359 1.07015 2.25922.23781 2.73484-.83234 2.14031-1.30797 1.54578-1.54578 1.18906-1.78359 1.07015-1.66468 1.07015-2.23448.71344-1.57051.11891-2.0214-.83234-1.66468-.11891-3.09156.95125-1.9025 1.78359-.35672 2.0214.71344z" stroke-linecap="round"/>
  <path style="stroke:#e11f1f;stroke-width:1;stroke-dasharray:none;stroke-linecap:butt;stroke-dashoffset:0;stroke-linejoin:miter;stroke-miterlimit:4;fill:#015a14;fill-rule:nonzero;opacity:1" vector-effect="non-scaling-stroke" transform="translate(366.8 336.47)" d="m-44.33572.17836 1.78359 1.54578 1.07015 1.80579.95125 1.99921 1.66468 1.18906 2.49703.71344 2.25922 1.30797 1.42687 1.42687 1.18906 1.18906 2.49703 1.54578 1.18906 1.54578 1.01037 2.14031 2.43791 1.9025 1.30797 1.30797 1.78359 1.54578-2.25922 2.18629-1.07015 1.4998 3.9239.35672 2.97265.83234 2.25922.83234 3.09156.71344 3.9239-.11891 2.97265-.71344s2.0214-.95125 2.0214-1.42687c0-.47562.59453-2.97265.59453-2.97265l.35672-2.61593 1.42687-1.9025 1.78359-1.42687 1.66468-.71344 3.21046-.11891 3.56718.11891 3.09156-.95125 2.61593-2.0214 1.9025-2.61593 3.05907-.71344 2.85375-1.30797 3.21046.35672 2.73484.47562 3.32937.59453 1.2331 1.66468-1.11419 3.09156.47562 2.85375 2.25922 1.30797 3.32937 1.42687 3.21046-1.18906s1.07015-1.66468 1.42687-1.78359c.35672-.11891 2.61593-.83234 2.61593-.83234l1.78359.95125 1.18906 1.78359.23781 2.49703 1.66468 2.06738 2.25922-.64051 1.9025-2.14031 2.73484-2.25922-.71344-15.57669-3.26155-.11891-1.6136.73563-.47562 1.16686-2.61593.47562-1.78359-.59453-1.54578-1.04796s-1.66468-.11891-2.0214 0c-.35672.11891-2.25922 1.64249-2.25922 1.64249l-2.14031-.47562-1.78359-1.16686h-1.54578l-1.30797-.73563-2.14031.73563h-3.44828l-1.66468-.85454L25.31073.7729l-1.54578-.95125-2.25922.23781h-2.0214l-2.85375-.47562-2.85375-1.07015-1.66468-1.07015-1.54578-.11891-2.0214.11891-1.98892-1.07015-1.9025-.59453-1.78359-.47562-.83234-1.78359-.11891-1.30797L.37293-9.21519l-1.66468-1.18906-2.0214-.59453-2.61593-1.54578-.86835-1.07015-1.03415-1.18906-.47562-.83234-1.78359-.35672-2.0214-.47721h-1.78359l-2.37812-1.18748-2.0214-.71344-2.0214-.35672-2.37812-.47562-1.07015-1.66468-1.54578-.95125-2.14031-.71344-1.42687-.11891-1.78359 1.78359-2.14031.71344h-1.66468l-1.54578-.59453-1.78359-.59453-.95125-.47562-2.73484.11891-2.14031.59453-1.54578.23781-2.61593-1.42687-2.0214-1.66468-2.49703-1.07015-2.0214-1.07015-1.78359-1.07015-1.07015-.59453.11891 1.9025 2.49703 3.21046 1.78359 1.9025 1.66468 1.78359 1.18906 1.66468.47562 2.49703.83234 1.9025 1.07015 1.07015.74877 1.54578v2.73484l.79701 2.73484.71344 1.66468.83234 1.9025z" stroke-linecap="round"/>
  <path style="stroke:#e11f1f;stroke-width:1;stroke-dasharray:none;stroke-linecap:butt;stroke-dashoffset:0;stroke-linejoin:miter;stroke-miterlimit:4;fill:#852b1f;fill-rule:nonzero;opacity:1" vector-effect="non-scaling-stroke" transform="translate(318.82 351.75)" d="m23.12723 10.22592-.35672 1.30797-1.07015.83234-1.30797.83234-1.78359.95125-1.30797.47562-2.0214 1.07015-1.07015.95125s0 1.78359-.23781 2.37812-1.42687 2.14031-1.42687 2.14031l-.95125-1.9025-1.07015-.95125-2.37812-1.07015-.95125-.71344-1.30797-2.0214-1.07015-2.14031-1.07015-1.54578L2.5565 9.39357 1.18225 8.25296-.77287 6.53982l1.95512-2.49703-2.07402-.83234-2.37812.95125-.23781-3.09156.59453-2.25922-1.66468-.95125-1.66468.23781-3.80499.59453-2.25922-.95125-1.30797-1.18906-.59453-1.78359-1.42687-1.54578-2.25922-1.18906-1.66468-1.78359-1.54578-1.99673-.95125-1.68936s-.47562-1.78359-.95125-1.78359c-.47562 0-2.37812-1.18906-2.37812-1.18906l-.71344-2.25922-.23781-2.37812 2.73484.11891 2.85375-.23781 1.93134.47562 1.99256.83234 2.61593 1.18906 1.54578 1.07015 1.78359 1.30797 2.0214.59453 1.9025.35672 2.14031.35672 2.0214.47562 2.25922.71344 1.7173-.47562 2.3255-.35672 1.78359 1.18906.59453 1.68936 1.18906 1.75892 1.54578 1.42687 2.85375.83234 1.66468.95125 1.66468 1.54578 1.54578.95125 2.14031 1.54578 1.54578 1.66468 1.14656 2.25922 1.8261 2.0214 2.0214 1.42687 1.30797 1.30797-1.66468 1.54578-.59453 1.54578z" stroke-linecap="round"/>
  <path style="stroke:#e11f1f;stroke-width:1;stroke-dasharray:none;stroke-linecap:butt;stroke-dashoffset:0;stroke-linejoin:miter;stroke-miterlimit:4;fill:#175a71;fill-rule:nonzero;opacity:1" vector-effect="non-scaling-stroke" transform="translate(309.31 364.56)" d="m22.41379 8.91795.83234 1.66468 1.54578 1.66468 1.42687 1.30797.47562 1.88335-2.73484.61368-2.97265-.11891-2.61593-.49477-2.25922-.69429-3.21046-.83234-3.21046-1.18906-2.97265-1.18906-2.37812-.95125L2.9132 9.39357l-1.30797-.47562-1.78359 1.54578-1.30797 1.18906-.83234 2.0214-1.18906.47562h-3.80499l-1.99256.59453-1.81243.11891-.95125-1.30797-.95125-2.0214-1.30797-1.07015-1.9025-1.54578-2.25922-1.18906-2.61593-1.30797-1.9025-.83234-2.61593-.71344-1.07015-.83234 2.97265-.83234 3.80499-2.14031 3.80499-2.0214 2.0214-.71344 2.25922-.35672 2.52587-1.66468.92241-2.25922.59453-2.25922.95125-2.49703.83234-2.25922.71344-1.66468.83234-1.42687 2.37812 1.18906 1.66468 1.18906 2.0214-.47562 2.14031-.47562h2.0214l.83234 1.18906-.59453 1.9025-.11891 1.9025.23781 1.30797 1.42687-.59453 1.66468-.35672 1.47949.35672-.76606 1.54578-.71344 1.18906 1.47949 1.62175 1.37425 1.58871 1.07015 1.30797.83234 1.18906.83234 1.18906.59453 1.42687.95125 1.66468 1.66468.83234 1.42687.71344 1.07015.83234 1.18906 1.30797z" stroke-linecap="round"/>
  <path style="stroke:#e11f1f;stroke-width:1;stroke-dasharray:none;stroke-linecap:butt;stroke-dashoffset:0;stroke-linejoin:miter;stroke-miterlimit:4;fill:#ea697d;fill-rule:nonzero;opacity:1" vector-effect="non-scaling-stroke" transform="translate(381.96 384.35)" d="m-41.96005-19.16301 1.1269 2.14031-1.1269 3.21046v3.44828l2.07815 2.14031 2.97265 1.9025 2.61593 1.07015 3.80499.90071 3.32937 1.12069 2.25922 2.85375 2.25922 3.09156 1.42687 1.54578-.11891 2.0214.71344 2.14031 1.54578 2.85375 3.56718 1.66468 3.68609.35672 2.25922-.23781 2.14031 1.54578 1.9025 2.25922 3.55799 3.21046 2.50621 2.14031 2.97265 2.61593 3.68609 2.37812 4.16171.23781 2.49703.35672s2.0214.71344 2.25922 1.18906c.23781.47562 2.73484 1.9025 2.73484 1.9025s1.78359 1.66468 1.78359 2.0214c0 .35672-.91668 2.73187-.91668 2.73187l-1.68466 1.78656 2.27919 1.42687 3.32937.35672 2.97265-.23781 1.78359-.23781 2.97265-.71344 2.73484-1.07015 1.54578 2.0214 2.97265-.11891.47562-3.21344 1.18906-3.20749 1.42687-1.18906.23781-60.82262-1.78359 1.54578-1.30797 1.54578-1.66468 2.12761h-1.66468l-1.42687-1.05746-.95125-1.42687v-2.0214l-1.07015-1.66468-1.30797-.59453-1.9025-.11891-1.9025 1.07015-.95125 1.66468-2.14031 1.07015-2.49703-.47562-2.25922-1.07015-1.9025-1.18906-.71344-2.25922.35672-2.37812 1.16909-1.30797-1.28799-1.9025-2.97265-.47562-2.49703-.47562-2.61593-.23781s-1.30797-.11891-1.9025.23781-2.73484 1.18906-2.73484 1.18906l-1.54578.23781-1.07015 1.42687-1.9025 1.9025-1.47063 1.42687-3.76124.71344-2.25922.35672-2.25922-.11891h-1.78359l-1.07015.71344-2.49703 1.18906-1.18906 1.66468-.59453 1.66468v2.24652l-.59453 1.67738-1.30797 1.66468-2.68347.95125-2.42949.11891-2.61593.35672-2.14031-.47562s-2.14031-.83234-2.61593-.83234c-.47562 0-3.09156-.83234-3.09156-.83234l-2.6505-.71344h-1.78359l-1.07015 1.54578z" stroke-linecap="round"/>
  <path style="stroke:#e11f1f;stroke-width:1;stroke-dasharray:none;stroke-linecap:butt;stroke-dashoffset:0;stroke-linejoin:miter;stroke-miterlimit:4;fill:#e9b390;fill-rule:nonzero;opacity:1" vector-effect="non-scaling-stroke" transform="translate(357.42 412.76)" d="m-21.52352 32.37013 8.91795 1.54578 6.18312.71344 18.07372 2.49703 7.13436.71344 5.9453 1.18906 5.23187 1.07015 9.39358 1.31925 3.22506.95125 3.67149 1.30797 5.22579.47562 3.44828.95125 3.56718.83234 2.85375.71344 4.99405.59174.11891-43.87354-1.9025 1.30797-.83234 2.56558-1.14461 3.37973-1.94695.11891-1.78359-1.9025-2.49703.59453-3.09156 1.18906-4.63734.47562-2.97265-.35672-1.66468-.59453-1.4062-1.18906 2.00073-2.37812.35672-1.9025-1.42687-1.9025-2.0214-1.18906L39.82594.03898l-3.68609-.71344-2.97265.11891-2.61593-.95125-1.66468-1.18906-3.21046-2.25922-3.09466-2.97265-3.56408-2.73484-1.54578-2.09554-1.78359-1.82836-1.66468-.47562-3.09156.11891-3.9239-1.07015-2.37812-1.30797-1.42687-2.37812-.62142-2.0214v-2.37812L.81052-26.92269l-2.37812-2.49703-1.42687-2.0214-2.0214-.59453-2.97265-.72245-2.61593-.82333-2.14031-.83234-2.14031-.95125-1.54578-1.42687-.98767-1.54578v-2.85375l.51205-2.97265.35672-1.42687-1.42687-1.65092-2.14031.47562-2.0214 1.07015-1.54578 1.18906-.23781 1.42687-.59453 2.14031-.95125.83234.71344 1.78359 1.78359 2.0214 1.54578 1.18906.95125 1.66468-.47562 1.66468-1.9025.11891-2.37812.23781-2.37812-.35672-2.97265-.97402h-2.61593l-2.14031-1.16629-2.08161-.59453-2.19901-.59453-2.11694-1.07015-1.54578-.71344-1.54578-1.18906-1.30797-.71344.83234 2.0214.83234 2.49703 1.07015 2.14031 2.0214 1.78359 3.95924 1.18906 2.22388.71344 1.78359 1.07015.47562 1.54578.59453 2.37812-.47562 2.49703v2.49703l.47562 2.61593 1.42687 3.09256 1.9025 2.0204 2.14031 1.66468 2.97265 1.07015 1.9025.95125.35672 2.0214-.47562 1.54578-1.66468.59453-.83234 1.54578-.95125 1.66468.23781 2.25922v2.14031l-1.18906.59453h-1.78359l-1.78359.83234-1.42687 1.9025-1.30797 1.66468-2.73484.59453s-2.0214.23781-2.61593.23781c-.59453 0-3.32937.23781-3.32937.23781l-1.9025-.11891-2.14031-.35672-2.14031-.23781-2.14031-.83234-1.54578-.59453-1.42687.59453-1.30797 1.66468-1.07015 2.49703-1.30797 2.37812-.11891 2.14031.11891 2.37812-2.0214 1.42687-1.66468 1.30797h-1.9025l-1.5397-.88739-1.54578.11891-.95125 1.42687-.35672 2.0214z" stroke-linecap="round"/>
</svg>
