<!-- Generated by IcoMoon.io -->
<svg version="1.1" xmlns="http://www.w3.org/2000/svg" width="32" height="32" viewBox="0 0 32 32">
<title>person</title>
<path d="M20.79 4.036c-1.216-1.313-2.915-2.036-4.79-2.036-1.885 0-3.589 0.719-4.8 2.024-1.224 1.319-1.82 3.112-1.68 5.049 0.277 3.82 3.184 6.928 6.48 6.928s6.197-3.107 6.479-6.926c0.142-1.919-0.458-3.708-1.689-5.037z"></path>
<path d="M27 30h-22c-0.008 0-0.016 0-0.025 0-0.596 0-1.129-0.269-1.485-0.693l-0.002-0.003c-0.406-0.486-0.57-1.149-0.449-1.819 0.527-2.926 2.174-5.384 4.761-7.11 2.299-1.532 5.211-2.375 8.2-2.375s5.901 0.844 8.2 2.375c2.587 1.725 4.234 4.183 4.761 7.109 0.121 0.671-0.043 1.334-0.449 1.819-0.358 0.427-0.891 0.696-1.488 0.696-0.009 0-0.017-0-0.026-0h0.001z"></path>
</svg>
